<?xml version="1.0" encoding="UTF-8"?>
<svg
	xmlns="http://www.w3.org/2000/svg"
	xmlns:xlink="http://www.w3.org/1999/xlink" viewBox="0 0 991 1225">
    <link xmlns="http://www.w3.org/1999/xhtml" rel="stylesheet" href="../../styles/rosa.css" type="text/css"/>
	<defs>
		<style>.cls-1{opacity:.3;}.cls-1,.cls-2,.cls-3,.cls-4{fill:#212121;}.cls-5{fill:url(#linear-gradient);}.cls-5,.cls-6{mix-blend-mode:multiply;}.cls-7{fill:#ed6c00;}.cls-8{isolation:isolate;}.cls-9,.cls-10{fill:#4d4d4d;}.cls-11{opacity:.1;}.cls-11,.cls-12,.cls-13,.cls-14{fill:#fff;}.cls-12,.cls-15,.cls-3{opacity:.5;}.cls-16{fill:#f3e6ff;}.cls-17,.cls-10{opacity:.25;}.cls-17,.cls-18{fill:#424242;}.cls-19{fill:#fcdffc;}.cls-20{fill:#607d89;}.cls-21{fill:#333;}.cls-22{fill:#aebcc3;}.cls-23{fill:#e45100;}.cls-24{opacity:0;}.cls-24,.cls-25{fill:#231942;}.cls-15,.cls-26{fill:#2c2c2c;}.cls-27{fill:#3a3a3a;}.cls-2{opacity:.4;}.cls-28{clip-path:url(#clippath);}.cls-29{fill:#9d84be;}.cls-13,.cls-4{opacity:.2;}.cls-30,.cls-31{fill:none;}.cls-6{fill:url(#linear-gradient-2);}.cls-32{fill:#757575;}.cls-33{fill:#c6d7ff;}.cls-34{fill:#bc93c2;}.cls-35{filter:url(#luminosity-noclip-2);}.cls-36{mask:url(#mask-1);}.cls-37{mask:url(#mask);}.cls-38{fill:#1a1a1a;}.cls-39{fill:#f98a00;}.cls-40{fill:#f6edff;}.cls-31{stroke:#3a3a3a;stroke-width:6px;}.cls-41{fill:#eaedef;}.cls-42{fill:#666;}.cls-14{opacity:.05;}.cls-43{fill:#788e9a;}.cls-44{fill:#5e548c;}</style>
		<clipPath id="clippath">
			<rect class="cls-30" x="187.95" y="30.27" width="615" height="511"/>
		</clipPath>
		<filter id="luminosity-noclip-2" x="216.72" y="776.81" width="475.77" height="58.36" color-interpolation-filters="sRGB" filterUnits="userSpaceOnUse">
			<feFlood flood-color="#fff" result="bg"/>
			<feBlend in="SourceGraphic" in2="bg"/>
		</filter>
		<filter id="luminosity-noclip-3" x="216.72" y="-7992" width="475.77" height="32766" color-interpolation-filters="sRGB" filterUnits="userSpaceOnUse">
			<feFlood flood-color="#fff" result="bg"/>
			<feBlend in="SourceGraphic" in2="bg"/>
		</filter>
		<mask id="mask-1" x="216.72" y="-7992" width="475.77" height="32766" maskUnits="userSpaceOnUse"/>
		<linearGradient id="linear-gradient" x1="-5617.35" y1="835.6" x2="-5617.35" y2="775.55" gradientTransform="translate(-5162.75) rotate(-180) scale(1 -1)" gradientUnits="userSpaceOnUse">
			<stop offset="0" stop-color="#000"/>
			<stop offset="1" stop-color="#fff"/>
		</linearGradient>
		<mask id="mask" x="216.72" y="776.81" width="475.77" height="58.36" maskUnits="userSpaceOnUse">
			<g class="cls-35">
				<g class="cls-36">
					<path class="cls-5" d="M692.49,780.64h-15.62c-9.7,0-12.69,10.27-12.69,22.81v31.72H216.72v-58.36h475.77v3.82Z"/>
				</g>
			</g>
		</mask>
		<linearGradient id="linear-gradient-2" x1="-5617.35" y1="835.6" x2="-5617.35" y2="775.55" gradientTransform="translate(-5162.75) rotate(-180) scale(1 -1)" gradientUnits="userSpaceOnUse">
			<stop offset="0" stop-color="#fff"/>
			<stop offset="1" stop-color="#546e7a"/>
		</linearGradient>
	</defs>
	<g id="main" class="cls-8">
		<g id="Rosa">
			<g id="Raam"  onclick="toggleNight()">
				<g class="cls-28">
					<g>
						<g id="Rectangle_19">
							<rect id="Achtergrond_raam" class="cls-33" x="187.89" y="29.82" width="615" height="514"/>
							<rect class="cls-31" x="190.89" y="32.82" width="609" height="508"/>
						</g>
						<path id="Union_5" class="cls-25" d="M656.09,565.82v-68.3h-44.19l24.98-41.12h-12.36l13.13-21.61h-13.13l23.71-39.03h-15.3l16.13-26.49h-10.51l20.34-33.45,20.34,33.45h-9.81l16.12,26.49h-15.3l23.72,39.03h-13.13l13.13,21.61h-13.06l24.98,41.12h-43.49v68.3h-6.31Z"/>
						<path id="Union_3" class="cls-44" d="M721.89,560.82v-98h-63l35.61-59h-17.61l18.71-31h-18.71l33.8-56h-21.8l22.98-38h-14.98l29-48,29,48h-13.98l22.98,38h-21.8l33.8,56h-18.71l18.71,31h-18.61l35.61,59h-62v98h-9Z"/>
						<circle id="Zonlicht" class="cls-40" cx="495.39" cy="353.32" r="44.5"/>
						<path id="Union_7" class="cls-25" d="M244.06,560.82v-76.62h49.84l-28.17-46.13h13.93l-14.8-24.24h14.8l-26.74-43.78h17.25l-18.18-29.71h11.85l-22.94-37.53-22.94,37.53h11.06l-18.18,29.71h17.25l-26.74,43.78h14.8l-14.8,24.24h14.72l-28.17,46.13h49.04v76.62h7.12Z"/>
						<path id="Union_13" class="cls-25" d="M244.06,560.82v-76.62h49.84l-28.17-46.13h13.93l-14.8-24.24h14.8l-26.74-43.78h17.25l-18.18-29.71h11.85l-22.94-37.53-22.94,37.53h11.06l-18.18,29.71h17.25l-26.74,43.78h14.8l-14.8,24.24h14.72l-28.17,46.13h49.04v76.62h7.12Z"/>
						<path id="Union_15" class="cls-44" d="M308.4,560.82v-61.77h39.49l-22.32-37.19h11.04l-11.73-19.54h11.73l-21.19-35.3h13.67l-14.41-23.95h9.39l-18.18-30.25-18.18,30.25h8.77l-14.41,23.95h13.67l-21.19,35.3h11.73l-11.73,19.54h11.67l-22.33,37.19h38.87v61.77h5.64Z"/>
						<path id="Union_17" class="cls-34" d="M269.69,575.82v-56.13h36.2l-20.46-33.79h10.12l-10.76-17.75h10.76l-19.42-32.07h12.53l-13.21-21.76h8.61l-16.66-27.49-16.67,27.49h8.04l-13.21,21.76h12.53l-19.43,32.07h10.75l-10.75,17.75h10.7l-20.47,33.79h35.63v56.13h5.17Z"/>
						<path id="Union_9" class="cls-44" d="M308.4,560.82v-61.77h39.49l-22.32-37.19h11.04l-11.73-19.54h11.73l-21.19-35.3h13.67l-14.41-23.95h9.39l-18.18-30.25-18.18,30.25h8.77l-14.41,23.95h13.67l-21.19,35.3h11.73l-11.73,19.54h11.67l-22.33,37.19h38.87v61.77h5.64Z"/>
						<path id="Union_31" class="cls-34" d="M366.04,560.82v-40.39h25.86l-14.62-24.31h7.23l-7.68-12.78h7.68l-13.88-23.08h8.95l-9.43-15.66h6.15l-11.9-19.78-11.9,19.78h5.74l-9.44,15.66h8.95l-13.87,23.08h7.68l-7.68,12.78h7.64l-14.62,24.31h25.45v40.39h3.69Z"/>
						<path id="Union_33" class="cls-25" d="M477.41,556.82v-24.05h-15.52l8.77-14.48h-4.34l4.61-7.61h-4.61l8.32-13.74h-5.37l5.66-9.33h-3.69l7.14-11.78,7.14,11.78h-3.44l5.66,9.33h-5.37l8.33,13.75h-4.61l4.61,7.61h-4.58l8.77,14.48h-15.27v24.05h-2.22Z"/>
						<path id="Union_11" class="cls-29" d="M269.69,575.82v-56.13h36.2l-20.46-33.79h10.12l-10.76-17.75h10.76l-19.42-32.07h12.53l-13.21-21.76h8.61l-16.66-27.49-16.67,27.49h8.04l-13.21,21.76h12.53l-19.43,32.07h10.75l-10.75,17.75h10.7l-20.47,33.79h35.63v56.13h5.17Z"/>
						<path id="Union_27" class="cls-44" d="M562.04,540.82v-45.44h-29.15l16.48-27.36h-8.15l8.66-14.37h-8.66l15.64-25.96h-10.09l10.63-17.62h-6.93l13.42-22.25,13.42,22.25h-6.47l10.63,17.62h-10.09l15.64,25.96h-8.66l8.66,14.37h-8.61l16.48,27.35h-28.69v45.44h-4.16Z"/>
						<path id="Union_29" class="cls-44" d="M433.11,540.82v-31.48h-20.22l11.43-18.95h-5.65l6-9.96h-6l10.85-17.99h-7l7.38-12.21h-4.81l9.31-15.42,9.31,15.42h-4.49l7.38,12.21h-7l10.85,17.99h-6l6,9.96h-5.97l11.43,18.95h-19.9v31.48h-2.88Z"/>
						<g id="Raam_Lampen">
							<rect id="Rectangle_33" class="cls-16" x="550.89" y="457.82" width="13" height="21"/>
							<rect id="Rectangle_33-2" class="cls-16" x="414.89" y="457.82" width="13" height="21"/>
							<rect id="Rectangle_33-3" class="cls-16" x="526.89" y="492.82" width="7" height="13"/>
							<rect id="Rectangle_33-4" class="cls-16" x="445.89" y="492.82" width="8" height="13"/>
							<rect id="Rectangle_33-5" class="cls-16" x="508.89" y="518.82" width="4" height="6"/>
							<rect id="Rectangle_33-6" class="cls-16" x="468.89" y="518.82" width="4" height="6"/>
							<rect id="Rectangle_33-7" class="cls-16" x="582.89" y="415.82" width="19" height="32"/>
							<rect id="Rectangle_33-8" class="cls-16" x="380.89" y="415.82" width="19" height="32"/>
						</g>
						<g id="Rectangle_23">
							<rect class="cls-30" x="187.89" y="29.82" width="615" height="514"/>
							<rect class="cls-31" x="190.89" y="32.82" width="609" height="508"/>
						</g>
						<path id="Union_24" class="cls-27" d="M546.89,457.82v-4.19l9.36-7.78v-.04h2.27v.04l9.36,7.78v4.19h-21Z"/>
						<path id="Union_25" class="cls-27" d="M567.89,477.82v4.19l-9.36,7.78v.04h-2.27v-.04l-9.36-7.78v-4.19h21Z"/>
						<rect id="Rectangle_39" class="cls-27" x="553.89" y="486.82" width="7" height="57"/>
						<path id="Union_24-2" class="cls-27" d="M410.89,457.82v-4.19l9.36-7.78v-.04h2.27v.04l9.36,7.78v4.19h-21Z"/>
						<path id="Union_24-7" class="cls-27" d="M576.89,416.82v-6.28l13.82-11.66v-.06h3.36v.06l13.82,11.66v6.28h-31Z"/>
						<path id="Union_25-7" class="cls-27" d="M607.89,445.82v6.28l-13.82,11.66v.06h-3.36v-.06l-13.82-11.66v-6.28h31Z"/>
						<rect id="Rectangle_39-7" class="cls-27" x="586.89" y="458.82" width="11" height="85"/>
						<path id="Union_25-2" class="cls-27" d="M431.89,477.82v4.19l-9.36,7.78v.04h-2.27v-.04l-9.36-7.78v-4.19h21Z"/>
						<rect id="Rectangle_39-2" class="cls-27" x="417.89" y="486.82" width="7" height="57"/>
						<path id="Union_24-3" class="cls-27" d="M523.89,492.82v-2.44l5.35-4.54v-.02h1.3v.02l5.35,4.54v2.44h-12Z"/>
						<path id="Union_25-3" class="cls-27" d="M536.89,504.82v2.44l-5.35,4.54v.02h-1.3v-.02l-5.35-4.54v-2.44h12Z"/>
						<rect id="Rectangle_39-3" class="cls-27" x="527.89" y="509.82" width="5" height="34"/>
						<path id="Union_24-4" class="cls-27" d="M443.89,492.82v-2.44l5.35-4.54v-.02h1.3v.02l5.35,4.54v2.44h-12Z"/>
						<path id="Union_25-4" class="cls-27" d="M455.89,504.82v2.44l-5.35,4.54v.02h-1.3v-.02l-5.35-4.54v-2.44h12Z"/>
						<rect id="Rectangle_39-4" class="cls-27" x="447.89" y="509.82" width="4" height="34"/>
						<path id="Union_24-5" class="cls-27" d="M507.89,518.82v-1.4l2.67-2.59h.65l2.68,2.59v1.4h-6Z"/>
						<path id="Union_25-5" class="cls-27" d="M513.89,523.82v1.4l-2.67,2.59h-.65l-2.68-2.59v-1.4h6Z"/>
						<rect id="Rectangle_39-5" class="cls-27" x="509.89" y="526.82" width="2" height="17"/>
						<path id="Union_24-6" class="cls-27" d="M467.89,518.82v-1.4l2.67-2.59h.65l2.68,2.59v1.4h-6Z"/>
						<path id="Union_25-6" class="cls-27" d="M473.89,523.82v1.4l-2.67,2.59h-.65l-2.68-2.59v-1.4h6Z"/>
						<rect id="Rectangle_39-6" class="cls-27" x="469.89" y="526.82" width="2" height="17"/>
						<path id="Union_24-8" class="cls-27" d="M374.89,416.82v-6.28l13.82-11.66v-.06h3.36v.06l13.82,11.66v6.28h-31Z"/>
						<path id="Union_25-8" class="cls-27" d="M405.89,445.82v6.28l-13.82,11.66v.06h-3.36v-.06l-13.82-11.66v-6.28h31Z"/>
						<rect id="Rectangle_39-8" class="cls-27" x="384.89" y="458.82" width="11" height="85"/>
						<g id="Wolk_groot" transform="translate(38.688 78.759)">
							<path id="Path_1" class="cls-16" d="M343.16,108.63c-.34,.04-1.46,.16-2.49,.27-9.65,1.13-18.81,4.88-26.48,10.84-2.73,2.23-5.27,4.7-7.59,7.36-3.78,4.55-6.71,9.73-8.65,15.32-.13,.53-.35,1.03-.66,1.47-.35-.11-.69-.25-1.01-.43-5.93-2.74-12.87-2.07-18.16,1.76-1.58,1.28-2.98,2.78-4.16,4.44-1.69,2.49-2.69,5.38-2.9,8.39,0,.56-.07,1.11-.21,1.65-.05,0-1.19-.16-2.51-.35-12.74-1.88-25.77,1.73-34.03,9.45-5.76,5.37-8.51,12.47-7.54,19.44,.99,5.79,4.03,11.02,8.56,14.75,7.53,6.34,17.66,9.49,28.84,8.94,5.6-.23,11.1-1.59,16.17-3.98l1.97-.92,.59,1.44c3.3,8.12,10.43,14.06,19.01,15.85,3.51,.51,7.08,.49,10.59-.05,4.65-1.04,8.92-3.32,12.37-6.61l1.74-1.67,1.44,.66c8.5,3.79,18.14,4.11,26.87,.89,2.42-.97,4.74-2.19,6.91-3.64,.42-.32,.86-.61,1.32-.87,.55,.42,1.08,.89,1.56,1.39,7.17,6.57,16.42,10.41,26.14,10.84,9.24,.61,18.42-1.85,26.12-6.98,2.55-1.73,4.91-3.73,7.04-5.97,.98-1.1,3.25-4,3.68-4.69,.09-.14,.64-.18,1.72-.11,3.84,.28,7.69-.45,11.16-2.13,8.41-4.02,13.02-13.23,11.2-22.37-.35-1.8-.97-3.54-1.85-5.15-3.15-6.01-8.99-10.15-15.71-11.14-2.59-.33-5.22-.23-7.78,.28l-1.39,.34-1.72-1.78c-6.29-6.39-14.48-10.56-23.35-11.87l-1.55-.23-.11-.82c-.59-5.48-2.15-10.81-4.62-15.74-2.36-4.89-5.54-9.34-9.4-13.15-8.16-8.09-18.76-13.27-30.16-14.75-3.66-.32-7.33-.43-11-.34Z"/>
						</g>
						<g id="Wolk_klein" transform="translate(223.292 29.628)">
							<path id="Path_1-2" class="cls-19" d="M486.84,59.49c.23,.03,1.01,.11,1.73,.18,6.69,.78,13.05,3.39,18.37,7.52,1.9,1.55,3.66,3.25,5.26,5.1,2.62,3.15,4.65,6.75,6,10.63,.09,.37,.24,.71,.46,1.02,.24-.08,.48-.18,.7-.3,4.11-1.9,8.93-1.44,12.6,1.22,1.1,.89,2.07,1.93,2.88,3.08,1.17,1.73,1.87,3.74,2.01,5.82,0,.39,.05,.77,.15,1.15,.04,0,.83-.11,1.74-.25,8.84-1.31,17.88,1.2,23.61,6.56,3.86,3.36,5.81,8.41,5.23,13.49-.69,4.01-2.8,7.65-5.94,10.23-5.23,4.4-12.26,6.58-20.01,6.2-3.89-.16-7.7-1.1-11.22-2.76l-1.37-.64-.41,1c-2.29,5.63-7.24,9.76-13.19,11-2.44,.35-4.91,.34-7.35-.04-3.22-.72-6.19-2.31-8.58-4.59l-1.21-1.16-1,.46c-5.9,2.63-12.59,2.85-18.64,.62-1.68-.67-3.29-1.52-4.8-2.53-.29-.22-.59-.42-.91-.6-.38,.29-.75,.61-1.08,.96-4.98,4.56-11.4,7.22-18.14,7.52-6.41,.42-12.77-1.28-18.11-4.84-1.77-1.2-3.41-2.59-4.88-4.14-.68-.77-2.26-2.77-2.55-3.26-.06-.1-.44-.12-1.2-.07-2.67,.2-5.34-.31-7.74-1.48-5.83-2.79-9.03-9.18-7.77-15.52,.24-1.25,.68-2.46,1.28-3.58,2.19-4.17,6.24-7.05,10.9-7.73,1.8-.23,3.62-.16,5.4,.2l.96,.23,1.2-1.23c4.36-4.43,10.05-7.32,16.2-8.24l1.07-.16,.07-.57c.41-3.8,1.49-7.5,3.21-10.92,1.64-3.39,3.84-6.48,6.52-9.12,5.66-5.61,13.01-9.21,20.92-10.23,2.54-.22,5.09-.3,7.63-.23Z"/>
						</g>
						<circle id="Maan_cirkel" class="cls-24" cx="509.84" cy="332.79" r="44.5"/>
					</g>
				</g>
			</g>
			<g id="Printer">
				<g>
					<path class="cls-42" d="M651.22,748.13c0-20.91,6.16-38.02,25.54-38.02h15.73v70.53h-15.62c-9.7,0-12.69,10.27-12.69,22.81v231.7c0,12.55,5.65,22.81,15.16,22.81h13.15v86.37h-9.09c-4.96,0-9.13,27.66-17.06,27.66h-8.92c-3.42,0-6.2-10.21-6.2-22.81v-40.11h.03c-.02-.91-.03-1.83-.03-2.76v-358.19Z"/>
					<path class="cls-21" d="M669.15,710.11h23.34v70.53h-23.22c-9.7,0-12.69,10.27-12.69,22.81v231.7c0,12.55,5.65,22.81,15.16,22.81h20.75v86.37h-16.69c-4.96,0-8.31,27.66-17.06,27.66h-8.92c-3.42,0-6.2-10.21-6.2-22.81v-401.06c0-20.91,6.16-38.02,25.54-38.02Z"/>
				</g>
				<path d="M278.13,759.46h307.57c13.55,0,24.55,11,24.55,24.55v249.32c0,13.55-11,24.55-24.55,24.55H278.13c-13.55,0-24.55-11-24.55-24.55v-249.32c0-13.55,11-24.55,24.55-24.55Z"/>
				<rect class="cls-21" x="583.62" y="1144.34" width="67.43" height="27.66"/>
				<g>
					<g>
						<path class="cls-39" d="M511.9,861.73h7.6v-211.74c0-37.4-30.42-67.82-67.82-67.82-37.4,0-67.82,30.42-67.82,67.82v82.93h7.6v-82.93c0-33.2,27.01-60.22,60.22-60.22,33.2,0,60.22,27.01,60.22,60.22v211.74Z"/>
						<path class="cls-13" d="M514.56,861.73h2.28v-211.74c0-35.93-29.23-65.16-65.16-65.16-35.93,0-65.16,29.23-65.16,65.16v82.93h2.28v-82.93c0-34.67,28.21-62.88,62.88-62.88s62.88,28.21,62.88,62.88v211.74Z"/>
					</g>
					<g>
						<path class="cls-18" d="M480.66,861.73h11.41v-211.74c0-38.45-31.28-69.72-69.72-69.72-38.45,0-69.72,31.28-69.72,69.72v82.93h11.41v-82.93c0-32.16,26.16-58.32,58.32-58.32,32.15,0,58.32,26.16,58.32,58.32v211.74Z"/>
						<path class="cls-32" d="M484.46,861.73h3.8v-211.74c0-36.35-29.57-65.92-65.92-65.92s-65.92,29.57-65.92,65.92v82.93h3.8v-82.93c0-34.25,27.87-62.12,62.12-62.12,34.25,0,62.12,27.87,62.12,62.12v211.74Z"/>
					</g>
				</g>
				<rect class="cls-9" x="643.61" y="1138.44" width="10.35" height="33.56"/>
				<path class="cls-21" d="M565.48,1057.97c12.55,0,22.81-10.27,22.81-22.81v-231.7c0-12.55-10.27-22.81-22.81-22.81v-70.53h32.51c20.91,0,38.02,17.11,38.02,38.02v401.06c0,12.6-10.21,22.81-22.81,22.81h-47.72v-114.03Z"/>
				<path class="cls-38" d="M216.72,1149.19c0,12.6,10.21,22.81,22.81,22.81h66.44c20.91,0,38.97-27.66,57.23-27.66h133.94c18.25,0,36.31,27.66,57.23,27.66h66.44c12.6,0,22.81-10.21,22.81-22.81v-401.06c0-20.91-17.11-38.02-38.02-38.02H254.74c-20.91,0-38.02,17.11-38.02,38.02v401.06Zm70.53-91.22c-12.55,0-22.81-10.27-22.81-22.81v-231.7c0-12.55,10.27-22.81,22.81-22.81h285.84c12.55,0,22.81,10.27,22.81,22.81v231.7c0,12.55-10.27,22.81-22.81,22.81H287.25Z"/>
				<g class="cls-37">
					<path class="cls-6" d="M692.49,780.64h-15.62c-9.7,0-12.69,10.27-12.69,22.81v31.72H216.72v-58.36h475.77v3.82Z"/>
				</g>
				<rect class="cls-1" x="511.9" y="776.81" width="7.6" height="12.1"/>
				<rect class="cls-2" x="480.66" y="776.81" width="11.41" height="12.1"/>
				<rect class="cls-4" x="638.92" y="1035.91" width="9.38" height="12.1"/>
				<g>
					<g>
						<rect class="cls-43" x="638.92" y="776.81" width="9.38" height="267.43"/>
						<rect class="cls-4" x="639.56" y="776.81" width="2.08" height="267.43"/>
						<rect class="cls-12" x="643.17" y="776.81" width="3.06" height="267.43"/>
					</g>
					<rect class="cls-1" x="638.92" y="776.81" width="9.38" height="12.1"/>
				</g>
				<g>
					<rect class="cls-22" x="247.24" y="1041.96" width="155.02" height="16.01"/>
					<rect class="cls-41" x="402.27" y="1041.96" width="302.92" height="16.01"/>
					<rect class="cls-4" x="247.24" y="1051.34" width="457.94" height="6.63"/>
				</g>
				<g>
					<g>
						<rect class="cls-20" x="231.46" y="776.81" width="9.38" height="290.24"/>
						<rect class="cls-4" x="232.09" y="776.81" width="2.08" height="290.24"/>
						<rect class="cls-12" x="235.7" y="776.81" width="3.07" height="290.24"/>
					</g>
					<rect class="cls-1" x="231.46" y="776.81" width="9.38" height="12.1"/>
				</g>
				<g id="Print_kop">
					<g>
						<g>
							<g>
								<path class="cls-18" d="M659.78,870.66c-1.38,0-2.5,2.95-2.5,6.59,0,3.64,1.12,6.59,2.5,6.59h13.15v-13.18h-13.15Z"/>
								<path class="cls-3" d="M658.61,883.08h14.32v-2.98h-15.41c.23,1.27,.61,2.32,1.09,2.98Z"/>
								<path class="cls-11" d="M657.28,876.9h15.65v-3.87h-15.08c-.34,1.06-.54,2.4-.57,3.87Z"/>
							</g>
							<path class="cls-26" d="M657.28,877.25c0,3.64,1.12,6.59,2.5,6.59s2.5-2.95,2.5-6.59c0-3.64-1.12-6.59-2.5-6.59-1.38,0-2.5,2.95-2.5,6.59Z"/>
						</g>
						<g>
							<g>
								<path class="cls-43" d="M659.02,872.56c.98,0,1.78,2.1,1.78,4.69s-.8,4.69-1.78,4.69h-69.9v-9.38h69.9Z"/>
								<path class="cls-4" d="M659.91,881.31h-70.79v-2.07h71.51c-.15,.87-.41,1.6-.72,2.07Z"/>
								<path class="cls-12" d="M660.8,877.25c0,.15,0,.3,0,.45h-71.68v-3.07h71.38c.19,.75,.3,1.65,.3,2.61Z"/>
							</g>
							<path class="cls-17" d="M593.68,872.56h21.76c.46,1.19,.74,2.85,.74,4.69,0,1.84-.29,3.49-.74,4.69h-21.76v-9.38Z"/>
						</g>
						<g>
							<path class="cls-18" d="M609.88,870.66c1.38,0,2.5,2.95,2.5,6.59s-1.12,6.59-2.5,6.59h-20.76v-13.18h20.76Z"/>
							<path class="cls-3" d="M611.04,883.08h-21.92v-2.98h23.01c-.23,1.27-.62,2.32-1.09,2.98Z"/>
							<path class="cls-11" d="M612.37,876.9h-23.26v-3.87h22.68c.33,1.06,.54,2.4,.57,3.87Z"/>
							<path class="cls-3" d="M593.14,870.66c1.38,0,2.5,2.95,2.5,6.59,0,3.64-1.12,6.59-2.5,6.59h-4.03v-13.18h4.03Z"/>
						</g>
					</g>
					<g>
						<polygon class="cls-26" points="417.1 903.87 414.06 897.31 414.06 857.19 417.1 850.63 462.34 850.63 462.34 903.87 417.1 903.87"/>
						<g>
							<polygon class="cls-43" points="510.51 933.78 527.52 921.61 489.47 921.61 506.48 933.78 510.51 933.78"/>
							<polygon class="cls-4" points="507.27 933.78 496.14 921.61 490.23 921.61 506.65 933.78 507.27 933.78"/>
							<polygon class="cls-11" points="510.13 933.78 523.15 921.61 513.17 921.61 508.32 933.78 510.13 933.78"/>
							<polygon class="cls-3" points="497.18 927.12 490.53 922.37 526.46 922.37 519.81 927.12 497.18 927.12"/>
							<rect class="cls-18" x="484.4" y="903.11" width="48.19" height="19.27"/>
							<rect class="cls-11" x="510.06" y="903.11" width="15.93" height="19.27"/>
							<rect class="cls-4" x="486.77" y="903.11" width="10.46" height="19.27"/>
							<rect class="cls-3" x="484.4" y="903.11" width="48.19" height="7.1"/>
						</g>
						<polygon class="cls-18" points="586.83 903.87 589.88 897.31 589.88 857.19 586.83 850.63 454.49 850.63 457.53 857.19 457.53 897.31 454.49 903.87 586.83 903.87"/>
						<path class="cls-18" d="M491.08,861.38h65.24c3.78,0,6.85,3.07,6.85,6.85v18.06c0,3.78-3.07,6.84-6.84,6.84h-65.24c-3.78,0-6.84-3.07-6.84-6.84v-18.06c0-3.78,3.07-6.84,6.84-6.84Z"/>
						<g>
							<path class="cls-11" d="M491.08,890.35h65.25c3.76,0,6.84-2.54,6.84-5.65v1.58c0,3.76-3.08,6.84-6.84,6.84h-65.25c-3.76,0-6.84-3.08-6.84-6.84v-1.58c0,3.11,3.08,5.65,6.84,5.65Z"/>
							<path class="cls-15" d="M491.08,861.38h65.25c3.76,0,6.84,3.08,6.84,6.85v1.58c0-3.11-3.08-5.65-6.84-5.65h-65.25c-3.76,0-6.84,2.54-6.84,5.65v-1.58c0-3.77,3.08-6.85,6.84-6.85Z"/>
						</g>
						<polygon class="cls-15" points="586.83 903.87 589.88 897.31 457.53 897.31 454.49 903.87 586.83 903.87"/>
						<polygon class="cls-11" points="589.88 857.19 586.83 850.63 454.49 850.63 457.53 857.19 589.88 857.19"/>
					</g>
					<g>
						<g>
							<path class="cls-18" d="M395.36,877.25c0,1.02,.09,1.99,.25,2.85,.08,.48,.2,.93,.32,1.33,.08,.25,.16,.48,.25,.69l.09,.21c.08,.18,.17,.33,.25,.48,.05,.08,.1,.16,.14,.23,.02,.01,.02,.02,.03,.04,.34,.49,.75,.76,1.16,.76h35.97c.42,0,.82-.27,1.16-.76,.48-.65,.86-1.7,1.09-2.97,.16-.86,.25-1.83,.25-2.85,0-.12,0-.24,0-.35-.02-1.47-.24-2.81-.57-3.87-.46-1.45-1.15-2.37-1.92-2.37h-35.97c-.78,0-1.47,.92-1.92,2.37-.05,.18-.11,.36-.16,.56-.04,.17-.08,.34-.11,.53-.04,.18-.08,.38-.11,.58-.02,.14-.04,.28-.06,.43-.05,.4-.09,.81-.11,1.24-.02,.17-.02,.36-.02,.53h0c0,.13,0,.25,0,.36Z"/>
							<path class="cls-3" d="M395.61,880.1c.08,.48,.2,.93,.32,1.33,.08,.25,.16,.48,.25,.69l.09,.21c.08,.18,.17,.33,.25,.48,.05,.08,.1,.16,.14,.23,.02,.01,.02,.02,.03,.04h38.3c.48-.65,.86-1.7,1.09-2.97h-40.47Z"/>
							<path class="cls-11" d="M395.36,876.89h40.96c-.02-1.45-.24-2.8-.57-3.86h-39.82c-.05,.18-.11,.36-.16,.56-.04,.17-.08,.34-.11,.53-.04,.18-.08,.38-.11,.58-.02,.14-.04,.28-.06,.43-.05,.4-.09,.81-.11,1.24-.02,.17-.02,.36-.02,.53Z"/>
							<path class="cls-26" d="M395.36,877.25c0,3.64,1.12,6.59,2.5,6.59s2.5-2.95,2.5-6.59-1.12-6.59-2.5-6.59-2.5,2.95-2.5,6.59Z"/>
						</g>
						<g>
							<g>
								<path class="cls-43" d="M396.34,872.56c1.74,0,2.54,2.1,2.54,4.69s-.8,4.69-2.54,4.69h-123.14v-9.38h123.14Z"/>
								<path class="cls-4" d="M397.23,881.31h-124.03v-2.07h124.75c.61,.87,.35,1.6-.72,2.07Z"/>
								<path class="cls-12" d="M398.88,877.25c0,.15,0,.3-.77,.45h-124.91v-3.07h124.61c.95,.75,1.06,1.65,1.06,2.61Z"/>
							</g>
							<path class="cls-17" d="M278.53,872.56h15.67c.46,1.19,.74,2.85,.74,4.69s-.29,3.49-.74,4.69h-15.67v-9.38Z"/>
						</g>
					</g>
					<g>
						<g>
							<g>
								<path class="cls-26" d="M227.88,877.25c0,1.02,.24,1.99,.65,2.85,.62,1.27,1.63,2.32,2.87,2.97,.91,.49,1.96,.76,3.07,.76h9.35c.42,0,.82-.27,1.16-.76,0-.01,.02-.02,.03-.04,.05-.07,.09-.15,.14-.23,.08-.14,.17-.3,.25-.48l.09-.21c.09-.21,.17-.44,.25-.69,.12-.4,.24-.85,.32-1.33,.16-.86,.25-1.83,.25-2.85,0-.12,0-.24,0-.35h0c0-.19,0-.37-.02-.55-.01-.43-.05-.84-.11-1.24-.02-.14-.04-.29-.06-.43-.03-.2-.07-.4-.11-.58-.04-.18-.08-.36-.11-.53-.05-.19-.11-.38-.16-.56-.46-1.45-1.15-2.37-1.93-2.37h-9.35c-2.04,0-3.85,.92-5.06,2.37-.88,1.06-1.44,2.4-1.52,3.87,0,.12,0,.24,0,.35Z"/>
								<path class="cls-3" d="M228.53,880.1c.62,1.27,1.63,2.32,2.87,2.97h13.59s.02-.02,.03-.04c.05-.07,.09-.15,.14-.23,.08-.14,.17-.3,.25-.48l.09-.21c.09-.21,.17-.44,.25-.69,.12-.4,.24-.85,.32-1.33h-17.55Z"/>
								<path class="cls-11" d="M227.89,876.9h18.43c0-.19,0-.37-.02-.55-.01-.43-.05-.84-.11-1.24-.02-.14-.04-.29-.06-.43-.03-.2-.07-.4-.11-.58-.04-.18-.08-.36-.11-.53-.05-.19-.11-.38-.16-.56h-16.34c-.88,1.06-1.44,2.4-1.52,3.87Z"/>
								<path class="cls-18" d="M250.42,877.25c0,3.64-2.95,6.59-6.59,6.59s-6.59-2.95-6.59-6.59c0-3.64,2.95-6.59,6.59-6.59,3.64,0,6.59,2.95,6.59,6.59Z"/>
							</g>
							<g>
								<path class="cls-20" d="M240.21,877.25c0,.15,0,.3,.02,.45,.05,.55,.2,1.06,.42,1.54,.41,.87,1.08,1.6,1.9,2.07,.69,.4,1.49,.63,2.34,.63h39.48v-9.38h-39.48c-1.62,0-3.05,.82-3.89,2.08-.49,.74-.79,1.64-.79,2.61Z"/>
								<path class="cls-4" d="M240.65,879.24c.41,.87,1.08,1.6,1.9,2.07h41.83v-2.07h-43.73Z"/>
								<path class="cls-12" d="M240.21,877.25c0,.15,0,.3,.02,.45h44.15v-3.06h-43.38c-.49,.74-.79,1.64-.79,2.61Z"/>
							</g>
						</g>
						<g>
							<g>
								<path class="cls-26" d="M260.36,877.25c0,1.02,.24,1.99,.65,2.85,.62,1.27,1.63,2.32,2.87,2.97,.92,.49,1.96,.76,3.07,.76h18.71c.42,0,.82-.27,1.16-.76,0-.02,.02-.02,.03-.04,.05-.07,.09-.15,.15-.23,.08-.14,.17-.3,.25-.48l.09-.21c.09-.21,.18-.44,.25-.69,.12-.4,.24-.85,.32-1.33,.16-.86,.25-1.83,.25-2.85,0-.11,0-.23,0-.35h0c0-.19,0-.37-.02-.55-.02-.43-.05-.84-.11-1.24-.02-.15-.04-.29-.06-.43-.03-.2-.07-.39-.11-.58-.04-.18-.08-.36-.11-.53-.05-.19-.11-.38-.16-.55-.46-1.45-1.15-2.37-1.92-2.37h-18.71c-2.03,0-3.85,.92-5.06,2.37-.88,1.06-1.45,2.4-1.52,3.87,0,.12,0,.24,0,.35Z"/>
								<path class="cls-3" d="M261.01,880.1c.62,1.27,1.63,2.32,2.87,2.97h22.94s.02-.02,.03-.04c.05-.07,.09-.15,.15-.23,.08-.14,.17-.3,.25-.48l.09-.21c.09-.21,.18-.44,.25-.69,.12-.4,.24-.85,.32-1.33h-26.9Z"/>
								<path class="cls-14" d="M260.37,876.9h27.78c0-.19,0-.37-.02-.55-.02-.43-.05-.84-.11-1.24-.02-.15-.04-.29-.06-.43-.03-.2-.07-.39-.11-.58-.04-.18-.08-.36-.11-.53-.05-.19-.11-.38-.16-.55h-25.69c-.88,1.06-1.45,2.4-1.52,3.87Z"/>
								<path class="cls-18" d="M292.25,877.25c0,3.64-2.95,6.59-6.59,6.59-3.64,0-6.59-2.95-6.59-6.59,0-3.64,2.95-6.59,6.59-6.59,3.64,0,6.59,2.95,6.59,6.59Z"/>
							</g>
							<g>
								<path class="cls-20" d="M282.03,877.25c0,.15,0,.3,.02,.45,.05,.55,.2,1.06,.42,1.54,.41,.87,1.08,1.6,1.9,2.07,.69,.4,1.49,.63,2.34,.63h39.48v-9.38h-39.48c-1.62,0-3.05,.82-3.89,2.08-.5,.74-.79,1.64-.79,2.61Z"/>
								<path class="cls-4" d="M282.48,879.24c.41,.87,1.08,1.6,1.9,2.07h41.82v-2.07h-43.73Z"/>
								<path class="cls-12" d="M282.03,877.25c0,.15,0,.3,.02,.45h44.14v-3.06h-43.38c-.5,.74-.79,1.64-.79,2.61Z"/>
							</g>
						</g>
						<path class="cls-4" d="M303.25,879.24c-.22-.47-.36-.99-.42-1.54-.01-.15-.02-.3-.02-.45,0-.97,.3-1.87,.79-2.61,.84-1.26,2.27-2.08,3.89-2.08h7.54v9.38h-7.54c-.85,0-1.65-.23-2.34-.63-.82-.47-1.49-1.19-1.9-2.07Z"/>
					</g>
					<g>
						<g>
							<g>
								<path class="cls-26" d="M668.95,877.25c0,1.02,.24,1.99,.65,2.85,.62,1.27,1.63,2.32,2.87,2.97,.91,.49,1.96,.76,3.07,.76h9.35c.42,0,.82-.27,1.16-.76,0-.01,.02-.02,.03-.04,.05-.07,.09-.15,.14-.23,.08-.14,.17-.3,.25-.48l.09-.21c.09-.21,.17-.44,.25-.69,.12-.4,.24-.85,.32-1.33,.16-.86,.25-1.83,.25-2.85,0-.12,0-.24,0-.35h0c0-.19,0-.37-.02-.55-.02-.43-.05-.84-.11-1.24-.01-.14-.04-.29-.06-.43-.03-.2-.07-.4-.11-.58-.04-.18-.08-.36-.11-.53-.05-.19-.11-.38-.16-.56-.46-1.45-1.15-2.37-1.92-2.37h-9.35c-2.04,0-3.86,.92-5.06,2.37-.88,1.06-1.45,2.4-1.52,3.87,0,.12,0,.24,0,.35Z"/>
								<path class="cls-3" d="M669.6,880.1c.62,1.27,1.63,2.32,2.87,2.97h13.59s.02-.02,.03-.04c.05-.07,.09-.15,.14-.23,.08-.14,.17-.3,.25-.48l.09-.21c.09-.21,.17-.44,.25-.69,.12-.4,.24-.85,.32-1.33h-17.55Z"/>
								<path class="cls-11" d="M668.96,876.9h18.43c0-.19,0-.37-.02-.55-.02-.43-.05-.84-.11-1.24-.01-.14-.04-.29-.06-.43-.03-.2-.07-.4-.11-.58-.04-.18-.08-.36-.11-.53-.05-.19-.11-.38-.16-.56h-16.34c-.88,1.06-1.45,2.4-1.52,3.87Z"/>
								<path class="cls-18" d="M691.49,877.25c0,3.64-2.95,6.59-6.59,6.59s-6.59-2.95-6.59-6.59c0-3.64,2.95-6.59,6.59-6.59,3.64,0,6.59,2.95,6.59,6.59Z"/>
							</g>
							<g>
								<path class="cls-43" d="M681.28,877.25c0,.15,0,.3,.02,.45,.05,.55,.2,1.06,.42,1.54,.41,.87,1.08,1.6,1.9,2.07,.69,.4,1.49,.63,2.34,.63h39.48v-9.38h-39.48c-1.62,0-3.05,.82-3.89,2.08-.49,.74-.79,1.64-.79,2.61Z"/>
								<path class="cls-4" d="M681.72,879.24c.41,.87,1.08,1.6,1.9,2.07h41.83v-2.07h-43.73Z"/>
								<path class="cls-12" d="M681.28,877.25c0,.15,0,.3,.02,.45h44.14v-3.06h-43.38c-.49,.74-.79,1.64-.79,2.61Z"/>
							</g>
						</g>
						<path class="cls-4" d="M703.08,879.24c-.22-.47-.37-.99-.42-1.54-.02-.15-.02-.3-.02-.45,0-.97,.3-1.87,.79-2.61,.84-1.26,2.27-2.08,3.89-2.08h7.54v9.38h-7.54c-.85,0-1.65-.23-2.34-.63-.82-.47-1.49-1.19-1.9-2.07Z"/>
					</g>
				</g>
				<g>
					<path class="cls-9" d="M224.32,1106.32c0,.93,.01,1.85,.03,2.76h-.03v40.11c0,12.6,2.77,22.81,6.2,22.81h8.92c7.93,0,12.11-27.66,17.07-27.66h36.38c4.96,0,9.86,27.66,15.54,27.66h61.89c8.94,0,15.59-10.21,15.59-22.81v-439.08H249.86c-19.38,0-25.54,17.11-25.54,38.02v358.19Zm28.12-48.35c-9.51,0-15.16-10.27-15.16-22.81v-231.7c0-12.55,2.99-22.81,12.69-22.81h56.28c10.84,0,13.47,10.27,13.47,22.81v231.7c0,12.55-5.67,22.81-18.6,22.81h-48.67Z"/>
					<path class="cls-38" d="M216.72,1149.19c0,12.6,2.78,22.81,6.2,22.81h8.92c8.76,0,12.11-27.66,17.06-27.66h36.38c4.96,0,10.22,27.66,18.68,27.66h13.12c8.94,0,15.59-10.21,15.59-22.81v-401.06c0-21.57-12.11-38.02-34.03-38.02h-56.39c-19.38,0-25.54,17.11-25.54,38.02v401.06Zm28.12-91.22c-9.51,0-15.16-10.27-15.16-22.81v-231.7c0-12.55,2.99-22.81,12.69-22.81h56.27c10.84,0,13.47,10.27,13.47,22.81v231.7c0,12.55-5.67,22.81-18.6,22.81h-48.67Z"/>
				</g>
				<path class="cls-38" d="M689.04,1057.97c12.55,0,22.81-10.27,22.81-22.81v-231.7c0-12.55-10.27-22.81-22.81-22.81v-70.53h32.51c20.91,0,38.02,17.11,38.02,38.02v401.06c0,12.6-10.21,22.81-22.81,22.81h-47.72v-114.03Z"/>
				<g>
					<path class="cls-21" d="M340.27,1149.19c0,12.6,10.21,22.81,22.81,22.81h66.44c20.91,0,38.97-27.66,57.22-27.66h133.94c18.25,0,36.31,27.66,57.22,27.66h66.44c12.6,0,22.81-10.21,22.81-22.81v-401.06c0-20.91-17.11-38.02-38.02-38.02H378.3c-20.91,0-38.02,17.11-38.02,38.02v401.06Zm70.53-91.22c-12.55,0-22.81-10.27-22.81-22.81v-231.7c0-12.55,10.27-22.81,22.81-22.81h285.84c12.55,0,22.81,10.27,22.81,22.81v231.7c0,12.55-10.27,22.81-22.81,22.81H410.8Z"/>
					<path class="cls-10" d="M757.8,1149.19v-401.06c0-20.91-16.36-38.02-36.35-38.02h7.71c20.91,0,38.02,17.11,38.02,38.02v401.06c0,12.6-10.21,22.81-22.81,22.81h-8.38c12.05,0,21.81-10.21,21.81-22.81Z"/>
				</g>
				<g class="cls-8">
					<polygon class="cls-23" points="503.26 969.8 508.43 981.88 525.76 1022.39 563.49 1022.39 541 969.8 503.26 969.8"/>
					<polygon class="cls-7" points="427.82 1041.96 465.56 1041.96 473.93 1022.39 496.43 969.8 458.69 969.8 427.82 1041.96"/>
					<path class="cls-39" d="M465.56,1041.96h123.47l-30.87-72.16h-17.16l22.49,52.59h-72.4l17.33-40.51,5.17-12.08h-17.17l-22.5,52.59-8.37,19.57Z"/>
				</g>
				<rect class="cls-21" x="414.03" y="1062.1" width="125.36" height="69.43"/>
			</g>
		</g>
	</g>
    <script type="text/javascript">
    function toggleNight() {
        var main = document.querySelector("#main");
        if(main.classList.contains("night")) {
            main.classList.remove("night");
        } else {
            main.classList.add("night");
        }
    }
    </script>
</svg>