<?xml version="1.0" encoding="UTF-8"?><svg id="Laag_1" xmlns="http://www.w3.org/2000/svg" viewBox="0 0 879.8 188.41"><defs><style>.cls-1,.cls-2,.cls-3,.cls-4,.cls-5{fill:none;stroke:#fff;}.cls-1,.cls-2,.cls-4,.cls-5{stroke-miterlimit:10;}.cls-1,.cls-3{stroke-width:.4px;}.cls-6{fill:#fff;}.cls-7{fill:#937b6f;}.cls-2{stroke-width:.35px;}.cls-8{opacity:.54;}.cls-3{stroke-linecap:round;stroke-linejoin:round;}.cls-4{stroke-width:.17px;}.cls-5{stroke-width:.5px;}</style></defs><rect class="cls-7" x="8.59" y="8.12" width="864.63" height="172.5" rx="18.53" ry="18.53"/><g class="cls-8"><path class="cls-5" d="M62.07,20.83c-4.17-2.6-10.39-2.29-12.99,1.88-2.27,3.64-5.91,15.55-3.82,20.22l-5.88,7.51c-.41,.18-.88,.17-1.17,.54-.48,.62-.12,1.22,.49,1.7l.92,.69c.62,.48,1.26,.69,1.67,.02,.22-.36,.13-.83,.18-1.44l5.7-7.29c4.35,.89,19.62-6.36,20.13-12.07,.44-4.9-1.06-9.18-5.23-11.78Z"/><circle class="cls-1" cx="57.05" cy="22.17" r=".7"/><circle class="cls-1" cx="58.97" cy="23.3" r=".7"/><circle class="cls-1" cx="60.9" cy="24.74" r=".7"/><circle class="cls-1" cx="62.83" cy="26.02" r=".7"/><circle class="cls-1" cx="53.94" cy="22.81" r=".7"/><circle class="cls-1" cx="55.85" cy="23.95" r=".7"/><circle class="cls-1" cx="57.79" cy="25.38" r=".7"/><circle class="cls-1" cx="59.72" cy="26.66" r=".7"/><circle class="cls-1" cx="61.6" cy="28.03" r=".7"/><circle class="cls-1" cx="63.51" cy="29.16" r=".7"/><circle class="cls-1" cx="51.07" cy="23.78" r=".7"/><circle class="cls-1" cx="52.98" cy="24.91" r=".7"/><circle class="cls-1" cx="54.91" cy="26.35" r=".7"/><circle class="cls-1" cx="56.85" cy="27.63" r=".7"/><circle class="cls-1" cx="58.73" cy="28.99" r=".7"/><circle class="cls-1" cx="60.64" cy="30.13" r=".7"/><circle class="cls-1" cx="50.36" cy="25.99" r=".7"/><circle class="cls-1" cx="52.28" cy="27.12" r=".7"/><circle class="cls-1" cx="54.21" cy="28.56" r=".7"/><circle class="cls-1" cx="56.14" cy="29.84" r=".7"/><circle class="cls-1" cx="58.02" cy="31.2" r=".7"/><circle class="cls-1" cx="59.94" cy="32.34" r=".7"/><circle class="cls-1" cx="49.89" cy="28.59" r=".7"/><circle class="cls-1" cx="51.8" cy="29.72" r=".7"/><circle class="cls-1" cx="53.73" cy="31.16" r=".7"/><circle class="cls-1" cx="55.67" cy="32.44" r=".7"/><circle class="cls-1" cx="57.55" cy="33.81" r=".7"/><circle class="cls-1" cx="59.46" cy="34.94" r=".7"/><circle class="cls-1" cx="49.42" cy="31.04" r=".7"/><circle class="cls-1" cx="51.34" cy="32.17" r=".7"/><circle class="cls-1" cx="53.27" cy="33.61" r=".7"/><circle class="cls-1" cx="55.2" cy="34.89" r=".7"/><circle class="cls-1" cx="57.08" cy="36.25" r=".7"/><circle class="cls-1" cx="59" cy="37.39" r=".7"/><circle class="cls-1" cx="48.95" cy="33.7" r=".7"/><circle class="cls-1" cx="50.86" cy="34.84" r=".7"/><circle class="cls-1" cx="52.79" cy="36.27" r=".7"/><circle class="cls-1" cx="54.73" cy="37.55" r=".7"/><circle class="cls-1" cx="56.61" cy="38.92" r=".7"/><circle class="cls-1" cx="48.48" cy="36.24" r=".7"/><circle class="cls-1" cx="50.39" cy="37.37" r=".7"/><circle class="cls-1" cx="52.33" cy="38.81" r=".7"/><circle class="cls-1" cx="54.26" cy="40.09" r=".7"/><circle class="cls-1" cx="61.25" cy="36.32" r=".7"/><circle class="cls-1" cx="61.6" cy="33.61" r=".7"/><circle class="cls-1" cx="63.4" cy="34.84" r=".7"/><circle class="cls-1" cx="62.5" cy="31.39" r=".7"/><circle class="cls-1" cx="64.31" cy="32.61" r=".7"/><line class="cls-1" x1="40.92" y1="48.57" x2="41.89" y2="51.43"/><line class="cls-1" x1="41.75" y1="47.34" x2="42.72" y2="50.2"/><line class="cls-1" x1="42.62" y1="46.36" x2="43.59" y2="49.22"/><line class="cls-1" x1="43.39" y1="45.42" x2="44.36" y2="48.28"/><line class="cls-1" x1="44.16" y1="44.48" x2="45.13" y2="47.34"/><line class="cls-1" x1="45.03" y1="43.43" x2="46" y2="46.29"/><line class="cls-1" x1="40.24" y1="49.58" x2="41.29" y2="52.69"/><line class="cls-1" x1="39.28" y1="50.37" x2="40.38" y2="53.6"/><polygon class="cls-3" points="47.33 42.49 51.57 41.49 46.92 38.38 47.33 42.49"/></g><g class="cls-8"><path class="cls-1" d="M67.36,125.05c-3.09,3.83-3.53,10.03,.3,13.12,3.34,2.69,14.73,7.74,19.61,6.23l6.75,6.75c.13,.43,.06,.9,.39,1.23,.55,.55,1.2,.27,1.75-.29l.8-.83c.55-.55,.83-1.17,.22-1.66-.33-.26-.81-.23-1.4-.35l-6.54-6.54c1.41-4.21-3.95-20.24-9.55-21.44-4.81-1.03-9.24-.06-12.33,3.77Z"/><circle class="cls-1" cx="68.08" cy="130.19" r=".7"/><circle class="cls-1" cx="69.44" cy="128.43" r=".7"/><circle class="cls-1" cx="71.1" cy="126.69" r=".7"/><circle class="cls-1" cx="72.6" cy="124.92" r=".7"/><circle class="cls-1" cx="68.35" cy="133.36" r=".7"/><circle class="cls-1" cx="69.71" cy="131.6" r=".7"/><circle class="cls-1" cx="71.36" cy="129.85" r=".7"/><circle class="cls-1" cx="72.87" cy="128.09" r=".7"/><circle class="cls-1" cx="74.45" cy="126.38" r=".7"/><circle class="cls-1" cx="75.81" cy="124.62" r=".7"/><circle class="cls-1" cx="68.96" cy="136.33" r=".7"/><circle class="cls-1" cx="70.32" cy="134.56" r=".7"/><circle class="cls-1" cx="71.98" cy="132.82" r=".7"/><circle class="cls-1" cx="73.48" cy="131.06" r=".7"/><circle class="cls-1" cx="75.06" cy="129.35" r=".7"/><circle class="cls-1" cx="76.42" cy="127.59" r=".7"/><circle class="cls-1" cx="71.07" cy="137.29" r=".7"/><circle class="cls-1" cx="72.43" cy="135.53" r=".7"/><circle class="cls-1" cx="74.08" cy="133.78" r=".7"/><circle class="cls-1" cx="75.59" cy="132.02" r=".7"/><circle class="cls-1" cx="77.17" cy="130.32" r=".7"/><circle class="cls-1" cx="78.53" cy="128.55" r=".7"/><circle class="cls-1" cx="73.59" cy="138.08" r=".7"/><circle class="cls-1" cx="74.95" cy="136.31" r=".7"/><circle class="cls-1" cx="76.61" cy="134.57" r=".7"/><circle class="cls-1" cx="78.11" cy="132.81" r=".7"/><circle class="cls-1" cx="79.7" cy="131.1" r=".7"/><circle class="cls-1" cx="81.05" cy="129.34" r=".7"/><circle class="cls-1" cx="75.97" cy="138.84" r=".7"/><circle class="cls-1" cx="77.33" cy="137.07" r=".7"/><circle class="cls-1" cx="78.98" cy="135.33" r=".7"/><circle class="cls-1" cx="80.49" cy="133.56" r=".7"/><circle class="cls-1" cx="82.07" cy="131.86" r=".7"/><circle class="cls-1" cx="83.43" cy="130.1" r=".7"/><circle class="cls-1" cx="78.55" cy="139.63" r=".7"/><circle class="cls-1" cx="79.91" cy="137.87" r=".7"/><circle class="cls-1" cx="81.57" cy="136.12" r=".7"/><circle class="cls-1" cx="83.07" cy="134.36" r=".7"/><circle class="cls-1" cx="84.66" cy="132.65" r=".7"/><circle class="cls-1" cx="81.02" cy="140.4" r=".7"/><circle class="cls-1" cx="82.37" cy="138.63" r=".7"/><circle class="cls-1" cx="84.03" cy="136.89" r=".7"/><circle class="cls-1" cx="85.54" cy="135.13" r=".7"/><circle class="cls-1" cx="82.63" cy="127.73" r=".7"/><circle class="cls-1" cx="79.99" cy="127.06" r=".7"/><circle class="cls-1" cx="81.42" cy="125.41" r=".7"/><circle class="cls-1" cx="77.89" cy="125.89" r=".7"/><circle class="cls-1" cx="79.33" cy="124.25" r=".7"/><line class="cls-1" x1="92.34" y1="149.39" x2="95.3" y2="148.77"/><line class="cls-1" x1="91.23" y1="148.42" x2="94.19" y2="147.8"/><line class="cls-1" x1="90.36" y1="147.43" x2="93.31" y2="146.82"/><line class="cls-1" x1="89.52" y1="146.56" x2="92.48" y2="145.94"/><line class="cls-1" x1="88.68" y1="145.68" x2="91.64" y2="145.06"/><line class="cls-1" x1="87.74" y1="144.69" x2="90.7" y2="144.07"/><line class="cls-1" x1="93.27" y1="150.19" x2="96.48" y2="149.52"/><line class="cls-1" x1="93.94" y1="151.24" x2="97.28" y2="150.54"/><polygon class="cls-3" points="87.08 142.29 86.6 137.96 82.96 142.21 87.08 142.29"/></g><g class="cls-8"><path class="cls-1" d="M108.56,57.88c-3.09,3.83-3.53,10.03,.3,13.12,3.34,2.69,14.73,7.74,19.61,6.23l6.75,6.75c.13,.43,.06,.9,.39,1.23,.55,.55,1.2,.27,1.75-.29l.8-.83c.55-.55,.83-1.17,.22-1.66-.33-.26-.81-.23-1.4-.35l-6.54-6.54c1.41-4.21-3.95-20.24-9.55-21.44-4.81-1.03-9.24-.06-12.33,3.77Z"/><circle class="cls-1" cx="109.28" cy="63.03" r=".7"/><circle class="cls-1" cx="110.64" cy="61.26" r=".7"/><circle class="cls-1" cx="112.3" cy="59.52" r=".7"/><circle class="cls-1" cx="113.8" cy="57.75" r=".7"/><circle class="cls-1" cx="109.55" cy="66.19" r=".7"/><circle class="cls-1" cx="110.91" cy="64.43" r=".7"/><circle class="cls-1" cx="112.56" cy="62.68" r=".7"/><circle class="cls-1" cx="114.07" cy="60.92" r=".7"/><circle class="cls-1" cx="115.65" cy="59.22" r=".7"/><circle class="cls-1" cx="117.01" cy="57.45" r=".7"/><circle class="cls-1" cx="110.16" cy="69.16" r=".7"/><circle class="cls-1" cx="111.52" cy="67.4" r=".7"/><circle class="cls-1" cx="113.18" cy="65.65" r=".7"/><circle class="cls-1" cx="114.68" cy="63.89" r=".7"/><circle class="cls-1" cx="116.26" cy="62.19" r=".7"/><circle class="cls-1" cx="117.62" cy="60.42" r=".7"/><circle class="cls-1" cx="112.27" cy="70.13" r=".7"/><circle class="cls-1" cx="113.63" cy="68.36" r=".7"/><circle class="cls-1" cx="115.28" cy="66.62" r=".7"/><circle class="cls-1" cx="116.79" cy="64.85" r=".7"/><circle class="cls-1" cx="118.37" cy="63.15" r=".7"/><circle class="cls-1" cx="119.73" cy="61.39" r=".7"/><circle class="cls-1" cx="114.79" cy="70.91" r=".7"/><circle class="cls-1" cx="116.15" cy="69.15" r=".7"/><circle class="cls-1" cx="117.81" cy="67.4" r=".7"/><circle class="cls-1" cx="119.31" cy="65.64" r=".7"/><circle class="cls-1" cx="120.9" cy="63.94" r=".7"/><circle class="cls-1" cx="122.25" cy="62.17" r=".7"/><circle class="cls-1" cx="117.17" cy="71.67" r=".7"/><circle class="cls-1" cx="118.53" cy="69.91" r=".7"/><circle class="cls-1" cx="120.18" cy="68.16" r=".7"/><circle class="cls-1" cx="121.69" cy="66.4" r=".7"/><circle class="cls-1" cx="123.27" cy="64.69" r=".7"/><circle class="cls-1" cx="124.63" cy="62.93" r=".7"/><circle class="cls-1" cx="119.75" cy="72.46" r=".7"/><circle class="cls-1" cx="121.11" cy="70.7" r=".7"/><circle class="cls-1" cx="122.77" cy="68.95" r=".7"/><circle class="cls-1" cx="124.27" cy="67.19" r=".7"/><circle class="cls-1" cx="125.86" cy="65.49" r=".7"/><circle class="cls-1" cx="122.22" cy="73.23" r=".7"/><circle class="cls-1" cx="123.57" cy="71.47" r=".7"/><circle class="cls-1" cx="125.23" cy="69.72" r=".7"/><circle class="cls-1" cx="126.74" cy="67.96" r=".7"/><circle class="cls-1" cx="123.83" cy="60.56" r=".7"/><circle class="cls-1" cx="121.19" cy="59.89" r=".7"/><circle class="cls-1" cx="122.62" cy="58.25" r=".7"/><circle class="cls-1" cx="119.09" cy="58.73" r=".7"/><circle class="cls-1" cx="120.53" cy="57.08" r=".7"/><line class="cls-1" x1="133.54" y1="82.23" x2="136.5" y2="81.61"/><line class="cls-1" x1="132.43" y1="81.25" x2="135.38" y2="80.63"/><line class="cls-1" x1="131.56" y1="80.27" x2="134.51" y2="79.65"/><line class="cls-1" x1="130.72" y1="79.4" x2="133.68" y2="78.78"/><line class="cls-1" x1="129.88" y1="78.51" x2="132.84" y2="77.89"/><line class="cls-1" x1="128.94" y1="77.52" x2="131.9" y2="76.9"/><line class="cls-1" x1="134.47" y1="83.02" x2="137.68" y2="82.35"/><line class="cls-1" x1="135.14" y1="84.07" x2="138.48" y2="83.37"/><polygon class="cls-3" points="128.28 75.13 127.8 70.8 124.16 75.04 128.28 75.13"/></g><g class="cls-8"><path class="cls-5" d="M218.66,22.83c-4.91-.31-10.23,2.91-10.54,7.82-.27,4.28,2.17,16.49,6.22,19.61l-1.62,9.41c-.28,.35-.7,.57-.78,1.03-.13,.77,.47,1.13,1.24,1.27l1.13,.17c.77,.13,1.43,0,1.48-.78,.02-.42-.28-.79-.52-1.35l1.57-9.12c4.25-1.27,14.26-14.9,12-20.17-1.93-4.52-5.28-7.58-10.19-7.89Z"/><circle class="cls-1" cx="214.88" cy="26.39" r=".7"/><circle class="cls-1" cx="217.1" cy="26.48" r=".7"/><circle class="cls-1" cx="219.48" cy="26.83" r=".7"/><circle class="cls-1" cx="221.79" cy="27.04" r=".7"/><circle class="cls-1" cx="212.44" cy="28.43" r=".7"/><circle class="cls-1" cx="214.67" cy="28.52" r=".7"/><circle class="cls-1" cx="217.05" cy="28.87" r=".7"/><circle class="cls-1" cx="219.36" cy="29.08" r=".7"/><circle class="cls-1" cx="221.66" cy="29.39" r=".7"/><circle class="cls-1" cx="223.89" cy="29.48" r=".7"/><circle class="cls-1" cx="210.37" cy="30.64" r=".7"/><circle class="cls-1" cx="212.6" cy="30.73" r=".7"/><circle class="cls-1" cx="214.98" cy="31.08" r=".7"/><circle class="cls-1" cx="217.29" cy="31.29" r=".7"/><circle class="cls-1" cx="219.59" cy="31.6" r=".7"/><circle class="cls-1" cx="221.81" cy="31.69" r=".7"/><circle class="cls-1" cx="210.8" cy="32.92" r=".7"/><circle class="cls-1" cx="213.02" cy="33.01" r=".7"/><circle class="cls-1" cx="215.41" cy="33.36" r=".7"/><circle class="cls-1" cx="217.72" cy="33.57" r=".7"/><circle class="cls-1" cx="220.02" cy="33.88" r=".7"/><circle class="cls-1" cx="222.24" cy="33.97" r=".7"/><circle class="cls-1" cx="211.62" cy="35.44" r=".7"/><circle class="cls-1" cx="213.84" cy="35.53" r=".7"/><circle class="cls-1" cx="216.22" cy="35.87" r=".7"/><circle class="cls-1" cx="218.53" cy="36.09" r=".7"/><circle class="cls-1" cx="220.83" cy="36.4" r=".7"/><circle class="cls-1" cx="223.06" cy="36.49" r=".7"/><circle class="cls-1" cx="212.37" cy="37.81" r=".7"/><circle class="cls-1" cx="214.59" cy="37.9" r=".7"/><circle class="cls-1" cx="216.97" cy="38.25" r=".7"/><circle class="cls-1" cx="219.28" cy="38.46" r=".7"/><circle class="cls-1" cx="221.58" cy="38.77" r=".7"/><circle class="cls-1" cx="223.81" cy="38.86" r=".7"/><circle class="cls-1" cx="213.21" cy="40.38" r=".7"/><circle class="cls-1" cx="215.43" cy="40.47" r=".7"/><circle class="cls-1" cx="217.81" cy="40.82" r=".7"/><circle class="cls-1" cx="220.12" cy="41.03" r=".7"/><circle class="cls-1" cx="222.43" cy="41.34" r=".7"/><circle class="cls-1" cx="214" cy="42.84" r=".7"/><circle class="cls-1" cx="216.23" cy="42.93" r=".7"/><circle class="cls-1" cx="218.61" cy="43.28" r=".7"/><circle class="cls-1" cx="220.92" cy="43.49" r=".7"/><circle class="cls-1" cx="225.29" cy="36.85" r=".7"/><circle class="cls-1" cx="224.31" cy="34.3" r=".7"/><circle class="cls-1" cx="226.48" cy="34.53" r=".7"/><circle class="cls-1" cx="224.05" cy="31.92" r=".7"/><circle class="cls-1" cx="226.22" cy="32.14" r=".7"/><line class="cls-1" x1="213.19" y1="57.28" x2="215.4" y2="59.34"/><line class="cls-1" x1="213.34" y1="55.8" x2="215.55" y2="57.86"/><line class="cls-1" x1="213.64" y1="54.53" x2="215.85" y2="56.58"/><line class="cls-1" x1="213.87" y1="53.34" x2="216.08" y2="55.4"/><line class="cls-1" x1="214.11" y1="52.14" x2="216.32" y2="54.2"/><line class="cls-1" x1="214.38" y1="50.8" x2="216.59" y2="52.86"/><line class="cls-1" x1="213.07" y1="58.5" x2="215.47" y2="60.73"/><line class="cls-1" x1="212.6" y1="59.64" x2="215.1" y2="61.97"/><polygon class="cls-3" points="215.95 48.88 219.21 45.99 213.64 45.46 215.95 48.88"/></g><g class="cls-8"><path class="cls-5" d="M185.47,132.17c-3.09,3.83-3.53,10.03,.3,13.12,3.34,2.69,14.73,7.74,19.61,6.23l6.75,6.75c.13,.43,.06,.9,.39,1.23,.55,.55,1.2,.27,1.75-.29l.8-.83c.55-.55,.83-1.17,.22-1.66-.33-.26-.81-.23-1.4-.35l-6.54-6.54c1.41-4.21-3.95-20.24-9.55-21.44-4.81-1.03-9.24-.06-12.33,3.77Z"/><circle class="cls-1" cx="186.19" cy="137.32" r=".7"/><circle class="cls-1" cx="187.55" cy="135.55" r=".7"/><circle class="cls-1" cx="189.21" cy="133.81" r=".7"/><circle class="cls-1" cx="190.71" cy="132.04" r=".7"/><circle class="cls-1" cx="186.46" cy="140.48" r=".7"/><circle class="cls-1" cx="187.81" cy="138.72" r=".7"/><circle class="cls-1" cx="189.47" cy="136.97" r=".7"/><circle class="cls-1" cx="190.98" cy="135.21" r=".7"/><circle class="cls-1" cx="192.56" cy="133.51" r=".7"/><circle class="cls-1" cx="193.91" cy="131.74" r=".7"/><circle class="cls-1" cx="187.07" cy="143.45" r=".7"/><circle class="cls-1" cx="188.42" cy="141.69" r=".7"/><circle class="cls-1" cx="190.08" cy="139.94" r=".7"/><circle class="cls-1" cx="191.59" cy="138.18" r=".7"/><circle class="cls-1" cx="193.17" cy="136.47" r=".7"/><circle class="cls-1" cx="194.53" cy="134.71" r=".7"/><circle class="cls-1" cx="189.18" cy="144.41" r=".7"/><circle class="cls-1" cx="190.53" cy="142.65" r=".7"/><circle class="cls-1" cx="192.19" cy="140.91" r=".7"/><circle class="cls-1" cx="193.7" cy="139.14" r=".7"/><circle class="cls-1" cx="195.28" cy="137.44" r=".7"/><circle class="cls-1" cx="196.63" cy="135.68" r=".7"/><circle class="cls-1" cx="191.7" cy="145.2" r=".7"/><circle class="cls-1" cx="193.06" cy="143.44" r=".7"/><circle class="cls-1" cx="194.72" cy="141.69" r=".7"/><circle class="cls-1" cx="196.22" cy="139.93" r=".7"/><circle class="cls-1" cx="197.8" cy="138.22" r=".7"/><circle class="cls-1" cx="199.16" cy="136.46" r=".7"/><circle class="cls-1" cx="194.08" cy="145.96" r=".7"/><circle class="cls-1" cx="195.43" cy="144.2" r=".7"/><circle class="cls-1" cx="197.09" cy="142.45" r=".7"/><circle class="cls-1" cx="198.6" cy="140.69" r=".7"/><circle class="cls-1" cx="200.18" cy="138.98" r=".7"/><circle class="cls-1" cx="201.53" cy="137.22" r=".7"/><circle class="cls-1" cx="196.66" cy="146.75" r=".7"/><circle class="cls-1" cx="198.02" cy="144.99" r=".7"/><circle class="cls-1" cx="199.68" cy="143.24" r=".7"/><circle class="cls-1" cx="201.18" cy="141.48" r=".7"/><circle class="cls-1" cx="202.76" cy="139.78" r=".7"/><circle class="cls-1" cx="199.12" cy="147.52" r=".7"/><circle class="cls-1" cx="200.48" cy="145.76" r=".7"/><circle class="cls-1" cx="202.14" cy="144.01" r=".7"/><circle class="cls-1" cx="203.64" cy="142.25" r=".7"/><circle class="cls-1" cx="200.74" cy="134.85" r=".7"/><circle class="cls-1" cx="198.1" cy="134.18" r=".7"/><circle class="cls-1" cx="199.53" cy="132.53" r=".7"/><circle class="cls-1" cx="196" cy="133.01" r=".7"/><circle class="cls-1" cx="197.43" cy="131.37" r=".7"/><line class="cls-1" x1="210.45" y1="156.52" x2="213.41" y2="155.9"/><line class="cls-1" x1="209.34" y1="155.54" x2="212.29" y2="154.92"/><line class="cls-1" x1="208.46" y1="154.56" x2="211.42" y2="153.94"/><line class="cls-1" x1="207.63" y1="153.69" x2="210.58" y2="153.07"/><line class="cls-1" x1="206.79" y1="152.8" x2="209.74" y2="152.18"/><line class="cls-1" x1="205.85" y1="151.81" x2="208.81" y2="151.19"/><line class="cls-1" x1="211.38" y1="157.31" x2="214.59" y2="156.64"/><line class="cls-1" x1="212.05" y1="158.36" x2="215.38" y2="157.66"/><polygon class="cls-3" points="205.19 149.41 204.71 145.08 201.06 149.33 205.19 149.41"/></g><g class="cls-8"><path class="cls-5" d="M297.63,81.37c-4.45-2.1-10.58-1.08-12.68,3.37-1.83,3.87-4.07,16.13-1.46,20.53l-4.98,8.14c-.39,.23-.86,.27-1.1,.67-.41,.67,.02,1.23,.69,1.63l.99,.58c.67,.41,1.33,.54,1.66-.17,.18-.38,.04-.84,.01-1.45l4.83-7.89c4.42,.39,18.75-8.58,18.61-14.31-.13-4.92-2.11-9-6.56-11.1Z"/><circle class="cls-1" cx="292.8" cy="83.28" r=".7"/><circle class="cls-1" cx="294.83" cy="84.19" r=".7"/><circle class="cls-1" cx="296.92" cy="85.39" r=".7"/><circle class="cls-1" cx="298.99" cy="86.44" r=".7"/><circle class="cls-1" cx="289.79" cy="84.28" r=".7"/><circle class="cls-1" cx="291.82" cy="85.19" r=".7"/><circle class="cls-1" cx="293.9" cy="86.39" r=".7"/><circle class="cls-1" cx="295.97" cy="87.44" r=".7"/><circle class="cls-1" cx="298" cy="88.58" r=".7"/><circle class="cls-1" cx="300.03" cy="89.49" r=".7"/><circle class="cls-1" cx="287.04" cy="85.57" r=".7"/><circle class="cls-1" cx="289.08" cy="86.48" r=".7"/><circle class="cls-1" cx="291.16" cy="87.68" r=".7"/><circle class="cls-1" cx="293.23" cy="88.73" r=".7"/><circle class="cls-1" cx="295.25" cy="89.87" r=".7"/><circle class="cls-1" cx="297.29" cy="90.78" r=".7"/><circle class="cls-1" cx="286.6" cy="87.85" r=".7"/><circle class="cls-1" cx="288.63" cy="88.76" r=".7"/><circle class="cls-1" cx="290.72" cy="89.96" r=".7"/><circle class="cls-1" cx="292.78" cy="91.01" r=".7"/><circle class="cls-1" cx="294.81" cy="92.15" r=".7"/><circle class="cls-1" cx="296.84" cy="93.05" r=".7"/><circle class="cls-1" cx="286.43" cy="90.49" r=".7"/><circle class="cls-1" cx="288.46" cy="91.4" r=".7"/><circle class="cls-1" cx="290.54" cy="92.6" r=".7"/><circle class="cls-1" cx="292.61" cy="93.65" r=".7"/><circle class="cls-1" cx="294.64" cy="94.79" r=".7"/><circle class="cls-1" cx="296.67" cy="95.69" r=".7"/><circle class="cls-1" cx="286.25" cy="92.98" r=".7"/><circle class="cls-1" cx="288.28" cy="93.88" r=".7"/><circle class="cls-1" cx="290.36" cy="95.08" r=".7"/><circle class="cls-1" cx="292.43" cy="96.13" r=".7"/><circle class="cls-1" cx="294.46" cy="97.27" r=".7"/><circle class="cls-1" cx="296.49" cy="98.18" r=".7"/><circle class="cls-1" cx="286.08" cy="95.67" r=".7"/><circle class="cls-1" cx="288.11" cy="96.58" r=".7"/><circle class="cls-1" cx="290.2" cy="97.78" r=".7"/><circle class="cls-1" cx="292.27" cy="98.83" r=".7"/><circle class="cls-1" cx="294.29" cy="99.97" r=".7"/><circle class="cls-1" cx="285.91" cy="98.25" r=".7"/><circle class="cls-1" cx="287.94" cy="99.15" r=".7"/><circle class="cls-1" cx="290.03" cy="100.36" r=".7"/><circle class="cls-1" cx="292.1" cy="101.41" r=".7"/><circle class="cls-1" cx="298.61" cy="96.85" r=".7"/><circle class="cls-1" cx="298.64" cy="94.12" r=".7"/><circle class="cls-1" cx="300.57" cy="95.13" r=".7"/><circle class="cls-1" cx="299.28" cy="91.81" r=".7"/><circle class="cls-1" cx="301.21" cy="92.82" r=".7"/><line class="cls-1" x1="279.82" y1="111.37" x2="281.11" y2="114.1"/><line class="cls-1" x1="280.51" y1="110.05" x2="281.8" y2="112.78"/><line class="cls-1" x1="281.26" y1="108.98" x2="282.55" y2="111.71"/><line class="cls-1" x1="281.91" y1="107.96" x2="283.2" y2="110.69"/><line class="cls-1" x1="282.57" y1="106.94" x2="283.87" y2="109.66"/><line class="cls-1" x1="283.32" y1="105.79" x2="284.61" y2="108.52"/><line class="cls-1" x1="279.26" y1="112.46" x2="280.67" y2="115.42"/><line class="cls-1" x1="278.4" y1="113.35" x2="279.86" y2="116.43"/><polygon class="cls-3" points="285.49 104.59 289.59 103.11 284.61 100.56 285.49 104.59"/></g><g class="cls-8"><path class="cls-5" d="M339.62,162.38c-3.09,3.83-3.53,10.03,.3,13.12,3.34,2.69,14.73,7.74,19.61,6.23l6.75,6.75c.13,.43,.06,.9,.39,1.23,.55,.55,1.2,.27,1.75-.29l.8-.83c.55-.55,.83-1.17,.22-1.66-.33-.26-.81-.23-1.4-.35l-6.54-6.54c1.41-4.21-3.95-20.24-9.55-21.44-4.81-1.03-9.24-.06-12.33,3.77Z"/><circle class="cls-1" cx="340.35" cy="167.53" r=".7"/><circle class="cls-1" cx="341.7" cy="165.76" r=".7"/><circle class="cls-1" cx="343.36" cy="164.02" r=".7"/><circle class="cls-1" cx="344.87" cy="162.25" r=".7"/><circle class="cls-1" cx="340.61" cy="170.69" r=".7"/><circle class="cls-1" cx="341.97" cy="168.93" r=".7"/><circle class="cls-1" cx="343.63" cy="167.19" r=".7"/><circle class="cls-1" cx="345.13" cy="165.42" r=".7"/><circle class="cls-1" cx="346.71" cy="163.72" r=".7"/><circle class="cls-1" cx="348.07" cy="161.95" r=".7"/><circle class="cls-1" cx="341.22" cy="173.66" r=".7"/><circle class="cls-1" cx="342.58" cy="171.9" r=".7"/><circle class="cls-1" cx="344.24" cy="170.15" r=".7"/><circle class="cls-1" cx="345.74" cy="168.39" r=".7"/><circle class="cls-1" cx="347.32" cy="166.69" r=".7"/><circle class="cls-1" cx="348.68" cy="164.92" r=".7"/><circle class="cls-1" cx="343.33" cy="174.63" r=".7"/><circle class="cls-1" cx="344.69" cy="172.86" r=".7"/><circle class="cls-1" cx="346.35" cy="171.12" r=".7"/><circle class="cls-1" cx="347.85" cy="169.35" r=".7"/><circle class="cls-1" cx="349.43" cy="167.65" r=".7"/><circle class="cls-1" cx="350.79" cy="165.89" r=".7"/><circle class="cls-1" cx="345.86" cy="175.41" r=".7"/><circle class="cls-1" cx="347.21" cy="173.65" r=".7"/><circle class="cls-1" cx="348.87" cy="171.9" r=".7"/><circle class="cls-1" cx="350.38" cy="170.14" r=".7"/><circle class="cls-1" cx="351.96" cy="168.44" r=".7"/><circle class="cls-1" cx="353.32" cy="166.67" r=".7"/><circle class="cls-1" cx="348.23" cy="176.17" r=".7"/><circle class="cls-1" cx="349.59" cy="174.41" r=".7"/><circle class="cls-1" cx="351.25" cy="172.66" r=".7"/><circle class="cls-1" cx="352.75" cy="170.9" r=".7"/><circle class="cls-1" cx="354.33" cy="169.19" r=".7"/><circle class="cls-1" cx="355.69" cy="167.43" r=".7"/><circle class="cls-1" cx="350.82" cy="176.96" r=".7"/><circle class="cls-1" cx="352.17" cy="175.2" r=".7"/><circle class="cls-1" cx="353.83" cy="173.46" r=".7"/><circle class="cls-1" cx="355.34" cy="171.69" r=".7"/><circle class="cls-1" cx="356.92" cy="169.99" r=".7"/><circle class="cls-1" cx="353.28" cy="177.73" r=".7"/><circle class="cls-1" cx="354.64" cy="175.97" r=".7"/><circle class="cls-1" cx="356.29" cy="174.22" r=".7"/><circle class="cls-1" cx="357.8" cy="172.46" r=".7"/><circle class="cls-1" cx="354.9" cy="165.06" r=".7"/><circle class="cls-1" cx="352.25" cy="164.39" r=".7"/><circle class="cls-1" cx="353.69" cy="162.75" r=".7"/><circle class="cls-1" cx="350.15" cy="163.23" r=".7"/><circle class="cls-1" cx="351.59" cy="161.58" r=".7"/><line class="cls-1" x1="364.61" y1="186.73" x2="367.56" y2="186.11"/><line class="cls-1" x1="363.49" y1="185.75" x2="366.45" y2="185.13"/><line class="cls-1" x1="362.62" y1="184.77" x2="365.58" y2="184.15"/><line class="cls-1" x1="361.78" y1="183.9" x2="364.74" y2="183.28"/><line class="cls-1" x1="360.94" y1="183.01" x2="363.9" y2="182.4"/><line class="cls-1" x1="360" y1="182.02" x2="362.96" y2="181.4"/><line class="cls-1" x1="365.53" y1="187.52" x2="368.74" y2="186.85"/><line class="cls-1" x1="366.2" y1="188.57" x2="369.54" y2="187.87"/><polygon class="cls-3" points="359.34 179.63 358.87 175.3 355.22 179.54 359.34 179.63"/></g><g class="cls-8"><path class="cls-5" d="M357.68,29.16c3.76,3.16,9.96,3.73,13.12-.03,2.76-3.28,8.04-14.56,6.64-19.48l6.89-6.61c.43-.12,.9-.04,1.24-.37,.57-.54,.29-1.19-.25-1.76l-.81-.81c-.54-.57-1.15-.86-1.65-.25-.27,.32-.25,.8-.38,1.4l-6.68,6.41c-4.18-1.5-20.32,3.52-21.63,9.1-1.13,4.79-.25,9.24,3.51,12.4Z"/><circle class="cls-1" cx="362.84" cy="28.54" r=".7"/><circle class="cls-1" cx="361.1" cy="27.15" r=".7"/><circle class="cls-1" cx="359.39" cy="25.45" r=".7"/><circle class="cls-1" cx="357.66" cy="23.91" r=".7"/><circle class="cls-1" cx="366.01" cy="28.34" r=".7"/><circle class="cls-1" cx="364.27" cy="26.95" r=".7"/><circle class="cls-1" cx="362.57" cy="25.26" r=".7"/><circle class="cls-1" cx="360.83" cy="23.71" r=".7"/><circle class="cls-1" cx="359.16" cy="22.1" r=".7"/><circle class="cls-1" cx="357.43" cy="20.7" r=".7"/><circle class="cls-1" cx="368.99" cy="27.79" r=".7"/><circle class="cls-1" cx="367.26" cy="26.4" r=".7"/><circle class="cls-1" cx="365.55" cy="24.71" r=".7"/><circle class="cls-1" cx="363.81" cy="23.16" r=".7"/><circle class="cls-1" cx="362.14" cy="21.55" r=".7"/><circle class="cls-1" cx="360.41" cy="20.15" r=".7"/><circle class="cls-1" cx="370" cy="25.71" r=".7"/><circle class="cls-1" cx="368.26" cy="24.31" r=".7"/><circle class="cls-1" cx="366.55" cy="22.62" r=".7"/><circle class="cls-1" cx="364.82" cy="21.08" r=".7"/><circle class="cls-1" cx="363.15" cy="19.46" r=".7"/><circle class="cls-1" cx="361.42" cy="18.07" r=".7"/><circle class="cls-1" cx="370.84" cy="23.2" r=".7"/><circle class="cls-1" cx="369.1" cy="21.8" r=".7"/><circle class="cls-1" cx="367.39" cy="20.11" r=".7"/><circle class="cls-1" cx="365.66" cy="18.57" r=".7"/><circle class="cls-1" cx="363.99" cy="16.95" r=".7"/><circle class="cls-1" cx="362.26" cy="15.56" r=".7"/><circle class="cls-1" cx="371.64" cy="20.84" r=".7"/><circle class="cls-1" cx="369.91" cy="19.44" r=".7"/><circle class="cls-1" cx="368.2" cy="17.75" r=".7"/><circle class="cls-1" cx="366.47" cy="16.21" r=".7"/><circle class="cls-1" cx="364.8" cy="14.59" r=".7"/><circle class="cls-1" cx="363.06" cy="13.2" r=".7"/><circle class="cls-1" cx="372.49" cy="18.27" r=".7"/><circle class="cls-1" cx="370.76" cy="16.88" r=".7"/><circle class="cls-1" cx="369.05" cy="15.18" r=".7"/><circle class="cls-1" cx="367.31" cy="13.64" r=".7"/><circle class="cls-1" cx="365.64" cy="12.02" r=".7"/><circle class="cls-1" cx="373.31" cy="15.82" r=".7"/><circle class="cls-1" cx="371.58" cy="14.43" r=".7"/><circle class="cls-1" cx="369.87" cy="12.74" r=".7"/><circle class="cls-1" cx="368.13" cy="11.19" r=".7"/><circle class="cls-1" cx="360.68" cy="13.94" r=".7"/><circle class="cls-1" cx="359.95" cy="16.57" r=".7"/><circle class="cls-1" cx="358.34" cy="15.1" r=".7"/><circle class="cls-1" cx="358.74" cy="18.65" r=".7"/><circle class="cls-1" cx="357.13" cy="17.18" r=".7"/><line class="cls-1" x1="382.54" y1="4.69" x2="381.98" y2="1.72"/><line class="cls-1" x1="381.54" y1="5.78" x2="380.99" y2="2.81"/><line class="cls-1" x1="380.54" y1="6.63" x2="379.98" y2="3.66"/><line class="cls-1" x1="379.65" y1="7.45" x2="379.1" y2="4.48"/><line class="cls-1" x1="378.75" y1="8.27" x2="378.2" y2="5.3"/><line class="cls-1" x1="377.74" y1="9.19" x2="377.18" y2="6.22"/><line class="cls-1" x1="383.36" y1="3.78" x2="382.75" y2=".55"/><line class="cls-4" x1="384.42" y1="3.13" x2="383.79" y2="-.22"/><polygon class="cls-3" points="375.33 9.8 370.99 10.19 375.16 13.92 375.33 9.8"/></g><g class="cls-8"><path class="cls-5" d="M403.08,74.11c-4.69,1.47-8.51,6.38-7.04,11.08,1.28,4.09,7.94,14.62,12.84,16.08l1.86,9.36c-.13,.43-.45,.78-.36,1.24,.15,.77,.85,.89,1.61,.74l1.12-.24c.77-.15,1.34-.51,1.1-1.25-.13-.4-.54-.64-.97-1.07l-1.81-9.07c3.51-2.71,7.97-19.02,3.97-23.13-3.43-3.53-7.65-5.18-12.34-3.71Z"/><circle class="cls-1" cx="400.83" cy="78.79" r=".7"/><circle class="cls-1" cx="402.93" cy="78.08" r=".7"/><circle class="cls-1" cx="405.28" cy="77.55" r=".7"/><circle class="cls-1" cx="407.51" cy="76.92" r=".7"/><circle class="cls-1" cx="399.29" cy="81.57" r=".7"/><circle class="cls-1" cx="401.39" cy="80.86" r=".7"/><circle class="cls-1" cx="403.74" cy="80.33" r=".7"/><circle class="cls-1" cx="405.97" cy="79.7" r=".7"/><circle class="cls-1" cx="408.23" cy="79.16" r=".7"/><circle class="cls-1" cx="410.34" cy="78.45" r=".7"/><circle class="cls-1" cx="398.14" cy="84.38" r=".7"/><circle class="cls-1" cx="400.25" cy="83.67" r=".7"/><circle class="cls-1" cx="402.6" cy="83.14" r=".7"/><circle class="cls-1" cx="404.83" cy="82.51" r=".7"/><circle class="cls-1" cx="407.09" cy="81.97" r=".7"/><circle class="cls-1" cx="409.2" cy="81.26" r=".7"/><circle class="cls-1" cx="399.36" cy="86.35" r=".7"/><circle class="cls-1" cx="401.47" cy="85.64" r=".7"/><circle class="cls-1" cx="403.82" cy="85.11" r=".7"/><circle class="cls-1" cx="406.05" cy="84.48" r=".7"/><circle class="cls-1" cx="408.31" cy="83.94" r=".7"/><circle class="cls-1" cx="410.42" cy="83.23" r=".7"/><circle class="cls-1" cx="401.02" cy="88.41" r=".7"/><circle class="cls-1" cx="403.13" cy="87.7" r=".7"/><circle class="cls-1" cx="405.48" cy="87.17" r=".7"/><circle class="cls-1" cx="407.71" cy="86.54" r=".7"/><circle class="cls-1" cx="409.97" cy="86" r=".7"/><circle class="cls-1" cx="412.08" cy="85.29" r=".7"/><circle class="cls-1" cx="402.58" cy="90.36" r=".7"/><circle class="cls-1" cx="404.69" cy="89.65" r=".7"/><circle class="cls-1" cx="407.03" cy="89.12" r=".7"/><circle class="cls-1" cx="409.27" cy="88.49" r=".7"/><circle class="cls-1" cx="411.53" cy="87.95" r=".7"/><circle class="cls-1" cx="413.63" cy="87.24" r=".7"/><circle class="cls-1" cx="404.29" cy="92.45" r=".7"/><circle class="cls-1" cx="406.39" cy="91.74" r=".7"/><circle class="cls-1" cx="408.74" cy="91.21" r=".7"/><circle class="cls-1" cx="410.97" cy="90.58" r=".7"/><circle class="cls-1" cx="413.23" cy="90.05" r=".7"/><circle class="cls-1" cx="405.91" cy="94.46" r=".7"/><circle class="cls-1" cx="408.01" cy="93.75" r=".7"/><circle class="cls-1" cx="410.36" cy="93.22" r=".7"/><circle class="cls-1" cx="412.59" cy="92.59" r=".7"/><circle class="cls-1" cx="414.29" cy="84.83" r=".7"/><circle class="cls-1" cx="412.47" cy="82.8" r=".7"/><circle class="cls-1" cx="414.57" cy="82.23" r=".7"/><circle class="cls-1" cx="411.37" cy="80.67" r=".7"/><circle class="cls-1" cx="413.48" cy="80.1" r=".7"/><line class="cls-1" x1="410.32" y1="108.23" x2="413.12" y2="109.36"/><line class="cls-1" x1="409.94" y1="106.8" x2="412.74" y2="107.93"/><line class="cls-1" x1="409.76" y1="105.5" x2="412.56" y2="106.63"/><line class="cls-1" x1="409.55" y1="104.31" x2="412.35" y2="105.44"/><line class="cls-1" x1="409.34" y1="103.11" x2="412.14" y2="104.24"/><line class="cls-1" x1="409.11" y1="101.76" x2="411.91" y2="102.89"/><line class="cls-1" x1="410.65" y1="109.41" x2="413.69" y2="110.64"/><line class="cls-1" x1="410.63" y1="110.65" x2="413.79" y2="111.93"/><polygon class="cls-3" points="409.89 99.41 411.9 95.54 406.51 97.04 409.89 99.41"/></g><g class="cls-8"><path class="cls-5" d="M484.87,27.06c-4.9-.39-10.28,2.74-10.67,7.64-.34,4.27,1.9,16.53,5.9,19.71l-1.77,9.38c-.28,.35-.71,.56-.79,1.02-.15,.77,.45,1.14,1.22,1.29l1.13,.19c.77,.15,1.43,.03,1.49-.75,.03-.42-.26-.8-.5-1.36l1.72-9.09c4.27-1.2,14.5-14.67,12.33-19.97-1.86-4.55-5.16-7.67-10.06-8.06Z"/><circle class="cls-1" cx="481.03" cy="30.55" r=".7"/><circle class="cls-1" cx="483.25" cy="30.68" r=".7"/><circle class="cls-1" cx="485.63" cy="31.07" r=".7"/><circle class="cls-1" cx="487.93" cy="31.32" r=".7"/><circle class="cls-1" cx="478.56" cy="32.56" r=".7"/><circle class="cls-1" cx="480.78" cy="32.68" r=".7"/><circle class="cls-1" cx="483.16" cy="33.07" r=".7"/><circle class="cls-1" cx="485.46" cy="33.32" r=".7"/><circle class="cls-1" cx="487.76" cy="33.67" r=".7"/><circle class="cls-1" cx="489.98" cy="33.79" r=".7"/><circle class="cls-1" cx="476.45" cy="34.73" r=".7"/><circle class="cls-1" cx="478.68" cy="34.86" r=".7"/><circle class="cls-1" cx="481.05" cy="35.25" r=".7"/><circle class="cls-1" cx="483.36" cy="35.5" r=".7"/><circle class="cls-1" cx="485.65" cy="35.84" r=".7"/><circle class="cls-1" cx="487.88" cy="35.97" r=".7"/><circle class="cls-1" cx="476.84" cy="37.02" r=".7"/><circle class="cls-1" cx="479.07" cy="37.15" r=".7"/><circle class="cls-1" cx="481.44" cy="37.53" r=".7"/><circle class="cls-1" cx="483.75" cy="37.78" r=".7"/><circle class="cls-1" cx="486.05" cy="38.13" r=".7"/><circle class="cls-1" cx="488.27" cy="38.26" r=".7"/><circle class="cls-1" cx="477.62" cy="39.55" r=".7"/><circle class="cls-1" cx="479.84" cy="39.68" r=".7"/><circle class="cls-1" cx="482.22" cy="40.06" r=".7"/><circle class="cls-1" cx="484.52" cy="40.31" r=".7"/><circle class="cls-1" cx="486.82" cy="40.66" r=".7"/><circle class="cls-1" cx="489.04" cy="40.79" r=".7"/><circle class="cls-1" cx="478.33" cy="41.94" r=".7"/><circle class="cls-1" cx="480.55" cy="42.07" r=".7"/><circle class="cls-1" cx="482.93" cy="42.45" r=".7"/><circle class="cls-1" cx="485.23" cy="42.7" r=".7"/><circle class="cls-1" cx="487.53" cy="43.05" r=".7"/><circle class="cls-1" cx="489.75" cy="43.18" r=".7"/><circle class="cls-1" cx="479.13" cy="44.52" r=".7"/><circle class="cls-1" cx="481.35" cy="44.65" r=".7"/><circle class="cls-1" cx="483.73" cy="45.03" r=".7"/><circle class="cls-1" cx="486.04" cy="45.28" r=".7"/><circle class="cls-1" cx="488.33" cy="45.63" r=".7"/><circle class="cls-1" cx="479.88" cy="46.99" r=".7"/><circle class="cls-1" cx="482.11" cy="47.12" r=".7"/><circle class="cls-1" cx="484.48" cy="47.5" r=".7"/><circle class="cls-1" cx="486.79" cy="47.75" r=".7"/><circle class="cls-1" cx="491.26" cy="41.18" r=".7"/><circle class="cls-1" cx="490.33" cy="38.62" r=".7"/><circle class="cls-1" cx="492.49" cy="38.88" r=".7"/><circle class="cls-1" cx="490.11" cy="36.23" r=".7"/><circle class="cls-1" cx="492.27" cy="36.49" r=".7"/><line class="cls-1" x1="478.83" y1="61.41" x2="481.01" y2="63.51"/><line class="cls-1" x1="479.01" y1="59.94" x2="481.19" y2="62.04"/><line class="cls-1" x1="479.33" y1="58.67" x2="481.51" y2="60.76"/><line class="cls-1" x1="479.58" y1="57.49" x2="481.76" y2="59.58"/><line class="cls-1" x1="479.84" y1="56.3" x2="482.01" y2="58.39"/><line class="cls-1" x1="480.13" y1="54.96" x2="482.31" y2="57.05"/><line class="cls-1" x1="478.7" y1="62.63" x2="481.06" y2="64.9"/><line class="cls-1" x1="478.21" y1="63.77" x2="480.67" y2="66.13"/><polygon class="cls-3" points="481.74 53.07 485.04 50.23 479.48 49.61 481.74 53.07"/></g><g class="cls-8"><path class="cls-5" d="M479.1,135.63c-2.12,4.44-1.12,10.58,3.32,12.7,3.87,1.85,16.11,4.14,20.52,1.55l8.12,5.01c.22,.39,.27,.86,.67,1.11,.67,.41,1.23-.01,1.64-.68l.58-.99c.41-.67,.54-1.33-.17-1.66-.38-.18-.84-.04-1.45-.02l-7.87-4.86c.41-4.42-8.5-18.79-14.23-18.66-4.92,.11-9,2.07-11.13,6.51Z"/><circle class="cls-1" cx="480.99" cy="140.47" r=".7"/><circle class="cls-1" cx="481.91" cy="138.44" r=".7"/><circle class="cls-1" cx="483.12" cy="136.36" r=".7"/><circle class="cls-1" cx="484.18" cy="134.29" r=".7"/><circle class="cls-1" cx="481.98" cy="143.49" r=".7"/><circle class="cls-1" cx="482.89" cy="141.46" r=".7"/><circle class="cls-1" cx="484.11" cy="139.38" r=".7"/><circle class="cls-1" cx="485.16" cy="137.31" r=".7"/><circle class="cls-1" cx="486.31" cy="135.29" r=".7"/><circle class="cls-1" cx="487.23" cy="133.26" r=".7"/><circle class="cls-1" cx="483.26" cy="146.23" r=".7"/><circle class="cls-1" cx="484.17" cy="144.21" r=".7"/><circle class="cls-1" cx="485.38" cy="142.13" r=".7"/><circle class="cls-1" cx="486.44" cy="140.06" r=".7"/><circle class="cls-1" cx="487.59" cy="138.04" r=".7"/><circle class="cls-1" cx="488.5" cy="136.01" r=".7"/><circle class="cls-1" cx="485.53" cy="146.69" r=".7"/><circle class="cls-1" cx="486.45" cy="144.66" r=".7"/><circle class="cls-1" cx="487.66" cy="142.58" r=".7"/><circle class="cls-1" cx="488.72" cy="140.52" r=".7"/><circle class="cls-1" cx="489.86" cy="138.49" r=".7"/><circle class="cls-1" cx="490.78" cy="136.47" r=".7"/><circle class="cls-1" cx="488.17" cy="146.87" r=".7"/><circle class="cls-1" cx="489.09" cy="144.84" r=".7"/><circle class="cls-1" cx="490.3" cy="142.76" r=".7"/><circle class="cls-1" cx="491.36" cy="140.7" r=".7"/><circle class="cls-1" cx="492.5" cy="138.68" r=".7"/><circle class="cls-1" cx="493.42" cy="136.65" r=".7"/><circle class="cls-1" cx="490.66" cy="147.06" r=".7"/><circle class="cls-1" cx="491.57" cy="145.03" r=".7"/><circle class="cls-1" cx="492.78" cy="142.95" r=".7"/><circle class="cls-1" cx="493.84" cy="140.89" r=".7"/><circle class="cls-1" cx="494.99" cy="138.87" r=".7"/><circle class="cls-1" cx="495.9" cy="136.84" r=".7"/><circle class="cls-1" cx="493.35" cy="147.24" r=".7"/><circle class="cls-1" cx="494.27" cy="145.21" r=".7"/><circle class="cls-1" cx="495.48" cy="143.13" r=".7"/><circle class="cls-1" cx="496.54" cy="141.07" r=".7"/><circle class="cls-1" cx="497.69" cy="139.04" r=".7"/><circle class="cls-1" cx="495.93" cy="147.42" r=".7"/><circle class="cls-1" cx="496.84" cy="145.39" r=".7"/><circle class="cls-1" cx="498.05" cy="143.31" r=".7"/><circle class="cls-1" cx="499.11" cy="141.25" r=".7"/><circle class="cls-1" cx="494.58" cy="134.72" r=".7"/><circle class="cls-1" cx="491.86" cy="134.67" r=".7"/><circle class="cls-1" cx="492.87" cy="132.74" r=".7"/><circle class="cls-1" cx="489.55" cy="134.02" r=".7"/><circle class="cls-1" cx="490.57" cy="132.09" r=".7"/><line class="cls-1" x1="509.02" y1="153.57" x2="511.76" y2="152.28"/><line class="cls-1" x1="507.71" y1="152.87" x2="510.45" y2="151.59"/><line class="cls-1" x1="506.64" y1="152.12" x2="509.37" y2="150.83"/><line class="cls-1" x1="505.62" y1="151.46" x2="508.36" y2="150.18"/><line class="cls-1" x1="504.6" y1="150.8" x2="507.34" y2="149.51"/><line class="cls-1" x1="503.46" y1="150.04" x2="506.19" y2="148.76"/><line class="cls-1" x1="510.11" y1="154.13" x2="513.08" y2="152.73"/><line class="cls-1" x1="511" y1="154.99" x2="514.08" y2="153.54"/><polygon class="cls-3" points="502.27 147.87 500.8 143.76 498.23 148.73 502.27 147.87"/></g><g class="cls-8"><path class="cls-5" d="M612.86,4.58c-3.32-3.63-9.39-4.99-13.02-1.67-3.16,2.89-9.86,13.4-9.1,18.45l-7.68,5.66c-.44,.06-.9-.07-1.28,.21-.63,.46-.45,1.14,.02,1.77l.7,.91c.46,.63,1.03,1,1.6,.47,.31-.28,.35-.76,.56-1.33l7.45-5.49c3.95,2.03,20.61-.87,22.63-6.23,1.74-4.6,1.44-9.13-1.88-12.75Z"/><circle class="cls-1" cx="607.66" cy="4.52" r=".7"/><circle class="cls-1" cx="609.2" cy="6.13" r=".7"/><circle class="cls-1" cx="610.68" cy="8.03" r=".7"/><circle class="cls-1" cx="612.2" cy="9.78" r=".7"/><circle class="cls-1" cx="604.49" cy="4.31" r=".7"/><circle class="cls-1" cx="606.03" cy="5.91" r=".7"/><circle class="cls-1" cx="607.51" cy="7.81" r=".7"/><circle class="cls-1" cx="609.03" cy="9.57" r=".7"/><circle class="cls-1" cx="610.47" cy="11.39" r=".7"/><circle class="cls-1" cx="612.01" cy="12.99" r=".7"/><circle class="cls-1" cx="601.46" cy="4.47" r=".7"/><circle class="cls-1" cx="603" cy="6.07" r=".7"/><circle class="cls-1" cx="604.48" cy="7.97" r=".7"/><circle class="cls-1" cx="606" cy="9.73" r=".7"/><circle class="cls-1" cx="607.45" cy="11.55" r=".7"/><circle class="cls-1" cx="608.99" cy="13.15" r=".7"/><circle class="cls-1" cx="600.19" cy="6.41" r=".7"/><circle class="cls-1" cx="601.73" cy="8.01" r=".7"/><circle class="cls-1" cx="603.21" cy="9.91" r=".7"/><circle class="cls-1" cx="604.73" cy="11.67" r=".7"/><circle class="cls-1" cx="606.18" cy="13.49" r=".7"/><circle class="cls-1" cx="607.72" cy="15.09" r=".7"/><circle class="cls-1" cx="599.04" cy="8.79" r=".7"/><circle class="cls-1" cx="600.58" cy="10.39" r=".7"/><circle class="cls-1" cx="602.05" cy="12.29" r=".7"/><circle class="cls-1" cx="603.57" cy="14.05" r=".7"/><circle class="cls-1" cx="605.02" cy="15.86" r=".7"/><circle class="cls-1" cx="606.56" cy="17.47" r=".7"/><circle class="cls-1" cx="597.93" cy="11.02" r=".7"/><circle class="cls-1" cx="599.47" cy="12.63" r=".7"/><circle class="cls-1" cx="600.95" cy="14.53" r=".7"/><circle class="cls-1" cx="602.47" cy="16.28" r=".7"/><circle class="cls-1" cx="603.91" cy="18.1" r=".7"/><circle class="cls-1" cx="605.45" cy="19.7" r=".7"/><circle class="cls-1" cx="596.76" cy="13.46" r=".7"/><circle class="cls-1" cx="598.3" cy="15.06" r=".7"/><circle class="cls-1" cx="599.78" cy="16.96" r=".7"/><circle class="cls-1" cx="601.3" cy="18.72" r=".7"/><circle class="cls-1" cx="602.74" cy="20.54" r=".7"/><circle class="cls-1" cx="595.63" cy="15.78" r=".7"/><circle class="cls-1" cx="597.17" cy="17.38" r=".7"/><circle class="cls-1" cx="598.65" cy="19.28" r=".7"/><circle class="cls-1" cx="600.17" cy="21.04" r=".7"/><circle class="cls-1" cx="607.92" cy="19.28" r=".7"/><circle class="cls-1" cx="608.98" cy="16.76" r=".7"/><circle class="cls-1" cx="610.39" cy="18.43" r=".7"/><circle class="cls-1" cx="610.44" cy="14.86" r=".7"/><circle class="cls-1" cx="611.85" cy="16.53" r=".7"/><line class="cls-1" x1="585.04" y1="25.62" x2="585.21" y2="28.64"/><line class="cls-1" x1="586.17" y1="24.67" x2="586.34" y2="27.68"/><line class="cls-1" x1="587.27" y1="23.95" x2="587.44" y2="26.97"/><line class="cls-1" x1="588.26" y1="23.26" x2="588.43" y2="26.27"/><line class="cls-1" x1="589.26" y1="22.56" x2="589.43" y2="25.57"/><line class="cls-1" x1="590.38" y1="21.78" x2="590.55" y2="24.8"/><line class="cls-1" x1="584.11" y1="26.42" x2="584.29" y2="29.7"/><line class="cls-1" x1="582.98" y1="26.92" x2="583.17" y2="30.33"/><polygon class="cls-3" points="592.85 21.49 597.2 21.66 593.55 17.42 592.85 21.49"/></g><g class="cls-8"><path class="cls-5" d="M579.81,99.24c-3.2,3.73-3.83,9.92-.09,13.12,3.25,2.79,14.48,8.18,19.41,6.82l6.54,6.95c.12,.43,.03,.9,.36,1.24,.54,.57,1.19,.3,1.76-.23l.82-.8c.57-.54,.87-1.14,.27-1.65-.32-.27-.8-.26-1.39-.39l-6.34-6.74c1.54-4.16-3.33-20.35-8.9-21.72-4.78-1.17-9.23-.34-12.43,3.4Z"/><circle class="cls-1" cx="580.38" cy="104.4" r=".7"/><circle class="cls-1" cx="581.79" cy="102.68" r=".7"/><circle class="cls-1" cx="583.5" cy="100.98" r=".7"/><circle class="cls-1" cx="585.06" cy="99.27" r=".7"/><circle class="cls-1" cx="580.55" cy="107.57" r=".7"/><circle class="cls-1" cx="581.96" cy="105.85" r=".7"/><circle class="cls-1" cx="583.67" cy="104.16" r=".7"/><circle class="cls-1" cx="585.23" cy="102.44" r=".7"/><circle class="cls-1" cx="586.86" cy="100.78" r=".7"/><circle class="cls-1" cx="588.27" cy="99.06" r=".7"/><circle class="cls-1" cx="581.07" cy="110.56" r=".7"/><circle class="cls-1" cx="582.48" cy="108.84" r=".7"/><circle class="cls-1" cx="584.19" cy="107.14" r=".7"/><circle class="cls-1" cx="585.75" cy="105.42" r=".7"/><circle class="cls-1" cx="587.38" cy="103.77" r=".7"/><circle class="cls-1" cx="588.79" cy="102.05" r=".7"/><circle class="cls-1" cx="583.15" cy="111.59" r=".7"/><circle class="cls-1" cx="584.56" cy="109.86" r=".7"/><circle class="cls-1" cx="586.27" cy="108.17" r=".7"/><circle class="cls-1" cx="587.82" cy="106.45" r=".7"/><circle class="cls-1" cx="589.46" cy="104.8" r=".7"/><circle class="cls-1" cx="590.87" cy="103.08" r=".7"/><circle class="cls-1" cx="585.65" cy="112.45" r=".7"/><circle class="cls-1" cx="587.06" cy="110.73" r=".7"/><circle class="cls-1" cx="588.77" cy="109.03" r=".7"/><circle class="cls-1" cx="590.33" cy="107.31" r=".7"/><circle class="cls-1" cx="591.96" cy="105.66" r=".7"/><circle class="cls-1" cx="593.37" cy="103.94" r=".7"/><circle class="cls-1" cx="588" cy="113.28" r=".7"/><circle class="cls-1" cx="589.41" cy="111.56" r=".7"/><circle class="cls-1" cx="591.12" cy="109.86" r=".7"/><circle class="cls-1" cx="592.68" cy="108.14" r=".7"/><circle class="cls-1" cx="594.31" cy="106.49" r=".7"/><circle class="cls-1" cx="595.72" cy="104.77" r=".7"/><circle class="cls-1" cx="590.56" cy="114.15" r=".7"/><circle class="cls-1" cx="591.97" cy="112.43" r=".7"/><circle class="cls-1" cx="593.68" cy="110.73" r=".7"/><circle class="cls-1" cx="595.24" cy="109.01" r=".7"/><circle class="cls-1" cx="596.87" cy="107.36" r=".7"/><circle class="cls-1" cx="593" cy="114.99" r=".7"/><circle class="cls-1" cx="594.41" cy="113.27" r=".7"/><circle class="cls-1" cx="596.12" cy="111.58" r=".7"/><circle class="cls-1" cx="597.67" cy="109.86" r=".7"/><circle class="cls-1" cx="595" cy="102.37" r=".7"/><circle class="cls-1" cx="592.37" cy="101.62" r=".7"/><circle class="cls-1" cx="593.86" cy="100.03" r=".7"/><circle class="cls-1" cx="590.31" cy="100.4" r=".7"/><circle class="cls-1" cx="591.8" cy="98.8" r=".7"/><line class="cls-1" x1="604.04" y1="124.33" x2="607.02" y2="123.8"/><line class="cls-1" x1="602.96" y1="123.32" x2="605.93" y2="122.79"/><line class="cls-1" x1="602.12" y1="122.31" x2="605.09" y2="121.78"/><line class="cls-1" x1="601.31" y1="121.41" x2="604.28" y2="120.88"/><line class="cls-1" x1="600.49" y1="120.5" x2="603.47" y2="119.98"/><line class="cls-1" x1="599.59" y1="119.48" x2="602.56" y2="118.95"/><line class="cls-1" x1="604.95" y1="125.15" x2="608.18" y2="124.58"/><line class="cls-1" x1="605.58" y1="126.22" x2="608.94" y2="125.62"/><polygon class="cls-3" points="599 117.07 598.65 112.73 594.88 116.86 599 117.07"/></g><g class="cls-8"><path class="cls-5" d="M701.59,45.8c-4.7-1.45-10.63,.43-12.08,5.13-1.26,4.09-1.74,16.54,1.46,20.53l-3.77,8.77c-.35,.28-.81,.39-1,.82-.31,.72,.19,1.21,.91,1.52l1.06,.43c.72,.31,1.39,.34,1.62-.41,.12-.4-.08-.84-.19-1.43l3.66-8.5c4.43-.24,17.35-11.15,16.39-16.8-.82-4.85-3.36-8.61-8.06-10.06Z"/><circle class="cls-1" cx="697.08" cy="48.38" r=".7"/><circle class="cls-1" cx="699.22" cy="48.99" r=".7"/><circle class="cls-1" cx="701.45" cy="49.88" r=".7"/><circle class="cls-1" cx="703.65" cy="50.63" r=".7"/><circle class="cls-1" cx="694.23" cy="49.79" r=".7"/><circle class="cls-1" cx="696.37" cy="50.4" r=".7"/><circle class="cls-1" cx="698.61" cy="51.3" r=".7"/><circle class="cls-1" cx="700.8" cy="52.04" r=".7"/><circle class="cls-1" cx="702.97" cy="52.88" r=".7"/><circle class="cls-1" cx="705.11" cy="53.49" r=".7"/><circle class="cls-1" cx="691.7" cy="51.46" r=".7"/><circle class="cls-1" cx="693.84" cy="52.07" r=".7"/><circle class="cls-1" cx="696.07" cy="52.96" r=".7"/><circle class="cls-1" cx="698.27" cy="53.71" r=".7"/><circle class="cls-1" cx="700.44" cy="54.55" r=".7"/><circle class="cls-1" cx="702.58" cy="55.16" r=".7"/><circle class="cls-1" cx="691.58" cy="53.78" r=".7"/><circle class="cls-1" cx="693.72" cy="54.38" r=".7"/><circle class="cls-1" cx="695.96" cy="55.28" r=".7"/><circle class="cls-1" cx="698.15" cy="56.03" r=".7"/><circle class="cls-1" cx="700.32" cy="56.86" r=".7"/><circle class="cls-1" cx="702.46" cy="57.47" r=".7"/><circle class="cls-1" cx="691.79" cy="56.41" r=".7"/><circle class="cls-1" cx="693.93" cy="57.02" r=".7"/><circle class="cls-1" cx="696.16" cy="57.92" r=".7"/><circle class="cls-1" cx="698.36" cy="58.66" r=".7"/><circle class="cls-1" cx="700.52" cy="59.5" r=".7"/><circle class="cls-1" cx="702.66" cy="60.11" r=".7"/><circle class="cls-1" cx="691.96" cy="58.9" r=".7"/><circle class="cls-1" cx="694.1" cy="59.51" r=".7"/><circle class="cls-1" cx="696.33" cy="60.4" r=".7"/><circle class="cls-1" cx="698.53" cy="61.15" r=".7"/><circle class="cls-1" cx="700.7" cy="61.99" r=".7"/><circle class="cls-1" cx="702.84" cy="62.6" r=".7"/><circle class="cls-1" cx="692.18" cy="61.59" r=".7"/><circle class="cls-1" cx="694.32" cy="62.2" r=".7"/><circle class="cls-1" cx="696.55" cy="63.1" r=".7"/><circle class="cls-1" cx="698.75" cy="63.84" r=".7"/><circle class="cls-1" cx="700.92" cy="64.68" r=".7"/><circle class="cls-1" cx="692.38" cy="64.17" r=".7"/><circle class="cls-1" cx="694.52" cy="64.78" r=".7"/><circle class="cls-1" cx="696.75" cy="65.67" r=".7"/><circle class="cls-1" cx="698.95" cy="66.42" r=".7"/><circle class="cls-1" cx="704.75" cy="60.98" r=".7"/><circle class="cls-1" cx="704.39" cy="58.28" r=".7"/><circle class="cls-1" cx="706.45" cy="59" r=".7"/><circle class="cls-1" cx="704.7" cy="55.9" r=".7"/><circle class="cls-1" cx="706.76" cy="56.62" r=".7"/><line class="cls-1" x1="688.21" y1="78.02" x2="689.87" y2="80.53"/><line class="cls-1" x1="688.7" y1="76.62" x2="690.37" y2="79.14"/><line class="cls-1" x1="689.29" y1="75.45" x2="690.96" y2="77.96"/><line class="cls-1" x1="689.79" y1="74.35" x2="691.46" y2="76.86"/><line class="cls-1" x1="690.3" y1="73.24" x2="691.97" y2="75.76"/><line class="cls-1" x1="690.88" y1="72" x2="692.55" y2="74.52"/><line class="cls-1" x1="687.81" y1="79.17" x2="689.62" y2="81.91"/><line class="cls-1" x1="687.09" y1="80.18" x2="688.97" y2="83.02"/><polygon class="cls-3" points="692.86 70.5 696.71 68.46 691.41 66.64 692.86 70.5"/></g><g class="cls-8"><path class="cls-5" d="M785.56,28.49c-3.63,3.32-4.99,9.39-1.67,13.02,2.89,3.16,13.4,9.86,18.45,9.1l5.66,7.68c.06,.44-.07,.9,.21,1.28,.46,.63,1.14,.45,1.77-.02l.91-.7c.63-.46,1-1.03,.47-1.6-.28-.31-.76-.35-1.33-.56l-5.49-7.45c2.03-3.95-.87-20.61-6.23-22.63-4.6-1.74-9.13-1.44-12.75,1.88Z"/><circle class="cls-1" cx="785.5" cy="33.68" r=".7"/><circle class="cls-1" cx="787.11" cy="32.14" r=".7"/><circle class="cls-1" cx="789.01" cy="30.67" r=".7"/><circle class="cls-1" cx="790.76" cy="29.15" r=".7"/><circle class="cls-1" cx="785.29" cy="36.85" r=".7"/><circle class="cls-1" cx="786.9" cy="35.31" r=".7"/><circle class="cls-1" cx="788.8" cy="33.84" r=".7"/><circle class="cls-1" cx="790.55" cy="32.32" r=".7"/><circle class="cls-1" cx="792.37" cy="30.87" r=".7"/><circle class="cls-1" cx="793.98" cy="29.33" r=".7"/><circle class="cls-1" cx="785.45" cy="39.88" r=".7"/><circle class="cls-1" cx="787.06" cy="38.34" r=".7"/><circle class="cls-1" cx="788.96" cy="36.87" r=".7"/><circle class="cls-1" cx="790.71" cy="35.35" r=".7"/><circle class="cls-1" cx="792.53" cy="33.9" r=".7"/><circle class="cls-1" cx="794.13" cy="32.36" r=".7"/><circle class="cls-1" cx="787.39" cy="41.15" r=".7"/><circle class="cls-1" cx="789" cy="39.61" r=".7"/><circle class="cls-1" cx="790.9" cy="38.14" r=".7"/><circle class="cls-1" cx="792.65" cy="36.62" r=".7"/><circle class="cls-1" cx="794.47" cy="35.17" r=".7"/><circle class="cls-1" cx="796.07" cy="33.63" r=".7"/><circle class="cls-1" cx="789.77" cy="42.31" r=".7"/><circle class="cls-1" cx="791.37" cy="40.77" r=".7"/><circle class="cls-1" cx="793.27" cy="39.29" r=".7"/><circle class="cls-1" cx="795.03" cy="37.77" r=".7"/><circle class="cls-1" cx="796.85" cy="36.33" r=".7"/><circle class="cls-1" cx="798.45" cy="34.79" r=".7"/><circle class="cls-1" cx="792" cy="43.41" r=".7"/><circle class="cls-1" cx="793.61" cy="41.87" r=".7"/><circle class="cls-1" cx="795.51" cy="40.4" r=".7"/><circle class="cls-1" cx="797.26" cy="38.88" r=".7"/><circle class="cls-1" cx="799.08" cy="37.43" r=".7"/><circle class="cls-1" cx="800.69" cy="35.89" r=".7"/><circle class="cls-1" cx="794.44" cy="44.59" r=".7"/><circle class="cls-1" cx="796.05" cy="43.05" r=".7"/><circle class="cls-1" cx="797.95" cy="41.57" r=".7"/><circle class="cls-1" cx="799.7" cy="40.05" r=".7"/><circle class="cls-1" cx="801.52" cy="38.6" r=".7"/><circle class="cls-1" cx="796.76" cy="45.72" r=".7"/><circle class="cls-1" cx="798.36" cy="44.18" r=".7"/><circle class="cls-1" cx="800.27" cy="42.7" r=".7"/><circle class="cls-1" cx="802.02" cy="41.18" r=".7"/><circle class="cls-1" cx="800.26" cy="33.43" r=".7"/><circle class="cls-1" cx="797.74" cy="32.37" r=".7"/><circle class="cls-1" cx="799.41" cy="30.96" r=".7"/><circle class="cls-1" cx="795.85" cy="30.9" r=".7"/><circle class="cls-1" cx="797.51" cy="29.5" r=".7"/><line class="cls-1" x1="806.61" y1="56.31" x2="809.62" y2="56.14"/><line class="cls-1" x1="805.65" y1="55.18" x2="808.67" y2="55.01"/><line class="cls-1" x1="804.94" y1="54.07" x2="807.95" y2="53.91"/><line class="cls-1" x1="804.24" y1="53.09" x2="807.25" y2="52.92"/><line class="cls-1" x1="803.54" y1="52.09" x2="806.56" y2="51.92"/><line class="cls-1" x1="802.76" y1="50.96" x2="805.78" y2="50.8"/><line class="cls-1" x1="807.4" y1="57.24" x2="810.68" y2="57.05"/><line class="cls-1" x1="807.91" y1="58.37" x2="811.31" y2="58.18"/><polygon class="cls-3" points="802.47 48.5 802.65 44.14 798.4 47.79 802.47 48.5"/></g><g class="cls-8"><path class="cls-5" d="M782.17,111.14c-4.9-.39-10.28,2.74-10.67,7.64-.34,4.27,1.9,16.53,5.9,19.71l-1.77,9.38c-.28,.35-.71,.56-.79,1.02-.15,.77,.45,1.14,1.22,1.29l1.13,.19c.77,.15,1.43,.03,1.49-.75,.03-.42-.26-.8-.5-1.36l1.72-9.09c4.27-1.2,14.5-14.67,12.33-19.97-1.86-4.55-5.16-7.67-10.06-8.06Z"/><circle class="cls-1" cx="778.33" cy="114.64" r=".7"/><circle class="cls-1" cx="780.55" cy="114.76" r=".7"/><circle class="cls-1" cx="782.92" cy="115.15" r=".7"/><circle class="cls-1" cx="785.23" cy="115.4" r=".7"/><circle class="cls-1" cx="775.86" cy="116.64" r=".7"/><circle class="cls-1" cx="778.08" cy="116.77" r=".7"/><circle class="cls-1" cx="780.46" cy="117.15" r=".7"/><circle class="cls-1" cx="782.76" cy="117.4" r=".7"/><circle class="cls-1" cx="785.06" cy="117.75" r=".7"/><circle class="cls-1" cx="787.28" cy="117.88" r=".7"/><circle class="cls-1" cx="773.75" cy="118.82" r=".7"/><circle class="cls-1" cx="775.97" cy="118.94" r=".7"/><circle class="cls-1" cx="778.35" cy="119.33" r=".7"/><circle class="cls-1" cx="780.66" cy="119.58" r=".7"/><circle class="cls-1" cx="782.95" cy="119.93" r=".7"/><circle class="cls-1" cx="785.18" cy="120.05" r=".7"/><circle class="cls-1" cx="774.14" cy="121.1" r=".7"/><circle class="cls-1" cx="776.37" cy="121.23" r=".7"/><circle class="cls-1" cx="778.74" cy="121.62" r=".7"/><circle class="cls-1" cx="781.05" cy="121.86" r=".7"/><circle class="cls-1" cx="783.34" cy="122.21" r=".7"/><circle class="cls-1" cx="785.57" cy="122.34" r=".7"/><circle class="cls-1" cx="774.92" cy="123.63" r=".7"/><circle class="cls-1" cx="777.14" cy="123.76" r=".7"/><circle class="cls-1" cx="779.51" cy="124.14" r=".7"/><circle class="cls-1" cx="781.82" cy="124.39" r=".7"/><circle class="cls-1" cx="784.12" cy="124.74" r=".7"/><circle class="cls-1" cx="786.34" cy="124.87" r=".7"/><circle class="cls-1" cx="775.63" cy="126.02" r=".7"/><circle class="cls-1" cx="777.85" cy="126.15" r=".7"/><circle class="cls-1" cx="780.23" cy="126.53" r=".7"/><circle class="cls-1" cx="782.53" cy="126.78" r=".7"/><circle class="cls-1" cx="784.83" cy="127.13" r=".7"/><circle class="cls-1" cx="787.05" cy="127.26" r=".7"/><circle class="cls-1" cx="776.43" cy="128.6" r=".7"/><circle class="cls-1" cx="778.65" cy="128.73" r=".7"/><circle class="cls-1" cx="781.03" cy="129.12" r=".7"/><circle class="cls-1" cx="783.33" cy="129.37" r=".7"/><circle class="cls-1" cx="785.63" cy="129.71" r=".7"/><circle class="cls-1" cx="777.18" cy="131.07" r=".7"/><circle class="cls-1" cx="779.4" cy="131.2" r=".7"/><circle class="cls-1" cx="781.78" cy="131.58" r=".7"/><circle class="cls-1" cx="784.09" cy="131.83" r=".7"/><circle class="cls-1" cx="788.56" cy="125.27" r=".7"/><circle class="cls-1" cx="787.63" cy="122.7" r=".7"/><circle class="cls-1" cx="789.79" cy="122.96" r=".7"/><circle class="cls-1" cx="787.41" cy="120.31" r=".7"/><circle class="cls-1" cx="789.57" cy="120.57" r=".7"/><line class="cls-1" x1="776.13" y1="145.5" x2="778.31" y2="147.59"/><line class="cls-1" x1="776.31" y1="144.03" x2="778.49" y2="146.12"/><line class="cls-1" x1="776.63" y1="142.75" x2="778.81" y2="144.84"/><line class="cls-1" x1="776.88" y1="141.57" x2="779.06" y2="143.66"/><line class="cls-1" x1="777.14" y1="140.38" x2="779.31" y2="142.47"/><line class="cls-1" x1="777.43" y1="139.04" x2="779.61" y2="141.14"/><line class="cls-1" x1="776" y1="146.71" x2="778.36" y2="148.99"/><line class="cls-1" x1="775.51" y1="147.85" x2="777.97" y2="150.21"/><polygon class="cls-1" points="779.04 137.15 782.34 134.31 776.78 133.69 779.04 137.15"/></g><g class="cls-8"><path class="cls-5" d="M851.71,144.77c-3.6,3.35-4.92,9.43-1.57,13.03,2.92,3.14,13.47,9.76,18.52,8.96l5.72,7.64c.07,.44-.07,.9,.22,1.27,.47,.63,1.15,.44,1.77-.03l.91-.7c.63-.47,.99-1.04,.45-1.61-.29-.31-.77-.35-1.34-.55l-5.55-7.41c2-3.96-1.02-20.6-6.4-22.58-4.61-1.7-9.14-1.37-12.74,1.98Z"/><circle class="cls-1" cx="851.69" cy="149.96" r=".7"/><circle class="cls-1" cx="853.29" cy="148.41" r=".7"/><circle class="cls-1" cx="855.18" cy="146.92" r=".7"/><circle class="cls-1" cx="856.92" cy="145.38" r=".7"/><circle class="cls-1" cx="851.5" cy="153.13" r=".7"/><circle class="cls-1" cx="853.1" cy="151.58" r=".7"/><circle class="cls-1" cx="854.99" cy="150.09" r=".7"/><circle class="cls-1" cx="856.73" cy="148.56" r=".7"/><circle class="cls-1" cx="858.54" cy="147.1" r=".7"/><circle class="cls-1" cx="860.13" cy="145.54" r=".7"/><circle class="cls-1" cx="851.69" cy="156.16" r=".7"/><circle class="cls-1" cx="853.28" cy="154.6" r=".7"/><circle class="cls-1" cx="855.17" cy="153.11" r=".7"/><circle class="cls-1" cx="856.91" cy="151.58" r=".7"/><circle class="cls-1" cx="858.72" cy="150.12" r=".7"/><circle class="cls-1" cx="860.31" cy="148.57" r=".7"/><circle class="cls-1" cx="853.63" cy="157.41" r=".7"/><circle class="cls-1" cx="855.23" cy="155.86" r=".7"/><circle class="cls-1" cx="857.12" cy="154.37" r=".7"/><circle class="cls-1" cx="858.86" cy="152.84" r=".7"/><circle class="cls-1" cx="860.67" cy="151.38" r=".7"/><circle class="cls-1" cx="862.26" cy="149.82" r=".7"/><circle class="cls-1" cx="856.02" cy="158.55" r=".7"/><circle class="cls-1" cx="857.62" cy="157" r=".7"/><circle class="cls-1" cx="859.51" cy="155.51" r=".7"/><circle class="cls-1" cx="861.25" cy="153.97" r=".7"/><circle class="cls-1" cx="863.06" cy="152.51" r=".7"/><circle class="cls-1" cx="864.65" cy="150.96" r=".7"/><circle class="cls-1" cx="858.26" cy="159.64" r=".7"/><circle class="cls-1" cx="859.86" cy="158.09" r=".7"/><circle class="cls-1" cx="861.75" cy="156.6" r=".7"/><circle class="cls-1" cx="863.49" cy="155.06" r=".7"/><circle class="cls-1" cx="865.3" cy="153.6" r=".7"/><circle class="cls-1" cx="866.89" cy="152.05" r=".7"/><circle class="cls-1" cx="860.71" cy="160.79" r=".7"/><circle class="cls-1" cx="862.31" cy="159.24" r=".7"/><circle class="cls-1" cx="864.19" cy="157.75" r=".7"/><circle class="cls-1" cx="865.94" cy="156.22" r=".7"/><circle class="cls-1" cx="867.74" cy="154.76" r=".7"/><circle class="cls-1" cx="863.04" cy="161.9" r=".7"/><circle class="cls-1" cx="864.63" cy="160.35" r=".7"/><circle class="cls-1" cx="866.52" cy="158.86" r=".7"/><circle class="cls-1" cx="868.26" cy="157.33" r=".7"/><circle class="cls-1" cx="866.44" cy="149.59" r=".7"/><circle class="cls-1" cx="863.92" cy="148.55" r=".7"/><circle class="cls-1" cx="865.58" cy="147.13" r=".7"/><circle class="cls-1" cx="862.01" cy="147.1" r=".7"/><circle class="cls-1" cx="863.67" cy="145.68" r=".7"/><line class="cls-1" x1="872.97" y1="172.42" x2="875.98" y2="172.23"/><line class="cls-1" x1="872" y1="171.3" x2="875.02" y2="171.11"/><line class="cls-1" x1="871.28" y1="170.2" x2="874.3" y2="170.01"/><line class="cls-1" x1="870.57" y1="169.22" x2="873.59" y2="169.03"/><line class="cls-1" x1="869.87" y1="168.22" x2="872.88" y2="168.03"/><line class="cls-1" x1="869.08" y1="167.11" x2="872.1" y2="166.92"/><line class="cls-1" x1="873.77" y1="173.34" x2="877.05" y2="173.13"/><line class="cls-1" x1="874.28" y1="174.47" x2="877.69" y2="174.26"/><polygon class="cls-3" points="868.77 164.64 868.92 160.29 864.7 163.97 868.77 164.64"/></g><g class="cls-8"><path class="cls-5" d="M868.14,38.14c-4.69,1.47-8.51,6.38-7.04,11.08,1.28,4.09,7.94,14.62,12.84,16.08l1.86,9.36c-.13,.43-.45,.78-.36,1.24,.15,.77,.85,.89,1.61,.74l1.12-.24c.77-.15,1.34-.51,1.1-1.25-.13-.4-.54-.64-.97-1.07l-1.81-9.07c3.51-2.71,7.97-19.02,3.97-23.13-3.43-3.53-7.65-5.18-12.34-3.71Z"/><circle class="cls-1" cx="865.88" cy="42.82" r=".7"/><circle class="cls-1" cx="867.99" cy="42.1" r=".7"/><circle class="cls-1" cx="870.34" cy="41.58" r=".7"/><circle class="cls-1" cx="872.57" cy="40.94" r=".7"/><circle class="cls-1" cx="864.34" cy="45.6" r=".7"/><circle class="cls-1" cx="866.45" cy="44.88" r=".7"/><circle class="cls-1" cx="868.8" cy="44.35" r=".7"/><circle class="cls-1" cx="871.03" cy="43.72" r=".7"/><circle class="cls-1" cx="873.29" cy="43.19" r=".7"/><circle class="cls-1" cx="875.4" cy="42.48" r=".7"/><circle class="cls-1" cx="863.2" cy="48.4" r=".7"/><circle class="cls-1" cx="865.31" cy="47.69" r=".7"/><circle class="cls-1" cx="867.66" cy="47.16" r=".7"/><circle class="cls-1" cx="869.89" cy="46.53" r=".7"/><circle class="cls-1" cx="872.15" cy="46" r=".7"/><circle class="cls-1" cx="874.26" cy="45.28" r=".7"/><circle class="cls-1" cx="864.42" cy="50.38" r=".7"/><circle class="cls-1" cx="866.52" cy="49.67" r=".7"/><circle class="cls-1" cx="868.87" cy="49.14" r=".7"/><circle class="cls-1" cx="871.1" cy="48.51" r=".7"/><circle class="cls-1" cx="873.37" cy="47.97" r=".7"/><circle class="cls-1" cx="875.47" cy="47.26" r=".7"/><circle class="cls-1" cx="866.08" cy="52.43" r=".7"/><circle class="cls-1" cx="868.19" cy="51.72" r=".7"/><circle class="cls-1" cx="870.54" cy="51.19" r=".7"/><circle class="cls-1" cx="872.77" cy="50.56" r=".7"/><circle class="cls-1" cx="875.03" cy="50.03" r=".7"/><circle class="cls-1" cx="877.14" cy="49.31" r=".7"/><circle class="cls-1" cx="867.63" cy="54.38" r=".7"/><circle class="cls-1" cx="869.74" cy="53.67" r=".7"/><circle class="cls-1" cx="872.09" cy="53.14" r=".7"/><circle class="cls-1" cx="874.32" cy="52.51" r=".7"/><circle class="cls-1" cx="876.58" cy="51.98" r=".7"/><circle class="cls-1" cx="878.69" cy="51.26" r=".7"/><circle class="cls-1" cx="869.34" cy="56.48" r=".7"/><circle class="cls-1" cx="871.45" cy="55.77" r=".7"/><circle class="cls-1" cx="873.8" cy="55.24" r=".7"/><circle class="cls-1" cx="876.03" cy="54.61" r=".7"/><circle class="cls-1" cx="878.29" cy="54.07" r=".7"/><circle class="cls-1" cx="870.96" cy="58.49" r=".7"/><circle class="cls-1" cx="873.07" cy="57.78" r=".7"/><circle class="cls-1" cx="875.42" cy="57.25" r=".7"/><circle class="cls-1" cx="877.65" cy="56.62" r=".7"/><circle class="cls-1" cx="879.35" cy="48.85" r=".7"/><circle class="cls-1" cx="877.52" cy="46.83" r=".7"/><circle class="cls-1" cx="879.63" cy="46.26" r=".7"/><circle class="cls-1" cx="876.42" cy="44.69" r=".7"/><circle class="cls-1" cx="878.53" cy="44.12" r=".7"/><line class="cls-1" x1="875.38" y1="72.26" x2="878.18" y2="73.39"/><line class="cls-1" x1="874.99" y1="70.83" x2="877.79" y2="71.96"/><line class="cls-1" x1="874.82" y1="69.53" x2="877.62" y2="70.66"/><line class="cls-1" x1="874.6" y1="68.34" x2="877.4" y2="69.47"/><line class="cls-1" x1="874.4" y1="67.14" x2="877.2" y2="68.27"/><line class="cls-1" x1="874.17" y1="65.79" x2="876.97" y2="66.92"/><line class="cls-1" x1="875.71" y1="73.44" x2="878.75" y2="74.66"/><line class="cls-1" x1="875.68" y1="74.68" x2="878.84" y2="75.95"/><polygon class="cls-3" points="874.95 63.43 876.96 59.57 871.57 61.07 874.95 63.43"/></g><g class="cls-8"><path class="cls-6" d="M393.41,112.06c-.12-.25-.05-.56,.02-.82s.15-.51,.29-.72c.28-.44,1.07-.39,1.39,0,.18,.22,.26,.53,.39,.78,.13,.27,.28,.53,.46,.78,.34,.46,.8,.84,1.39,.85,.24,0,.24-.37,0-.37-.76,0-1.21-.81-1.51-1.41-.14-.28-.23-.6-.43-.85-.18-.22-.43-.36-.7-.41s-.61-.06-.87,.05-.42,.34-.54,.58c-.24,.5-.47,1.2-.21,1.73,.1,.22,.43,.03,.32-.19h0Z"/><path class="cls-6" d="M394.36,108.07c.03,.57,.76,.67,1.2,.69,.53,.03,1.07-.08,1.55-.31,.23-.11,.03-.45-.2-.34-.37,.17-.77,.26-1.18,.26-.2,0-.39-.01-.59-.06-.12-.03-.39-.09-.4-.25-.01-.25-.41-.25-.39,0h0Z"/><circle class="cls-2" cx="395.65" cy="110.61" r="2.85"/></g><g class="cls-8"><path class="cls-6" d="M259.62,67.13c-.12-.25-.05-.56,.02-.82s.15-.51,.29-.72c.28-.44,1.07-.39,1.39,0,.18,.22,.26,.53,.39,.78,.13,.27,.28,.53,.46,.78,.34,.46,.8,.84,1.39,.85,.24,0,.24-.37,0-.37-.76,0-1.21-.81-1.51-1.41-.14-.28-.23-.6-.43-.85-.18-.22-.43-.36-.7-.41s-.61-.06-.87,.05-.42,.34-.54,.58c-.24,.5-.47,1.2-.21,1.73,.1,.22,.43,.03,.32-.19h0Z"/><path class="cls-6" d="M260.57,63.13c.03,.57,.76,.67,1.2,.69,.53,.03,1.07-.08,1.55-.31,.23-.11,.03-.45-.2-.34-.37,.17-.77,.26-1.18,.26-.2,0-.39-.01-.59-.06-.12-.03-.39-.09-.4-.25-.01-.25-.41-.25-.39,0h0Z"/><circle class="cls-2" cx="261.86" cy="65.67" r="2.85"/></g><g class="cls-8"><path class="cls-6" d="M300.26,147.69c-.12-.25-.05-.56,.02-.82s.15-.51,.29-.72c.28-.44,1.07-.39,1.39,0,.18,.22,.26,.53,.39,.78,.13,.27,.28,.53,.46,.78,.34,.46,.8,.84,1.39,.85,.24,0,.24-.37,0-.37-.76,0-1.21-.81-1.51-1.41-.14-.28-.23-.6-.43-.85-.18-.22-.43-.36-.7-.41s-.61-.06-.87,.05-.42,.34-.54,.58c-.24,.5-.47,1.2-.21,1.73,.1,.22,.43,.03,.32-.19h0Z"/><path class="cls-6" d="M301.21,143.69c.03,.57,.76,.67,1.2,.69,.53,.03,1.07-.08,1.55-.31,.23-.11,.03-.45-.2-.34-.37,.17-.77,.26-1.18,.26-.2,0-.39-.01-.59-.06-.12-.03-.39-.09-.4-.25-.01-.25-.41-.25-.39,0h0Z"/><circle class="cls-2" cx="302.5" cy="146.23" r="2.85"/></g><g class="cls-8"><path class="cls-6" d="M194.24,105.13c-.12-.25-.05-.56,.02-.82s.15-.51,.29-.72c.28-.44,1.07-.39,1.39,0,.18,.22,.26,.53,.39,.78,.13,.27,.28,.53,.46,.78,.34,.46,.8,.84,1.39,.85,.24,0,.24-.37,0-.37-.76,0-1.21-.81-1.51-1.41-.14-.28-.23-.6-.43-.85-.18-.22-.43-.36-.7-.41s-.61-.06-.87,.05-.42,.34-.54,.58c-.24,.5-.47,1.2-.21,1.73,.1,.22,.43,.03,.32-.19h0Z"/><path class="cls-6" d="M195.19,101.13c.03,.57,.76,.67,1.2,.69,.53,.03,1.07-.08,1.55-.31,.23-.11,.03-.45-.2-.34-.37,.17-.77,.26-1.18,.26-.2,0-.39-.01-.59-.06-.12-.03-.39-.09-.4-.25-.01-.25-.41-.25-.39,0h0Z"/><circle class="cls-2" cx="196.48" cy="103.68" r="2.85"/></g><g class="cls-8"><path class="cls-6" d="M65.14,80.25c-.12-.25-.05-.56,.02-.82s.15-.51,.29-.72c.28-.44,1.07-.39,1.39,0,.18,.22,.26,.53,.39,.78,.13,.27,.28,.53,.46,.78,.34,.46,.8,.84,1.39,.85,.24,0,.24-.37,0-.37-.76,0-1.21-.81-1.51-1.41-.14-.28-.23-.6-.43-.85-.18-.22-.43-.36-.7-.41s-.61-.06-.87,.05-.42,.34-.54,.58c-.24,.5-.47,1.2-.21,1.73,.1,.22,.43,.03,.32-.19h0Z"/><path class="cls-6" d="M66.09,76.26c.03,.57,.76,.67,1.2,.69,.53,.03,1.07-.08,1.55-.31,.23-.11,.03-.45-.2-.34-.37,.17-.77,.26-1.18,.26-.2,0-.39-.01-.59-.06-.12-.03-.39-.09-.4-.25-.01-.25-.41-.25-.39,0h0Z"/><circle class="cls-2" cx="67.38" cy="78.8" r="2.85"/></g><g class="cls-8"><path class="cls-6" d="M121.03,153.39c-.12-.25-.05-.56,.02-.82s.15-.51,.29-.72c.28-.44,1.07-.39,1.39,0,.18,.22,.26,.53,.39,.78,.13,.27,.28,.53,.46,.78,.34,.46,.8,.84,1.39,.85,.24,0,.24-.37,0-.37-.76,0-1.21-.81-1.51-1.41-.14-.28-.23-.6-.43-.85-.18-.22-.43-.36-.7-.41s-.61-.06-.87,.05-.42,.34-.54,.58c-.24,.5-.47,1.2-.21,1.73,.1,.22,.43,.03,.32-.19h0Z"/><path class="cls-6" d="M121.99,149.39c.03,.57,.76,.67,1.2,.69,.53,.03,1.07-.08,1.55-.31,.23-.11,.03-.45-.2-.34-.37,.17-.77,.26-1.18,.26-.2,0-.39-.01-.59-.06-.12-.03-.39-.09-.4-.25-.01-.25-.41-.25-.39,0h0Z"/><circle class="cls-2" cx="123.27" cy="151.93" r="2.85"/></g><g class="cls-8"><path class="cls-6" d="M35.74,160.66c-.12-.25-.05-.56,.02-.82s.15-.51,.29-.72c.28-.44,1.07-.39,1.39,0,.18,.22,.26,.53,.39,.78,.13,.27,.28,.53,.46,.78,.34,.46,.8,.84,1.39,.85,.24,0,.24-.37,0-.37-.76,0-1.21-.81-1.51-1.41-.14-.28-.23-.6-.43-.85-.18-.22-.43-.36-.7-.41s-.61-.06-.87,.05-.42,.34-.54,.58c-.24,.5-.47,1.2-.21,1.73,.1,.22,.43,.03,.32-.19h0Z"/><path class="cls-6" d="M36.7,156.66c.03,.57,.76,.67,1.2,.69,.53,.03,1.07-.08,1.55-.31,.23-.11,.03-.45-.2-.34-.37,.17-.77,.26-1.18,.26-.2,0-.39-.01-.59-.06-.12-.03-.39-.09-.4-.25-.01-.25-.41-.25-.39,0h0Z"/><circle class="cls-2" cx="37.98" cy="159.21" r="2.85"/></g><g class="cls-8"><path class="cls-6" d="M145.91,24.65c-.12-.25-.05-.56,.02-.82s.15-.51,.29-.72c.28-.44,1.07-.39,1.39,0,.18,.22,.26,.53,.39,.78,.13,.27,.28,.53,.46,.78,.34,.46,.8,.84,1.39,.85,.24,0,.24-.37,0-.37-.76,0-1.21-.81-1.51-1.41-.14-.28-.23-.6-.43-.85-.18-.22-.43-.36-.7-.41s-.61-.06-.87,.05-.42,.34-.54,.58c-.24,.5-.47,1.2-.21,1.73,.1,.22,.43,.03,.32-.19h0Z"/><path class="cls-6" d="M146.86,20.65c.03,.57,.76,.67,1.2,.69,.53,.03,1.07-.08,1.55-.31,.23-.11,.03-.45-.2-.34-.37,.17-.77,.26-1.18,.26-.2,0-.39-.01-.59-.06-.12-.03-.39-.09-.4-.25-.01-.25-.41-.25-.39,0h0Z"/><circle class="cls-2" cx="148.15" cy="23.2" r="2.85"/></g><g class="cls-8"><path class="cls-6" d="M237.65,187.02c-.12-.25-.05-.56,.02-.82s.15-.51,.29-.72c.28-.44,1.07-.39,1.39,0,.18,.22,.26,.53,.39,.78,.13,.27,.28,.53,.46,.78,.34,.46,.8,.84,1.39,.85,.24,0,.24-.37,0-.37-.76,0-1.21-.81-1.51-1.41-.14-.28-.23-.6-.43-.85-.18-.22-.43-.36-.7-.41s-.61-.06-.87,.05-.42,.34-.54,.58c-.24,.5-.47,1.2-.21,1.73,.1,.22,.43,.03,.32-.19h0Z"/><path class="cls-6" d="M238.6,183.02c.03,.57,.76,.67,1.2,.69,.53,.03,1.07-.08,1.55-.31,.23-.11,.03-.45-.2-.34-.37,.17-.77,.26-1.18,.26-.2,0-.39-.01-.59-.06-.12-.03-.39-.09-.4-.25-.01-.25-.41-.25-.39,0h0Z"/><circle class="cls-2" cx="239.88" cy="185.57" r="2.85"/></g><g class="cls-8"><path class="cls-6" d="M322.14,19.21c-.12-.25-.05-.56,.02-.82s.15-.51,.29-.72c.28-.44,1.07-.39,1.39,0,.18,.22,.26,.53,.39,.78,.13,.27,.28,.53,.46,.78,.34,.46,.8,.84,1.39,.85,.24,0,.24-.37,0-.37-.76,0-1.21-.81-1.51-1.41-.14-.28-.23-.6-.43-.85-.18-.22-.43-.36-.7-.41s-.61-.06-.87,.05-.42,.34-.54,.58c-.24,.5-.47,1.2-.21,1.73,.1,.22,.43,.03,.32-.19h0Z"/><path class="cls-6" d="M323.09,15.21c.03,.57,.76,.67,1.2,.69,.53,.03,1.07-.08,1.55-.31,.23-.11,.03-.45-.2-.34-.37,.17-.77,.26-1.18,.26-.2,0-.39-.01-.59-.06-.12-.03-.39-.09-.4-.25-.01-.25-.41-.25-.39,0h0Z"/><circle class="cls-2" cx="324.37" cy="17.75" r="2.85"/></g><g class="cls-8"><path class="cls-6" d="M437.2,27.93c-.12-.25-.05-.56,.02-.82s.15-.51,.29-.72c.28-.44,1.07-.39,1.39,0,.18,.22,.26,.53,.39,.78,.13,.27,.28,.53,.46,.78,.34,.46,.8,.84,1.39,.85,.24,0,.24-.37,0-.37-.76,0-1.21-.81-1.51-1.41-.14-.28-.23-.6-.43-.85-.18-.22-.43-.36-.7-.41s-.61-.06-.87,.05-.42,.34-.54,.58c-.24,.5-.47,1.2-.21,1.73,.1,.22,.43,.03,.32-.19h0Z"/><path class="cls-6" d="M438.15,23.94c.03,.57,.76,.67,1.2,.69,.53,.03,1.07-.08,1.55-.31,.23-.11,.03-.45-.2-.34-.37,.17-.77,.26-1.18,.26-.2,0-.39-.01-.59-.06-.12-.03-.39-.09-.4-.25-.01-.25-.41-.25-.39,0h0Z"/><circle class="cls-2" cx="439.44" cy="26.48" r="2.85"/></g><g class="cls-8"><path class="cls-6" d="M467.46,166.18c-.12-.25-.05-.56,.02-.82s.15-.51,.29-.72c.28-.44,1.07-.39,1.39,0,.18,.22,.26,.53,.39,.78,.13,.27,.28,.53,.46,.78,.34,.46,.8,.84,1.39,.85,.24,0,.24-.37,0-.37-.76,0-1.21-.81-1.51-1.41-.14-.28-.23-.6-.43-.85-.18-.22-.43-.36-.7-.41s-.61-.06-.87,.05-.42,.34-.54,.58c-.24,.5-.47,1.2-.21,1.73,.1,.22,.43,.03,.32-.19h0Z"/><path class="cls-6" d="M468.42,162.19c.03,.57,.76,.67,1.2,.69,.53,.03,1.07-.08,1.55-.31,.23-.11,.03-.45-.2-.34-.37,.17-.77,.26-1.18,.26-.2,0-.39-.01-.59-.06-.12-.03-.39-.09-.4-.25-.01-.25-.41-.25-.39,0h0Z"/><circle class="cls-2" cx="469.7" cy="164.73" r="2.85"/></g><g class="cls-8"><path class="cls-6" d="M527.36,73.19c-.12-.25-.05-.56,.02-.82s.15-.51,.29-.72c.28-.44,1.07-.39,1.39,0,.18,.22,.26,.53,.39,.78,.13,.27,.28,.53,.46,.78,.34,.46,.8,.84,1.39,.85,.24,0,.24-.37,0-.37-.76,0-1.21-.81-1.51-1.41-.14-.28-.23-.6-.43-.85-.18-.22-.43-.36-.7-.41s-.61-.06-.87,.05-.42,.34-.54,.58c-.24,.5-.47,1.2-.21,1.73,.1,.22,.43,.03,.32-.19h0Z"/><path class="cls-6" d="M528.31,69.2c.03,.57,.76,.67,1.2,.69,.53,.03,1.07-.08,1.55-.31,.23-.11,.03-.45-.2-.34-.37,.17-.77,.26-1.18,.26-.2,0-.39-.01-.59-.06-.12-.03-.39-.09-.4-.25-.01-.25-.41-.25-.39,0h0Z"/><circle class="cls-2" cx="529.59" cy="71.74" r="2.85"/></g><g class="cls-8"><path class="cls-6" d="M638.68,33.82c-.12-.25-.05-.56,.02-.82s.15-.51,.29-.72c.28-.44,1.07-.39,1.39,0,.18,.22,.26,.53,.39,.78,.13,.27,.28,.53,.46,.78,.34,.46,.8,.84,1.39,.85,.24,0,.24-.37,0-.37-.76,0-1.21-.81-1.51-1.41-.14-.28-.23-.6-.43-.85-.18-.22-.43-.36-.7-.41s-.61-.06-.87,.05-.42,.34-.54,.58c-.24,.5-.47,1.2-.21,1.73,.1,.22,.43,.03,.32-.19h0Z"/><path class="cls-6" d="M639.63,29.82c.03,.57,.76,.67,1.2,.69,.53,.03,1.07-.08,1.55-.31,.23-.11,.03-.45-.2-.34-.37,.17-.77,.26-1.18,.26-.2,0-.39-.01-.59-.06-.12-.03-.39-.09-.4-.25-.01-.25-.41-.25-.39,0h0Z"/><circle class="cls-2" cx="640.92" cy="32.36" r="2.85"/></g><g class="cls-8"><path class="cls-6" d="M649.87,118.22c-.12-.25-.05-.56,.02-.82s.15-.51,.29-.72c.28-.44,1.07-.39,1.39,0,.18,.22,.26,.53,.39,.78,.13,.27,.28,.53,.46,.78,.34,.46,.8,.84,1.39,.85,.24,0,.24-.37,0-.37-.76,0-1.21-.81-1.51-1.41-.14-.28-.23-.6-.43-.85-.18-.22-.43-.36-.7-.41s-.61-.06-.87,.05-.42,.34-.54,.58c-.24,.5-.47,1.2-.21,1.73,.1,.22,.43,.03,.32-.19h0Z"/><path class="cls-6" d="M650.82,114.22c.03,.57,.76,.67,1.2,.69,.53,.03,1.07-.08,1.55-.31,.23-.11,.03-.45-.2-.34-.37,.17-.77,.26-1.18,.26-.2,0-.39-.01-.59-.06-.12-.03-.39-.09-.4-.25-.01-.25-.41-.25-.39,0h0Z"/><circle class="cls-2" cx="652.11" cy="116.77" r="2.85"/></g><g class="cls-8"><path class="cls-6" d="M600.23,157.61c-.12-.25-.05-.56,.02-.82s.15-.51,.29-.72c.28-.44,1.07-.39,1.39,0,.18,.22,.26,.53,.39,.78,.13,.27,.28,.53,.46,.78,.34,.46,.8,.84,1.39,.85,.24,0,.24-.37,0-.37-.76,0-1.21-.81-1.51-1.41-.14-.28-.23-.6-.43-.85-.18-.22-.43-.36-.7-.41s-.61-.06-.87,.05-.42,.34-.54,.58c-.24,.5-.47,1.2-.21,1.73,.1,.22,.43,.03,.32-.19h0Z"/><path class="cls-6" d="M601.18,153.61c.03,.57,.76,.67,1.2,.69,.53,.03,1.07-.08,1.55-.31,.23-.11,.03-.45-.2-.34-.37,.17-.77,.26-1.18,.26-.2,0-.39-.01-.59-.06-.12-.03-.39-.09-.4-.25-.01-.25-.41-.25-.39,0h0Z"/><circle class="cls-2" cx="602.47" cy="156.16" r="2.85"/></g><g class="cls-8"><path class="cls-6" d="M745.6,82.71c-.12-.25-.05-.56,.02-.82s.15-.51,.29-.72c.28-.44,1.07-.39,1.39,0,.18,.22,.26,.53,.39,.78,.13,.27,.28,.53,.46,.78,.34,.46,.8,.84,1.39,.85,.24,0,.24-.37,0-.37-.76,0-1.21-.81-1.51-1.41-.14-.28-.23-.6-.43-.85-.18-.22-.43-.36-.7-.41s-.61-.06-.87,.05-.42,.34-.54,.58c-.24,.5-.47,1.2-.21,1.73,.1,.22,.43,.03,.32-.19h0Z"/><path class="cls-6" d="M746.55,78.71c.03,.57,.76,.67,1.2,.69,.53,.03,1.07-.08,1.55-.31,.23-.11,.03-.45-.2-.34-.37,.17-.77,.26-1.18,.26-.2,0-.39-.01-.59-.06-.12-.03-.39-.09-.4-.25-.01-.25-.41-.25-.39,0h0Z"/><circle class="cls-2" cx="747.83" cy="81.26" r="2.85"/></g><g class="cls-8"><path class="cls-6" d="M744.1,170.23c-.12-.25-.05-.56,.02-.82s.15-.51,.29-.72c.28-.44,1.07-.39,1.39,0,.18,.22,.26,.53,.39,.78,.13,.27,.28,.53,.46,.78,.34,.46,.8,.84,1.39,.85,.24,0,.24-.37,0-.37-.76,0-1.21-.81-1.51-1.41-.14-.28-.23-.6-.43-.85-.18-.22-.43-.36-.7-.41s-.61-.06-.87,.05-.42,.34-.54,.58c-.24,.5-.47,1.2-.21,1.73,.1,.22,.43,.03,.32-.19h0Z"/><path class="cls-6" d="M745.05,166.23c.03,.57,.76,.67,1.2,.69,.53,.03,1.07-.08,1.55-.31,.23-.11,.03-.45-.2-.34-.37,.17-.77,.26-1.18,.26-.2,0-.39-.01-.59-.06-.12-.03-.39-.09-.4-.25-.01-.25-.41-.25-.39,0h0Z"/><circle class="cls-2" cx="746.33" cy="168.77" r="2.85"/></g><g class="cls-8"><path class="cls-6" d="M755.7,25.08c-.12-.25-.05-.56,.02-.82s.15-.51,.29-.72c.28-.44,1.07-.39,1.39,0,.18,.22,.26,.53,.39,.78,.13,.27,.28,.53,.46,.78,.34,.46,.8,.84,1.39,.85,.24,0,.24-.37,0-.37-.76,0-1.21-.81-1.51-1.41-.14-.28-.23-.6-.43-.85-.18-.22-.43-.36-.7-.41s-.61-.06-.87,.05-.42,.34-.54,.58c-.24,.5-.47,1.2-.21,1.73,.1,.22,.43,.03,.32-.19h0Z"/><path class="cls-6" d="M756.65,21.08c.03,.57,.76,.67,1.2,.69,.53,.03,1.07-.08,1.55-.31,.23-.11,.03-.45-.2-.34-.37,.17-.77,.26-1.18,.26-.2,0-.39-.01-.59-.06-.12-.03-.39-.09-.4-.25-.01-.25-.41-.25-.39,0h0Z"/><circle class="cls-2" cx="757.94" cy="23.62" r="2.85"/></g></svg>