<?xml version="1.0" encoding="UTF-8"?><svg id="Laag_1" xmlns="http://www.w3.org/2000/svg" viewBox="0 0 879.8 188.41"><defs><style>.cls-1{fill:#f6ceb2;}.cls-2{fill:#fff;}.cls-3{opacity:.54;}.cls-4{fill:none;stroke:#fff;stroke-miterlimit:10;stroke-width:.25px;}</style></defs><rect class="cls-1" x="15.32" y="10.05" width="852.62" height="172.5" rx="18.53" ry="18.53"/><g><rect class="cls-4" x="52.06" y="138.09" width="24.44" height="13.26" rx="2.9" ry="2.9" transform="translate(50.06 -12.99) rotate(18.8)"/><circle class="cls-4" cx="64.33" cy="144.57" r="3.66"/><rect class="cls-4" x="73.14" y="137.56" width="3.69" height="3.69" transform="translate(48.92 -16.72) rotate(18.8)"/><rect class="cls-4" x="70.71" y="138.79" width="1.85" height="1.39" transform="translate(48.76 -15.64) rotate(18.8)"/><line class="cls-4" x1="51.32" y1="145.37" x2="74.12" y2="153.13"/><line class="cls-4" x1="54.69" y1="136.06" x2="77.17" y2="143.71"/><rect class="cls-4" x="72.36" y="143.65" width="1.1" height="1.1" rx=".55" ry=".55" transform="translate(50.35 -15.8) rotate(18.8)"/><path class="cls-2" d="M74.2,144.12c.37,0,.37-.58,0-.58s-.37,.58,0,.58h0Z"/><circle class="cls-4" cx="64.32" cy="144.54" r="3.26"/></g><g><rect class="cls-4" x="10.09" y="32.09" width="24.44" height="13.26" rx="2.9" ry="2.9" transform="translate(-11.13 9.08) rotate(-18.5)"/><circle class="cls-4" cx="22.26" cy="38.57" r="3.66"/><rect class="cls-4" x="25.76" y="26.17" width="3.69" height="3.69" transform="translate(-7.46 10.2) rotate(-18.5)"/><rect class="cls-4" x="24.06" y="29.41" width="1.85" height="1.39" transform="translate(-8.26 9.48) rotate(-18.5)"/><line class="cls-4" x1="12.39" y1="47.09" x2="35.23" y2="39.45"/><line class="cls-4" x1="9.44" y1="37.65" x2="31.95" y2="30.12"/><rect class="cls-4" x="28.31" y="32.54" width="1.1" height="1.1" rx=".55" ry=".55" transform="translate(-9.01 10.87) rotate(-18.5)"/><path class="cls-2" d="M29.66,32.3c.37,0,.37-.58,0-.58s-.37,.58,0,.58h0Z"/><circle class="cls-4" cx="22.23" cy="38.56" r="3.26"/></g><g><rect class="cls-4" x="74.9" y="65.54" width="24.44" height="13.26" rx="2.9" ry="2.9" transform="translate(-18.4 31.37) rotate(-18.5)"/><circle class="cls-4" cx="87.07" cy="72.03" r="3.66"/><rect class="cls-4" x="90.56" y="59.62" width="3.69" height="3.69" transform="translate(-14.73 32.49) rotate(-18.5)"/><rect class="cls-4" x="88.87" y="62.87" width="1.85" height="1.39" transform="translate(-15.53 31.77) rotate(-18.5)"/><line class="cls-4" x1="77.2" y1="80.54" x2="100.03" y2="72.9"/><line class="cls-4" x1="74.24" y1="71.1" x2="96.76" y2="63.57"/><rect class="cls-4" x="93.11" y="65.99" width="1.1" height="1.1" rx=".55" ry=".55" transform="translate(-16.27 33.15) rotate(-18.5)"/><path class="cls-2" d="M94.47,65.75c.37,0,.37-.58,0-.58s-.37,.58,0,.58h0Z"/><circle class="cls-4" cx="87.03" cy="72.01" r="3.26"/></g><g><rect class="cls-4" x="122.32" y="169.26" width="24.44" height="13.26" rx="2.9" ry="2.9" transform="translate(34.77 -21.81) rotate(10.63)"/><circle class="cls-4" cx="134.57" cy="175.74" r="3.66"/><rect class="cls-4" x="142.53" y="167.27" width="3.69" height="3.69" transform="translate(33.69 -23.74) rotate(10.63)"/><rect class="cls-4" x="140.14" y="168.97" width="1.85" height="1.39" transform="translate(33.73 -23.12) rotate(10.63)"/><line class="cls-4" x1="121.8" y1="178.38" x2="145.47" y2="182.82"/><line class="cls-4" x1="123.82" y1="168.69" x2="147.15" y2="173.07"/><rect class="cls-4" x="142.45" y="173.61" width="1.1" height="1.1" rx=".55" ry=".55" transform="translate(34.59 -23.4) rotate(10.63)"/><path class="cls-2" d="M144.22,173.9c.37,0,.37-.58,0-.58s-.37,.58,0,.58h0Z"/><circle class="cls-4" cx="134.55" cy="175.71" r="3.26"/></g><g><rect class="cls-4" x="138.6" y="16.46" width="24.44" height="13.26" rx="2.9" ry="2.9" transform="translate(15.48 -47.36) rotate(18.8)"/><circle class="cls-4" cx="150.87" cy="22.94" r="3.66"/><rect class="cls-4" x="159.67" y="15.94" width="3.69" height="3.69" transform="translate(14.34 -51.09) rotate(18.8)"/><rect class="cls-4" x="157.24" y="17.16" width="1.85" height="1.39" transform="translate(14.19 -50.01) rotate(18.8)"/><line class="cls-4" x1="137.86" y1="23.74" x2="160.66" y2="31.5"/><line class="cls-4" x1="141.23" y1="14.44" x2="163.7" y2="22.09"/><rect class="cls-4" x="158.89" y="22.03" width="1.1" height="1.1" rx=".55" ry=".55" transform="translate(15.78 -50.17) rotate(18.8)"/><path class="cls-2" d="M160.73,22.5c.37,0,.37-.58,0-.58s-.37,.58,0,.58h0Z"/><circle class="cls-4" cx="150.86" cy="22.91" r="3.26"/></g><g><rect class="cls-4" x="164.6" y="107.5" width="24.44" height="13.26" rx="2.9" ry="2.9" transform="translate(5.04 -7.45) rotate(2.45)"/><circle class="cls-4" cx="176.83" cy="113.97" r="3.66"/><rect class="cls-4" x="183.75" y="104.17" width="3.69" height="3.69" transform="translate(4.7 -7.83) rotate(2.45)"/><rect class="cls-4" x="181.47" y="106.34" width="1.85" height="1.39" transform="translate(4.74 -7.69) rotate(2.45)"/><line class="cls-4" x1="164.57" y1="118.4" x2="188.63" y2="119.43"/><line class="cls-4" x1="165.18" y1="108.52" x2="188.9" y2="109.54"/><rect class="cls-4" x="184.4" y="110.65" width="1.1" height="1.1" rx=".55" ry=".55" transform="translate(4.92 -7.8) rotate(2.45)"/><path class="cls-2" d="M186.08,110.78c.37,0,.37-.58,0-.58s-.37,.58,0,.58h0Z"/><circle class="cls-4" cx="176.8" cy="113.94" r="3.26"/></g><g><rect class="cls-4" x="227.1" y="33.75" width="24.44" height="13.26" rx="2.9" ry="2.9" transform="translate(-.45 78.01) rotate(-18.5)"/><circle class="cls-4" cx="239.27" cy="40.23" r="3.66"/><rect class="cls-4" x="242.77" y="27.83" width="3.69" height="3.69" transform="translate(3.22 79.14) rotate(-18.5)"/><rect class="cls-4" x="241.07" y="31.07" width="1.85" height="1.39" transform="translate(2.42 78.42) rotate(-18.5)"/><line class="cls-4" x1="229.4" y1="48.75" x2="252.24" y2="41.11"/><line class="cls-4" x1="226.45" y1="39.31" x2="248.96" y2="31.78"/><rect class="cls-4" x="245.32" y="34.19" width="1.1" height="1.1" rx=".55" ry=".55" transform="translate(1.68 79.8) rotate(-18.5)"/><path class="cls-2" d="M246.67,33.96c.37,0,.37-.58,0-.58s-.37,.58,0,.58h0Z"/><circle class="cls-4" cx="239.24" cy="40.22" r="3.26"/></g><g><rect class="cls-4" x="252.03" y="152.55" width="24.44" height="13.26" rx="2.9" ry="2.9" transform="translate(-36.85 92.06) rotate(-18.5)"/><circle class="cls-4" cx="264.2" cy="159.03" r="3.66"/><rect class="cls-4" x="267.69" y="146.63" width="3.69" height="3.69" transform="translate(-33.18 93.18) rotate(-18.5)"/><rect class="cls-4" x="266" y="149.87" width="1.85" height="1.39" transform="translate(-33.98 92.46) rotate(-18.5)"/><line class="cls-4" x1="254.33" y1="167.55" x2="277.16" y2="159.91"/><line class="cls-4" x1="251.37" y1="158.11" x2="273.89" y2="150.58"/><rect class="cls-4" x="270.25" y="153" width="1.1" height="1.1" rx=".55" ry=".55" transform="translate(-34.72 93.85) rotate(-18.5)"/><path class="cls-2" d="M271.6,152.76c.37,0,.37-.58,0-.58s-.37,.58,0,.58h0Z"/><circle class="cls-4" cx="264.16" cy="159.02" r="3.26"/></g><g><rect class="cls-4" x="297.24" y="88.93" width="24.44" height="13.26" rx="2.9" ry="2.9" transform="translate(31 -69.83) rotate(13.55)"/><circle class="cls-4" cx="309.49" cy="95.4" r="3.66"/><rect class="cls-4" x="317.78" y="87.44" width="3.69" height="3.69" transform="translate(29.81 -72.39) rotate(13.55)"/><rect class="cls-4" x="315.37" y="88.98" width="1.85" height="1.39" transform="translate(29.81 -71.6) rotate(13.55)"/><line class="cls-4" x1="296.61" y1="97.39" x2="320.02" y2="103.03"/><line class="cls-4" x1="299.11" y1="87.81" x2="322.19" y2="93.38"/><rect class="cls-4" x="317.45" y="93.7" width="1.1" height="1.1" rx=".55" ry=".55" transform="translate(30.93 -71.87) rotate(13.55)"/><path class="cls-2" d="M319.25,94.06c.37,0,.37-.58,0-.58s-.37,.58,0,.58h0Z"/><circle class="cls-4" cx="309.47" cy="95.37" r="3.26"/></g><g><rect class="cls-4" x="343.07" y="12.15" width="24.44" height="13.26" rx="2.9" ry="2.9" transform="translate(1.99 60.74) rotate(-9.8)"/><circle class="cls-4" cx="355.26" cy="18.63" r="3.66"/><rect class="cls-4" x="360.29" y="7.15" width="3.69" height="3.69" transform="translate(3.75 61.76) rotate(-9.8)"/><rect class="cls-4" x="358.31" y="9.98" width="1.85" height="1.39" transform="translate(3.42 61.29) rotate(-9.8)"/><line class="cls-4" x1="344.22" y1="25.55" x2="367.95" y2="21.46"/><line class="cls-4" x1="342.73" y1="15.77" x2="366.12" y2="11.73"/><rect class="cls-4" x="362.06" y="13.65" width="1.1" height="1.1" rx=".55" ry=".55" transform="translate(2.87 61.92) rotate(-9.8)"/><path class="cls-2" d="M363.57,13.55c.37,0,.37-.58,0-.58s-.37,.58,0,.58h0Z"/><circle class="cls-4" cx="355.23" cy="18.61" r="3.26"/></g><g><rect class="cls-4" x="368.75" y="126.18" width="24.44" height="13.26" rx="2.9" ry="2.9" transform="translate(91.43 -148.16) rotate(24.92)"/><circle class="cls-4" cx="381.04" cy="132.67" r="3.66"/><rect class="cls-4" x="390.33" y="126.83" width="3.69" height="3.69" transform="translate(90.73 -153.27) rotate(24.92)"/><rect class="cls-4" x="387.91" y="127.7" width="1.85" height="1.39" transform="translate(90.3 -151.89) rotate(24.92)"/><line class="cls-4" x1="368.02" y1="132.07" x2="389.86" y2="142.22"/><line class="cls-4" x1="372.36" y1="123.18" x2="393.89" y2="133.19"/><rect class="cls-4" x="389.05" y="132.67" width="1.1" height="1.1" rx=".55" ry=".55" transform="translate(92.41 -151.76) rotate(24.92)"/><path class="cls-2" d="M390.92,133.28c.37,0,.37-.58,0-.58s-.37,.58,0,.58h0Z"/><circle class="cls-4" cx="381.03" cy="132.64" r="3.26"/></g><g><rect class="cls-4" x="435.34" y="47.66" width="24.44" height="13.26" rx="2.9" ry="2.9" transform="translate(5.9 144.8) rotate(-18.5)"/><circle class="cls-4" cx="447.51" cy="54.14" r="3.66"/><rect class="cls-4" x="451" y="41.74" width="3.69" height="3.69" transform="translate(9.57 145.92) rotate(-18.5)"/><rect class="cls-4" x="449.3" y="44.98" width="1.85" height="1.39" transform="translate(8.77 145.2) rotate(-18.5)"/><line class="cls-4" x1="437.64" y1="62.66" x2="460.47" y2="55.02"/><line class="cls-4" x1="434.68" y1="53.22" x2="457.19" y2="45.68"/><rect class="cls-4" x="453.55" y="48.1" width="1.1" height="1.1" rx=".55" ry=".55" transform="translate(8.02 146.58) rotate(-18.5)"/><path class="cls-2" d="M454.9,47.87c.37,0,.37-.58,0-.58s-.37,.58,0,.58h0Z"/><circle class="cls-4" cx="447.47" cy="54.13" r="3.26"/></g><g><rect class="cls-4" x="460.26" y="166.46" width="24.44" height="13.26" rx="2.9" ry="2.9" transform="translate(-30.51 158.84) rotate(-18.5)"/><circle class="cls-4" cx="472.43" cy="172.94" r="3.66"/><rect class="cls-4" x="475.93" y="160.54" width="3.69" height="3.69" transform="translate(-26.84 159.97) rotate(-18.5)"/><rect class="cls-4" x="474.23" y="163.78" width="1.85" height="1.39" transform="translate(-27.63 159.24) rotate(-18.5)"/><line class="cls-4" x1="462.57" y1="181.46" x2="485.4" y2="173.82"/><line class="cls-4" x1="459.61" y1="172.02" x2="482.12" y2="164.49"/><rect class="cls-4" x="478.48" y="166.9" width="1.1" height="1.1" rx=".55" ry=".55" transform="translate(-28.38 160.63) rotate(-18.5)"/><path class="cls-2" d="M479.83,166.67c.37,0,.37-.58,0-.58s-.37,.58,0,.58h0Z"/><circle class="cls-4" cx="472.4" cy="172.93" r="3.26"/></g><g><rect class="cls-4" x="488.93" y="92.37" width="24.44" height="13.26" rx="2.9" ry="2.9" transform="translate(37.14 -114.64) rotate(13.55)"/><circle class="cls-4" cx="501.19" cy="98.85" r="3.66"/><rect class="cls-4" x="509.48" y="90.89" width="3.69" height="3.69" transform="translate(35.95 -117.2) rotate(13.55)"/><rect class="cls-4" x="507.07" y="92.43" width="1.85" height="1.39" transform="translate(35.95 -116.41) rotate(13.55)"/><line class="cls-4" x1="488.31" y1="100.84" x2="511.72" y2="106.48"/><line class="cls-4" x1="490.81" y1="91.26" x2="513.89" y2="96.82"/><rect class="cls-4" x="509.14" y="97.15" width="1.1" height="1.1" rx=".55" ry=".55" transform="translate(37.07 -116.68) rotate(13.55)"/><path class="cls-2" d="M510.94,97.5c.37,0,.37-.58,0-.58s-.37,.58,0,.58h0Z"/><circle class="cls-4" cx="501.17" cy="98.82" r="3.26"/></g><g><rect class="cls-4" x="551.3" y="26.06" width="24.44" height="13.26" rx="2.9" ry="2.9" transform="translate(2.66 96.38) rotate(-9.8)"/><circle class="cls-4" cx="563.5" cy="32.54" r="3.66"/><rect class="cls-4" x="568.53" y="21.06" width="3.69" height="3.69" transform="translate(4.42 97.4) rotate(-9.8)"/><rect class="cls-4" x="566.55" y="23.88" width="1.85" height="1.39" transform="translate(4.1 96.93) rotate(-9.8)"/><line class="cls-4" x1="552.46" y1="39.46" x2="576.18" y2="35.36"/><line class="cls-4" x1="550.96" y1="29.68" x2="574.35" y2="25.64"/><rect class="cls-4" x="570.3" y="27.56" width="1.1" height="1.1" rx=".55" ry=".55" transform="translate(3.54 97.56) rotate(-9.8)"/><path class="cls-2" d="M571.8,27.46c.37,0,.37-.58,0-.58s-.37,.58,0,.58h0Z"/><circle class="cls-4" cx="563.47" cy="32.51" r="3.26"/></g><g><rect class="cls-4" x="576.99" y="140.09" width="24.44" height="13.26" rx="2.9" ry="2.9" transform="translate(116.68 -234.61) rotate(24.92)"/><circle class="cls-4" cx="589.28" cy="146.58" r="3.66"/><rect class="cls-4" x="598.57" y="140.74" width="3.69" height="3.69" transform="translate(115.98 -239.72) rotate(24.92)"/><rect class="cls-4" x="596.15" y="141.61" width="1.85" height="1.39" transform="translate(115.55 -238.33) rotate(24.92)"/><line class="cls-4" x1="576.25" y1="145.98" x2="598.09" y2="156.13"/><line class="cls-4" x1="580.6" y1="137.09" x2="602.13" y2="147.1"/><rect class="cls-4" x="597.29" y="146.58" width="1.1" height="1.1" rx=".55" ry=".55" transform="translate(117.66 -238.21) rotate(24.92)"/><path class="cls-2" d="M599.16,147.19c.37,0,.37-.58,0-.58s-.37,.58,0,.58h0Z"/><circle class="cls-4" cx="589.26" cy="146.54" r="3.26"/></g><g><rect class="cls-4" x="631.28" y="79.88" width="24.44" height="13.26" rx="2.9" ry="2.9" transform="translate(5.8 208.63) rotate(-18.5)"/><circle class="cls-4" cx="643.45" cy="86.36" r="3.66"/><rect class="cls-4" x="646.95" y="73.96" width="3.69" height="3.69" transform="translate(9.47 209.75) rotate(-18.5)"/><rect class="cls-4" x="645.25" y="77.2" width="1.85" height="1.39" transform="translate(8.67 209.03) rotate(-18.5)"/><line class="cls-4" x1="633.59" y1="94.88" x2="656.42" y2="87.24"/><line class="cls-4" x1="630.63" y1="85.44" x2="653.14" y2="77.9"/><rect class="cls-4" x="649.5" y="80.32" width="1.1" height="1.1" rx=".55" ry=".55" transform="translate(7.92 210.41) rotate(-18.5)"/><path class="cls-2" d="M650.85,80.09c.37,0,.37-.58,0-.58s-.37,.58,0,.58h0Z"/><circle class="cls-4" cx="643.42" cy="86.35" r="3.26"/></g><g><rect class="cls-4" x="684.88" y="124.59" width="24.44" height="13.26" rx="2.9" ry="2.9" transform="translate(50.14 -159.65) rotate(13.55)"/><circle class="cls-4" cx="697.14" cy="131.07" r="3.66"/><rect class="cls-4" x="705.42" y="123.11" width="3.69" height="3.69" transform="translate(48.95 -162.21) rotate(13.55)"/><rect class="cls-4" x="703.01" y="124.65" width="1.85" height="1.39" transform="translate(48.95 -161.41) rotate(13.55)"/><line class="cls-4" x1="684.25" y1="133.06" x2="707.66" y2="138.7"/><line class="cls-4" x1="686.76" y1="123.48" x2="709.84" y2="129.04"/><rect class="cls-4" x="705.09" y="129.37" width="1.1" height="1.1" rx=".55" ry=".55" transform="translate(50.07 -161.69) rotate(13.55)"/><path class="cls-2" d="M706.89,129.72c.37,0,.37-.58,0-.58s-.37,.58,0,.58h0Z"/><circle class="cls-4" cx="697.12" cy="131.04" r="3.26"/></g><g><rect class="cls-4" x="747.25" y="58.28" width="24.44" height="13.26" rx="2.9" ry="2.9" transform="translate(.03 130.2) rotate(-9.8)"/><circle class="cls-4" cx="759.44" cy="64.76" r="3.66"/><rect class="cls-4" x="764.48" y="53.28" width="3.69" height="3.69" transform="translate(1.8 131.22) rotate(-9.8)"/><rect class="cls-4" x="762.49" y="56.1" width="1.85" height="1.39" transform="translate(1.47 130.75) rotate(-9.8)"/><line class="cls-4" x1="748.4" y1="71.68" x2="772.13" y2="67.58"/><line class="cls-4" x1="746.91" y1="61.9" x2="770.3" y2="57.86"/><rect class="cls-4" x="766.25" y="59.78" width="1.1" height="1.1" rx=".55" ry=".55" transform="translate(.92 131.38) rotate(-9.8)"/><path class="cls-2" d="M767.75,59.68c.37,0,.37-.58,0-.58s-.37,.58,0,.58h0Z"/><circle class="cls-4" cx="759.41" cy="64.73" r="3.26"/></g><g><rect class="cls-4" x="772.94" y="172.31" width="24.44" height="13.26" rx="2.9" ry="2.9" transform="translate(148.5 -314.17) rotate(24.92)"/><circle class="cls-4" cx="785.22" cy="178.8" r="3.66"/><rect class="cls-4" x="794.51" y="172.96" width="3.69" height="3.69" transform="translate(147.8 -319.28) rotate(24.92)"/><rect class="cls-4" x="792.09" y="173.83" width="1.85" height="1.39" transform="translate(147.37 -317.9) rotate(24.92)"/><line class="cls-4" x1="772.2" y1="178.2" x2="794.04" y2="188.35"/><line class="cls-4" x1="776.54" y1="169.31" x2="798.07" y2="179.31"/><rect class="cls-4" x="793.23" y="178.8" width="1.1" height="1.1" rx=".55" ry=".55" transform="translate(149.48 -317.77) rotate(24.92)"/><path class="cls-2" d="M795.1,179.41c.37,0,.37-.58,0-.58s-.37,.58,0,.58h0Z"/><circle class="cls-4" cx="785.21" cy="178.76" r="3.26"/></g><g><rect class="cls-4" x="678.61" y="27.31" width="24.44" height="13.26" rx="2.9" ry="2.9" transform="translate(24.92 220.93) rotate(-18.5)"/><circle class="cls-4" cx="690.78" cy="33.79" r="3.66"/><rect class="cls-4" x="694.27" y="21.39" width="3.69" height="3.69" transform="translate(28.59 222.05) rotate(-18.5)"/><rect class="cls-4" x="692.58" y="24.63" width="1.85" height="1.39" transform="translate(27.79 221.33) rotate(-18.5)"/><line class="cls-4" x1="680.91" y1="42.31" x2="703.75" y2="34.67"/><line class="cls-4" x1="677.95" y1="32.87" x2="700.47" y2="25.33"/><rect class="cls-4" x="696.83" y="27.75" width="1.1" height="1.1" rx=".55" ry=".55" transform="translate(27.05 222.71) rotate(-18.5)"/><path class="cls-2" d="M698.18,27.52c.37,0,.37-.58,0-.58s-.37,.58,0,.58h0Z"/><circle class="cls-4" cx="690.75" cy="33.78" r="3.26"/></g><g><rect class="cls-4" x="794.58" y="5.71" width="24.44" height="13.26" rx="2.9" ry="2.9" transform="translate(9.67 137.48) rotate(-9.8)"/><circle class="cls-4" cx="806.77" cy="12.19" r="3.66"/><rect class="cls-4" x="811.8" y=".71" width="3.69" height="3.69" transform="translate(11.43 138.51) rotate(-9.8)"/><rect class="cls-4" x="809.82" y="3.53" width="1.85" height="1.39" transform="translate(11.11 138.04) rotate(-9.8)"/><line class="cls-4" x1="795.73" y1="19.11" x2="819.46" y2="15.01"/><line class="cls-4" x1="794.23" y1="9.33" x2="817.63" y2="5.29"/><rect class="cls-4" x="813.57" y="7.21" width="1.1" height="1.1" rx=".55" ry=".55" transform="translate(10.56 138.66) rotate(-9.8)"/><path class="cls-2" d="M815.08,7.11c.37,0,.37-.58,0-.58s-.37,.58,0,.58h0Z"/><circle class="cls-4" cx="806.74" cy="12.16" r="3.26"/></g><g><rect class="cls-4" x="820.26" y="119.74" width="24.44" height="13.26" rx="2.9" ry="2.9" transform="translate(130.76 -339.01) rotate(24.92)"/><circle class="cls-4" cx="832.55" cy="126.23" r="3.66"/><rect class="cls-4" x="841.84" y="120.39" width="3.69" height="3.69" transform="translate(130.06 -344.12) rotate(24.92)"/><rect class="cls-4" x="839.42" y="121.26" width="1.85" height="1.39" transform="translate(129.63 -342.73) rotate(24.92)"/><line class="cls-4" x1="819.53" y1="125.63" x2="841.36" y2="135.78"/><line class="cls-4" x1="823.87" y1="116.74" x2="845.4" y2="126.74"/><rect class="cls-4" x="840.56" y="126.23" width="1.1" height="1.1" rx=".55" ry=".55" transform="translate(131.73 -342.61) rotate(24.92)"/><path class="cls-2" d="M842.43,126.84c.37,0,.37-.58,0-.58s-.37,.58,0,.58h0Z"/><circle class="cls-4" cx="832.54" cy="126.19" r="3.26"/></g><g class="cls-3"><path class="cls-2" d="M185.36,66.59l.91,7.58c.02,.16,.13,.24,.28,.22,3.57-.6,7.09-1.42,10.55-2.48,.11-.03,.2-.16,.16-.28l-1.76-4.31-.86-2.1c-.16-.39-.29-1.05-.7-1.26-.46-.23-1.18,.04-1.63,.17-.67,.19-1.33,.44-1.98,.68-1.47,.53-2.97,.91-4.52,1.1-.28,.03-.29,.48,0,.45,1.23-.15,2.45-.4,3.64-.77s2.42-.96,3.7-1.19c.23-.04,.37-.09,.58,.03,.23,.14,.27,.36,.37,.6,.13,.31,.26,.63,.39,.95l.77,1.89,1.59,3.89,.16-.28c-3.46,1.06-6.98,1.89-10.55,2.48l.28,.22-.91-7.58c-.03-.28-.48-.29-.45,0h0Z"/><path class="cls-2" d="M186.65,70.88l8.49-2.43c.28-.08,.16-.51-.12-.43l-8.49,2.43c-.28,.08-.16,.51,.12,.43h0Z"/><path class="cls-2" d="M188.37,68.7c-1.39-1.42-1.86-3.4-2.28-5.28s-.77-4.87,1.59-5.61c2.12-.66,3.79,1.35,4.43,3.11,.76,2.08,1.13,4.48,.79,6.68l.33-.13c-.84-.6-1.15-1.75-.73-2.69l-.31,.08c.42,.31,.28,1.02,.32,1.47,.03,.38,.13,.71,.4,.98,.07,.07,.18,.08,.27,.04,.72-.38,.42-1.46,.28-2.09-.24-1.07-.68-2.08-1.27-3-.16-.24-.55-.02-.39,.23,.44,.67,.79,1.39,1.03,2.16,.14,.46,.7,2,.12,2.31l.27,.04c-.68-.68,.05-1.87-.81-2.52-.09-.07-.26-.02-.31,.08-.53,1.19-.16,2.55,.9,3.31,.11,.08,.31,0,.33-.13,.31-2.03,.03-4.11-.53-6.08-.45-1.6-1.24-3.26-2.82-4.01-1.37-.65-2.97-.44-3.9,.82-1.12,1.52-.79,3.48-.4,5.18,.43,1.93,.94,3.93,2.37,5.38,.2,.21,.52-.11,.32-.32h0Z"/><path class="cls-2" d="M192.62,64.55c0-1.89,.14-3.96-.78-5.69-.71-1.32-2.12-2.46-3.68-2.31-1.46,.13-2.55,1.36-2.93,2.71-.52,1.84,.26,3.76,1.2,5.32,.58,.97,1.26,1.89,1.84,2.87,.12,.21,.35,.5,.41,.75l.07,.21-.28-.04c-.12-.09-.21-.49-.27-.62l-.77-1.83-.38,.22c.59,.73,1.02,1.55,1.3,2.44l.38-.22c-1.2-1.27-1.85-3.05-2.62-4.59-.43-.87-.84-1.73-.89-2.72-.03-.49,.02-.98,.08-1.46,.04-.33,.06-1.39,.51-1.5,.28-.07,.16-.5-.12-.43-.77,.19-.76,1.28-.84,1.91-.15,1.17-.1,2.27,.36,3.36s1.01,2.08,1.52,3.11c.47,.94,.95,1.87,1.67,2.65,.15,.16,.44,0,.38-.22-.31-.97-.78-1.85-1.41-2.64-.14-.17-.46,.01-.38,.22l.64,1.51c.16,.39,.28,.85,.54,1.19s.8,.5,1,0c.24-.61-.5-1.49-.79-1.96-.53-.84-1.11-1.65-1.61-2.51-1.01-1.7-1.81-3.89-.74-5.75s3.19-1.93,4.63-.5c1.71,1.71,1.53,4.31,1.52,6.54,0,.29,.45,.29,.45,0h0Z"/></g><g class="cls-3"><path class="cls-2" d="M111.96,111.24l-4.67,6.04c-.09,.12-.08,.26,.05,.35,2.96,2.08,6.05,3.96,9.26,5.63,.14,.07,.27,0,.33-.13l1.83-4.46,.87-2.12c.19-.47,.51-.98,.13-1.43s-1-.71-1.49-.96c-.62-.32-1.27-.59-1.9-.89-1.3-.61-2.52-1.37-3.66-2.25-.23-.18-.45,.21-.23,.39,1,.77,2.06,1.45,3.18,2.02s2.26,.97,3.28,1.64c.11,.07,.38,.2,.43,.31,.11,.23,0,.5-.05,.72-.1,.34-.28,.68-.41,1l-.78,1.9-1.65,4.01,.33-.13c-3.21-1.67-6.3-3.55-9.26-5.63l.05,.35,4.67-6.04c.18-.23-.14-.55-.32-.32h0Z"/><path class="cls-2" d="M109.86,115.2l7.76,4.22c.25,.14,.48-.25,.23-.39l-7.76-4.22c-.25-.14-.48,.25-.23,.39h0Z"/><path class="cls-2" d="M112.63,114.86c0-2.16,1.24-4.09,2.38-5.83,1.04-1.59,3.24-3.76,5.2-2.12,1.65,1.38,1.2,3.74,.35,5.42-.94,1.87-2.24,3.67-3.93,4.93l.33,.13c-.17-1.02,.41-2.05,1.37-2.43l-.28-.16c.08,.5-.49,.9-.78,1.24-.25,.3-.43,.61-.42,1.01,0,.1,.07,.19,.17,.22,.85,.21,1.41-.84,1.77-1.45,.53-.88,.89-1.85,1.1-2.86,.06-.28-.38-.4-.43-.12-.16,.75-.39,1.48-.74,2.17-.24,.48-.92,1.98-1.58,1.82l.17,.22c-.02-.96,1.35-1.3,1.19-2.37-.02-.11-.17-.2-.28-.16-1.21,.48-1.9,1.71-1.68,2.99,.02,.13,.22,.22,.33,.13,1.52-1.13,2.67-2.63,3.63-4.25,.87-1.46,1.63-3.21,1.17-4.94-.39-1.46-1.6-2.66-3.19-2.54-1.82,.14-3.04,1.61-3.95,3.04-1.14,1.78-2.33,3.71-2.34,5.9,0,.29,.45,.29,.45,0h0Z"/><path class="cls-2" d="M118.56,114.88c1.29-1.3,2.77-2.63,3.38-4.42,.47-1.37,.35-3.11-.7-4.19-1.15-1.2-3.05-1.1-4.39-.26-1.56,.97-2.31,2.81-2.72,4.52-.29,1.21-.46,2.44-.78,3.64-.02,.08-.23,.97-.45,.81-.14-.1,.22-.83,.25-.9l.77-1.93-.44-.06c-.09,.93-.36,1.82-.79,2.65l.42,.11c.02-.98,.31-1.91,.61-2.83s.58-1.81,.89-2.71,.68-1.69,1.34-2.36c.27-.27,.55-.51,.85-.74,.28-.22,1.03-.96,1.43-.72,.25,.15,.48-.24,.23-.39-.72-.43-1.58,.47-2.1,.9-.8,.64-1.45,1.38-1.86,2.33-.43,1.01-.72,2.08-1.06,3.12-.36,1.11-.75,2.23-.78,3.41,0,.22,.32,.31,.42,.11,.46-.91,.75-1.86,.85-2.88,.03-.27-.36-.28-.44-.06l-.62,1.56c-.16,.4-.45,.89-.42,1.34,.04,.54,.61,.71,.96,.31,.24-.28,.31-.71,.4-1.05,.15-.57,.27-1.15,.38-1.73,.19-.98,.37-1.98,.7-2.93,.62-1.81,1.92-3.63,4-3.72,1.96-.08,3,1.68,2.85,3.46-.19,2.21-2.02,3.81-3.49,5.28-.2,.21,.11,.52,.32,.32h0Z"/></g><g class="cls-3"><path class="cls-2" d="M69.42,33.57l3.21,6.92c.05,.11,.21,.13,.31,.08,3.21-1.67,6.3-3.55,9.26-5.63,.13-.09,.14-.24,.05-.35l-3.14-3.7-1.53-1.8c-.28-.33-.56-.78-1.05-.72-.54,.07-1.11,.54-1.54,.84-.5,.35-.98,.74-1.46,1.12-1.23,.96-2.55,1.78-3.97,2.44-.26,.12-.03,.51,.23,.39,1.17-.54,2.29-1.19,3.33-1.95,.99-.72,1.9-1.56,2.98-2.16,.34-.19,.66-.22,.92,.09,.24,.28,.48,.57,.72,.85l1.37,1.61,2.82,3.32,.05-.35c-2.96,2.08-6.05,3.96-9.26,5.63l.31,.08-3.21-6.92c-.12-.26-.51-.03-.39,.23h0Z"/><path class="cls-2" d="M71.94,37.21l7.32-4.94c.24-.16,.01-.55-.23-.39l-7.32,4.94c-.24,.16-.01,.55,.23,.39h0Z"/><path class="cls-2" d="M72.92,34.6c-1.43-.74-2.39-2.02-3.23-3.36s-1.92-2.93-1.86-4.62c.06-1.78,1.52-2.88,3.26-2.59,1.61,.27,2.74,1.58,3.59,2.88,1.05,1.61,1.9,3.37,2.21,5.28l.28-.28c-1.02-.33-1.65-1.33-1.54-2.39l-.28,.22c.48,.16,.58,.82,.74,1.23,.15,.37,.34,.69,.7,.87,.09,.04,.2,.04,.27-.04,.59-.61-.07-1.59-.41-2.16-.55-.91-1.26-1.71-2.08-2.37-.22-.18-.54,.14-.32,.32,.61,.5,1.17,1.06,1.63,1.71,.28,.38,1.31,1.73,.87,2.19l.27-.04c-.86-.42-.54-1.81-1.55-2.15-.15-.05-.27,.08-.28,.22-.13,1.26,.67,2.44,1.87,2.82,.18,.06,.3-.12,.28-.28-.31-1.94-1.19-3.75-2.26-5.39-.91-1.4-2.13-2.79-3.86-3.09-1.53-.27-3.08,.38-3.62,1.9-.64,1.8,.3,3.6,1.2,5.12,1.01,1.69,2.11,3.45,3.91,4.38,.26,.13,.48-.26,.23-.39h0Z"/><path class="cls-2" d="M75.66,29.35c-.57-1.76-1.07-3.72-2.41-5.08-1.07-1.08-2.78-1.78-4.26-1.18s-2.09,2.13-2.01,3.58c.1,1.8,1.32,3.32,2.62,4.47,.87,.78,1.83,1.45,2.7,2.22,.14,.12,.68,.48,.71,.66l-.06,.12c-.03,.16-.09,.16-.17,.01-.13-.06-.26-.3-.35-.41l-1.33-1.54-.27,.35c.79,.51,1.45,1.15,2,1.92l.31-.31c-.81-.44-1.47-1.06-2.11-1.71s-1.35-1.37-2.02-2.05-1.29-1.44-1.59-2.4c-.14-.42-.23-.86-.3-1.3-.06-.33-.34-1.17,.04-1.4,.25-.15,.02-.54-.23-.39-.69,.41-.33,1.48-.22,2.1,.2,1.05,.54,2.02,1.21,2.86,.73,.91,1.62,1.71,2.43,2.54s1.56,1.6,2.55,2.14c.18,.1,.45-.11,.31-.31-.59-.83-1.31-1.52-2.16-2.08-.22-.15-.43,.17-.27,.35l1.05,1.22c.29,.33,.58,.8,.97,1.01,.51,.28,1.02-.12,.78-.68-.15-.37-.54-.65-.82-.9-.39-.35-.79-.67-1.19-.99-.77-.61-1.55-1.21-2.24-1.91-1.3-1.32-2.34-3.13-1.72-5.02s2.7-2.34,4.35-1.4c2,1.15,2.6,3.58,3.26,5.62,.09,.27,.52,.16,.43-.12h0Z"/></g><g class="cls-3"><path class="cls-2" d="M26.16,95.87l3.21,6.92c.05,.11,.21,.13,.31,.08,3.21-1.67,6.3-3.55,9.26-5.63,.13-.09,.14-.24,.05-.35l-3.14-3.7-1.53-1.8c-.28-.33-.56-.78-1.05-.72-.54,.07-1.11,.54-1.54,.84-.5,.35-.98,.74-1.46,1.12-1.23,.96-2.55,1.78-3.97,2.44-.26,.12-.03,.51,.23,.39,1.17-.54,2.29-1.19,3.33-1.95,.99-.72,1.9-1.56,2.98-2.16,.34-.19,.66-.22,.92,.09,.24,.28,.48,.57,.72,.85l1.37,1.61,2.82,3.32,.05-.35c-2.96,2.08-6.05,3.96-9.26,5.63l.31,.08-3.21-6.92c-.12-.26-.51-.03-.39,.23h0Z"/><path class="cls-2" d="M28.68,99.52l7.32-4.94c.24-.16,.01-.55-.23-.39l-7.32,4.94c-.24,.16-.01,.55,.23,.39h0Z"/><path class="cls-2" d="M29.67,96.91c-1.43-.74-2.39-2.02-3.23-3.36s-1.92-2.93-1.86-4.62c.06-1.78,1.52-2.88,3.26-2.59,1.61,.27,2.74,1.58,3.59,2.88,1.05,1.61,1.9,3.37,2.21,5.28l.28-.28c-1.02-.33-1.65-1.33-1.54-2.39l-.28,.22c.48,.16,.58,.82,.74,1.23,.15,.37,.34,.69,.7,.87,.09,.04,.2,.04,.27-.04,.59-.61-.07-1.59-.41-2.16-.55-.91-1.26-1.71-2.08-2.37-.22-.18-.54,.14-.32,.32,.61,.5,1.17,1.06,1.63,1.71,.28,.38,1.31,1.73,.87,2.19l.27-.04c-.86-.42-.54-1.81-1.55-2.15-.15-.05-.27,.08-.28,.22-.13,1.26,.67,2.44,1.87,2.82,.18,.06,.3-.12,.28-.28-.31-1.94-1.19-3.75-2.26-5.39-.91-1.4-2.13-2.79-3.86-3.09-1.53-.27-3.08,.38-3.62,1.9-.64,1.8,.3,3.6,1.2,5.12,1.01,1.69,2.11,3.45,3.91,4.38,.26,.13,.48-.26,.23-.39h0Z"/><path class="cls-2" d="M32.41,91.66c-.57-1.76-1.07-3.72-2.41-5.08-1.07-1.08-2.78-1.78-4.26-1.18s-2.09,2.13-2.01,3.58c.1,1.8,1.32,3.32,2.62,4.47,.87,.78,1.83,1.45,2.7,2.22,.14,.12,.68,.48,.71,.66l-.06,.12c-.03,.16-.09,.16-.17,.01-.13-.06-.26-.3-.35-.41l-1.33-1.54-.27,.35c.79,.51,1.45,1.15,2,1.92l.31-.31c-.81-.44-1.47-1.06-2.11-1.71s-1.35-1.37-2.02-2.05-1.29-1.44-1.59-2.4c-.14-.42-.23-.86-.3-1.3-.06-.33-.34-1.17,.04-1.4,.25-.15,.02-.54-.23-.39-.69,.41-.33,1.48-.22,2.1,.2,1.05,.54,2.02,1.21,2.86,.73,.91,1.62,1.71,2.43,2.54s1.56,1.6,2.55,2.14c.18,.1,.45-.11,.31-.31-.59-.83-1.31-1.52-2.16-2.08-.22-.15-.43,.17-.27,.35l1.05,1.22c.29,.33,.58,.8,.97,1.01,.51,.28,1.02-.12,.78-.68-.15-.37-.54-.65-.82-.9-.39-.35-.79-.67-1.19-.99-.77-.61-1.55-1.21-2.24-1.91-1.3-1.32-2.34-3.13-1.72-5.02s2.7-2.34,4.35-1.4c2,1.15,2.6,3.58,3.26,5.62,.09,.27,.52,.16,.43-.12h0Z"/></g><g class="cls-3"><path class="cls-2" d="M193.35,152.49l-4.67,6.04c-.09,.12-.08,.26,.05,.35,2.96,2.08,6.05,3.96,9.26,5.63,.14,.07,.27,0,.33-.13l1.83-4.46,.87-2.12c.19-.47,.51-.98,.13-1.43s-1-.71-1.49-.96c-.62-.32-1.27-.59-1.9-.89-1.3-.61-2.52-1.37-3.66-2.25-.23-.18-.45,.21-.23,.39,1,.77,2.06,1.45,3.18,2.02s2.26,.97,3.28,1.64c.11,.07,.38,.2,.43,.31,.11,.23,0,.5-.05,.72-.1,.34-.28,.68-.41,1l-.78,1.9-1.65,4.01,.33-.13c-3.21-1.67-6.3-3.55-9.26-5.63l.05,.35,4.67-6.04c.18-.23-.14-.55-.32-.32h0Z"/><path class="cls-2" d="M191.25,156.44l7.76,4.22c.25,.14,.48-.25,.23-.39l-7.76-4.22c-.25-.14-.48,.25-.23,.39h0Z"/><path class="cls-2" d="M194.01,156.1c0-2.16,1.24-4.09,2.38-5.83,1.04-1.59,3.24-3.76,5.2-2.12,1.65,1.38,1.2,3.74,.35,5.42-.94,1.87-2.24,3.67-3.93,4.93l.33,.13c-.17-1.02,.41-2.05,1.37-2.43l-.28-.16c.08,.5-.49,.9-.78,1.24-.25,.3-.43,.61-.42,1.01,0,.1,.07,.19,.17,.22,.85,.21,1.41-.84,1.77-1.45,.53-.88,.89-1.85,1.1-2.86,.06-.28-.38-.4-.43-.12-.16,.75-.39,1.48-.74,2.17-.24,.48-.92,1.98-1.58,1.82l.17,.22c-.02-.96,1.35-1.3,1.19-2.37-.02-.11-.17-.2-.28-.16-1.21,.48-1.9,1.71-1.68,2.99,.02,.13,.22,.22,.33,.13,1.52-1.13,2.67-2.63,3.63-4.25,.87-1.46,1.63-3.21,1.17-4.94-.39-1.46-1.6-2.66-3.19-2.54-1.82,.14-3.04,1.61-3.95,3.04-1.14,1.78-2.33,3.71-2.34,5.9,0,.29,.45,.29,.45,0h0Z"/><path class="cls-2" d="M199.94,156.12c1.29-1.3,2.77-2.63,3.38-4.42,.47-1.37,.35-3.11-.7-4.19-1.15-1.2-3.05-1.1-4.39-.26-1.56,.97-2.31,2.81-2.72,4.52-.29,1.21-.46,2.44-.78,3.64-.02,.08-.23,.97-.45,.81-.14-.1,.22-.83,.25-.9l.77-1.93-.44-.06c-.09,.93-.36,1.82-.79,2.65l.42,.11c.02-.98,.31-1.91,.61-2.83s.58-1.81,.89-2.71,.68-1.69,1.34-2.36c.27-.27,.55-.51,.85-.74,.28-.22,1.03-.96,1.43-.72,.25,.15,.48-.24,.23-.39-.72-.43-1.58,.47-2.1,.9-.8,.64-1.45,1.38-1.86,2.33-.43,1.01-.72,2.08-1.06,3.12-.36,1.11-.75,2.23-.78,3.41,0,.22,.32,.31,.42,.11,.46-.91,.75-1.86,.85-2.88,.03-.27-.36-.28-.44-.06l-.62,1.56c-.16,.4-.45,.89-.42,1.34,.04,.54,.61,.71,.96,.31,.24-.28,.31-.71,.4-1.05,.15-.57,.27-1.15,.38-1.73,.19-.98,.37-1.98,.7-2.93,.62-1.81,1.92-3.63,4-3.72,1.96-.08,3,1.68,2.85,3.46-.19,2.21-2.02,3.81-3.49,5.28-.2,.21,.11,.52,.32,.32h0Z"/></g><g class="cls-3"><path class="cls-2" d="M301.49,38.47l1.97,7.38c.03,.11,.16,.19,.28,.16,3.47-1.1,6.85-2.42,10.15-3.96,.11-.05,.14-.21,.08-.31l-2.44-4.16-1.22-2.08c-.21-.37-.41-.86-.89-.9-.52-.04-1.15,.32-1.62,.53-.6,.28-1.18,.6-1.77,.91-1.35,.72-2.76,1.27-4.24,1.67-.28,.07-.16,.51,.12,.43,1.17-.31,2.3-.72,3.39-1.23,1.15-.54,2.23-1.26,3.44-1.69,.11-.04,.28-.13,.4-.13,.31,.01,.49,.22,.66,.42,.22,.26,.37,.64,.55,.94l1.03,1.77,2.19,3.75,.08-.31c-3.26,1.53-6.61,2.83-10.04,3.92l.28,.16-1.97-7.38c-.07-.28-.51-.16-.43,.12h0Z"/><path class="cls-2" d="M303.38,42.49l8.07-3.6c.26-.12,.04-.51-.23-.39l-8.07,3.6c-.26,.12-.04,.51,.23,.39h0Z"/><path class="cls-2" d="M304.74,40.09c-1.25-.95-1.97-2.38-2.55-3.8-.61-1.51-1.41-3.24-1.05-4.9s1.82-2.54,3.45-2.07,2.51,1.89,3.15,3.3c.81,1.81,1.39,3.79,1.36,5.79l.34-.19c-.94-.49-1.42-1.58-1.13-2.6l-.33,.13c.47,.25,.44,.9,.54,1.36,.09,.41,.23,.74,.57,.99,.06,.04,.17,.04,.23,0,.71-.52,.22-1.59-.03-2.23-.39-1-.95-1.9-1.65-2.71-.19-.22-.51,.1-.32,.32,.52,.6,.96,1.26,1.31,1.98,.19,.39,.95,1.89,.47,2.25h.23c-.75-.55-.19-1.85-1.11-2.35-.13-.07-.29,0-.33,.13-.34,1.21,.21,2.53,1.33,3.11,.15,.08,.34-.02,.34-.19,.03-2-.54-3.95-1.32-5.77-.67-1.56-1.67-3.13-3.36-3.7-1.5-.5-3.16,0-3.87,1.47-.83,1.73-.16,3.62,.48,5.29,.69,1.79,1.48,3.59,3.04,4.78,.23,.18,.45-.21,.23-.39h0Z"/><path class="cls-2" d="M308.37,35.37c-.26-1.88-.41-3.95-1.59-5.52-.88-1.18-2.39-2.08-3.91-1.76s-2.37,1.69-2.56,3.09c-.25,1.81,.68,3.52,1.76,4.9,.74,.95,1.59,1.8,2.35,2.74,.08,.1,.62,.65,.61,.84l-.07,.1c-.05,.14-.1,.14-.15,0-.14-.08-.23-.36-.32-.5l-1.08-1.81-.35,.27c.7,.66,1.25,1.41,1.67,2.28l.35-.27c-1.42-1.13-2.36-2.87-3.37-4.35-.53-.77-1.01-1.55-1.18-2.49-.09-.47-.11-.96-.11-1.44,0-.34-.13-1.33,.27-1.49,.27-.11,.15-.54-.12-.43-.76,.31-.6,1.36-.59,2.03,.01,1.09,.19,2.12,.73,3.08,.57,1.02,1.31,1.96,1.97,2.93,.62,.9,1.23,1.8,2.09,2.48,.2,.16,.47-.03,.35-.27-.43-.9-1.01-1.69-1.74-2.37-.18-.17-.49,.05-.35,.27l.84,1.41c.23,.39,.44,.92,.83,1.19s.87,.09,.87-.41c0-.68-.88-1.46-1.29-1.94-.72-.83-1.48-1.62-2.13-2.51-1.1-1.52-1.92-3.53-1.01-5.35s3.11-1.96,4.61-.69c1.75,1.49,1.92,3.99,2.21,6.11,.04,.29,.47,.16,.43-.12h0Z"/></g><g class="cls-3"><path class="cls-2" d="M243.08,98.75l1.31,7.52c.02,.12,.17,.18,.28,.16,3.53-.78,7-1.8,10.4-3.04,.14-.05,.2-.19,.13-.33l-2-4.23-1-2.11c-.19-.41-.36-1.07-.89-1.15s-1.24,.23-1.73,.41c-.63,.23-1.25,.51-1.87,.77-1.38,.58-2.82,1-4.3,1.26-.28,.05-.16,.48,.12,.43,1.28-.22,2.53-.56,3.74-1.03,1.13-.44,2.31-1.17,3.53-1.33,.44-.06,.63,.07,.81,.45,.15,.32,.3,.63,.45,.95l.9,1.9,1.85,3.91,.13-.33c-3.4,1.24-6.87,2.25-10.4,3.04l.28,.16-1.31-7.52c-.05-.28-.48-.16-.43,.12h0Z"/><path class="cls-2" d="M244.57,102.92l8.35-2.88c.27-.09,.16-.53-.12-.43l-8.35,2.88c-.27,.09-.16,.53,.12,.43h0Z"/><path class="cls-2" d="M246.2,100.66c-1.17-1.07-1.77-2.54-2.23-4.03s-1.09-3.28-.65-4.89,2.04-2.47,3.66-1.84c1.53,.59,2.34,2.13,2.84,3.6,.64,1.88,1.03,3.87,.83,5.86l.34-.19c-.9-.58-1.25-1.71-.87-2.7l-.33,.13c.44,.29,.34,.97,.41,1.43,.05,.38,.16,.72,.45,.98,.07,.07,.18,.09,.27,.04,.7-.42,.36-1.47,.18-2.1-.29-1.05-.78-2.04-1.42-2.92-.17-.23-.56,0-.39,.23,.47,.65,.86,1.35,1.14,2.1,.16,.43,.8,1.98,.26,2.31l.27,.04c-.72-.64-.05-1.88-.95-2.48-.13-.09-.28,0-.33,.13-.45,1.18,.02,2.53,1.08,3.21,.16,.1,.32-.04,.34-.19,.2-2.02-.2-4.07-.85-5.98-.53-1.56-1.39-3.15-2.98-3.84-1.41-.61-3.03-.33-3.91,.99-1.04,1.57-.61,3.52-.14,5.2,.53,1.9,1.15,3.88,2.65,5.25,.21,.2,.53-.12,.32-.32h0Z"/><path class="cls-2" d="M250.2,96.3c-.09-1.88-.06-3.97-1.08-5.64-.77-1.26-2.2-2.32-3.74-2.13s-2.62,1.57-2.88,3.03c-.33,1.82,.51,3.61,1.51,5.09,.68,1,1.45,1.93,2.1,2.94,.06,.1,.48,.69,.42,.75-.24,.25-.49-.43-.55-.56l-.92-1.89-.35,.27c.63,.7,1.1,1.49,1.43,2.37l.38-.22c-1.29-1.23-2.05-3.01-2.92-4.54-.47-.83-.9-1.65-.99-2.62-.04-.43-.03-.86,0-1.29,.02-.36-.02-1.52,.43-1.66,.28-.08,.16-.52-.12-.43-.77,.23-.7,1.34-.75,1.99-.08,1.09,0,2.13,.46,3.13,.48,1.07,1.13,2.07,1.7,3.09,.54,.95,1.07,1.9,1.87,2.65,.15,.14,.46,0,.38-.22-.36-.95-.87-1.81-1.55-2.57-.18-.2-.46,.05-.35,.27l.71,1.47c.18,.38,.33,.84,.61,1.15,.31,.33,.89,.38,.99-.16,.13-.66-.69-1.52-1.03-2-.6-.83-1.24-1.64-1.79-2.5-1.03-1.61-1.81-3.69-.85-5.52s3.14-2,4.62-.63c1.75,1.62,1.7,4.19,1.81,6.39,.01,.29,.46,.29,.45,0h0Z"/></g><g class="cls-3"><path class="cls-2" d="M326.93,150.53l1.31,7.52c.02,.12,.17,.18,.28,.16,3.53-.78,7-1.8,10.4-3.04,.14-.05,.2-.19,.13-.33l-2-4.23-1-2.11c-.19-.41-.36-1.07-.89-1.15s-1.24,.23-1.73,.41c-.63,.23-1.25,.51-1.87,.77-1.38,.58-2.82,1-4.3,1.26-.28,.05-.16,.48,.12,.43,1.28-.22,2.53-.56,3.74-1.03,1.13-.44,2.31-1.17,3.53-1.33,.44-.06,.63,.07,.81,.45,.15,.32,.3,.63,.45,.95l.9,1.9,1.85,3.91,.13-.33c-3.4,1.24-6.87,2.25-10.4,3.04l.28,.16-1.31-7.52c-.05-.28-.48-.16-.43,.12h0Z"/><path class="cls-2" d="M328.43,154.7l8.35-2.88c.27-.09,.16-.53-.12-.43l-8.35,2.88c-.27,.09-.16,.53,.12,.43h0Z"/><path class="cls-2" d="M330.05,152.44c-1.17-1.07-1.77-2.54-2.23-4.03s-1.09-3.28-.65-4.89,2.04-2.47,3.66-1.84c1.53,.59,2.34,2.13,2.84,3.6,.64,1.88,1.03,3.87,.83,5.86l.34-.19c-.9-.58-1.25-1.71-.87-2.7l-.33,.13c.44,.29,.34,.97,.41,1.43,.05,.38,.16,.72,.45,.98,.07,.07,.18,.09,.27,.04,.7-.42,.36-1.47,.18-2.1-.29-1.05-.78-2.04-1.42-2.92-.17-.23-.56,0-.39,.23,.47,.65,.86,1.35,1.14,2.1,.16,.43,.8,1.98,.26,2.31l.27,.04c-.72-.64-.05-1.88-.95-2.48-.13-.09-.28,0-.33,.13-.45,1.18,.02,2.53,1.08,3.21,.16,.1,.32-.04,.34-.19,.2-2.02-.2-4.07-.85-5.98-.53-1.56-1.39-3.15-2.98-3.84-1.41-.61-3.03-.33-3.91,.99-1.04,1.57-.61,3.52-.14,5.2,.53,1.9,1.15,3.88,2.65,5.25,.21,.2,.53-.12,.32-.32h0Z"/><path class="cls-2" d="M334.06,148.08c-.09-1.88-.06-3.97-1.08-5.64-.77-1.26-2.2-2.32-3.74-2.13s-2.62,1.57-2.88,3.03c-.33,1.82,.51,3.61,1.51,5.09,.68,1,1.45,1.93,2.1,2.94,.06,.1,.48,.69,.42,.75-.24,.25-.49-.43-.55-.56l-.92-1.89-.35,.27c.63,.7,1.1,1.49,1.43,2.37l.38-.22c-1.29-1.23-2.05-3.01-2.92-4.54-.47-.83-.9-1.65-.99-2.62-.04-.43-.03-.86,0-1.29,.02-.36-.02-1.52,.43-1.66,.28-.08,.16-.52-.12-.43-.77,.23-.7,1.34-.75,1.99-.08,1.09,0,2.13,.46,3.13,.48,1.07,1.13,2.07,1.7,3.09,.54,.95,1.07,1.9,1.87,2.65,.15,.14,.46,0,.38-.22-.36-.95-.87-1.81-1.55-2.57-.18-.2-.46,.05-.35,.27l.71,1.47c.18,.38,.33,.84,.61,1.15,.31,.33,.89,.38,.99-.16,.13-.66-.69-1.52-1.03-2-.6-.83-1.24-1.64-1.79-2.5-1.03-1.61-1.81-3.69-.85-5.52s3.14-2,4.62-.63c1.75,1.62,1.7,4.19,1.81,6.39,.01,.29,.46,.29,.45,0h0Z"/></g><g class="cls-3"><path class="cls-2" d="M371.37,67.68l-2.88,7.07c-.05,.12,.05,.24,.16,.28,3.41,1.21,6.89,2.19,10.43,2.94,.16,.03,.27-.07,.28-.22l.54-4.6,.27-2.3c.05-.46,.28-1.13-.12-1.49s-1.12-.46-1.6-.57c-.72-.16-1.45-.25-2.17-.37-1.45-.24-2.87-.65-4.23-1.2-.27-.11-.38,.33-.12,.43,1.17,.48,2.38,.85,3.62,1.09,.65,.13,1.31,.21,1.96,.32,.61,.1,1.44,.17,1.98,.49,.41,.24,.32,.53,.27,.96l-.12,.99-.25,2.08-.49,4.16,.28-.22c-3.54-.75-7.02-1.73-10.43-2.94l.16,.28,2.88-7.07c.11-.27-.33-.38-.43-.12h0Z"/><path class="cls-2" d="M370.43,72l8.61,1.99c.28,.07,.4-.37,.12-.43l-8.61-1.99c-.28-.07-.4,.37-.12,.43h0Z"/><path class="cls-2" d="M373,70.93c-.58-2.13,.12-4.41,.79-6.44,.56-1.72,2-4.1,4.18-3.34s2.37,3.4,1.98,5.3c-.42,2.02-1.17,4.07-2.45,5.71l.35,.05c-.44-.94-.16-2.09,.66-2.71l-.31-.08c.22,.49-.25,1.03-.44,1.46-.15,.34-.22,.67-.12,1.03,.03,.09,.12,.17,.22,.17,.82,0,1.07-1.05,1.26-1.68,.31-1.05,.42-2.15,.35-3.25-.02-.29-.47-.29-.45,0,.05,.78,.02,1.55-.13,2.32-.09,.47-.37,2.15-1.02,2.15l.22,.17c-.27-.92,.94-1.62,.51-2.6-.05-.1-.22-.15-.31-.08-1.03,.78-1.38,2.15-.82,3.33,.06,.12,.27,.16,.35,.05,1.14-1.47,1.85-3.2,2.34-4.98s.76-3.68-.23-5.26c-.79-1.26-2.26-2.02-3.72-1.48-1.59,.59-2.39,2.18-2.87,3.7-.67,2.1-1.36,4.4-.76,6.59,.08,.28,.51,.16,.43-.12h0Z"/><path class="cls-2" d="M378.72,69.36c.91-1.63,2.02-3.35,2.08-5.28,.04-1.43-.55-3.05-1.87-3.78-1.39-.76-3.08-.22-4.13,.85-1.3,1.33-1.57,3.33-1.51,5.11,.04,1.28,.22,2.55,.22,3.82,0,.07,.02,1.04-.25,.78-.12-.11,.03-.74,.04-.87l.22-2.03-.44,.06c.16,.92,.14,1.84-.05,2.76h.43c-.45-1.75-.14-3.72-.05-5.5,.05-.99,.15-1.92,.63-2.8,.2-.36,.43-.7,.67-1.04,.22-.3,.72-1.18,1.17-1.07,.28,.07,.4-.37,.12-.43-.82-.2-1.39,.87-1.79,1.43-.6,.84-1.03,1.73-1.16,2.76-.15,1.13-.14,2.3-.19,3.44s-.11,2.23,.17,3.33c.05,.21,.39,.22,.43,0,.2-1,.22-1.99,.05-3-.05-.27-.42-.17-.44,.06l-.17,1.6c-.05,.43-.17,.92-.08,1.35s.59,.76,.94,.33c.19-.23,.2-.56,.2-.84,.02-.57-.02-1.13-.06-1.7-.07-1.07-.2-2.13-.17-3.2,.05-1.97,.73-4.19,2.75-4.93,1.82-.67,3.35,.62,3.75,2.37,.51,2.23-.87,4.33-1.91,6.19-.14,.25,.25,.48,.39,.23h0Z"/></g><g class="cls-3"><path class="cls-2" d="M438.45,116.45l1.31,7.52c.02,.12,.17,.18,.28,.16,3.53-.78,7-1.8,10.4-3.04,.14-.05,.2-.19,.13-.33l-2-4.23-1-2.11c-.19-.41-.36-1.07-.89-1.15s-1.24,.23-1.73,.41c-.63,.23-1.25,.51-1.87,.77-1.38,.58-2.82,1-4.3,1.26-.28,.05-.16,.48,.12,.43,1.28-.22,2.53-.56,3.74-1.03,1.13-.44,2.31-1.17,3.53-1.33,.44-.06,.63,.07,.81,.45,.15,.32,.3,.63,.45,.95l.9,1.9,1.85,3.91,.13-.33c-3.4,1.24-6.87,2.25-10.4,3.04l.28,.16-1.31-7.52c-.05-.28-.48-.16-.43,.12h0Z"/><path class="cls-2" d="M439.95,120.62l8.35-2.88c.27-.09,.16-.53-.12-.43l-8.35,2.88c-.27,.09-.16,.53,.12,.43h0Z"/><path class="cls-2" d="M441.57,118.35c-1.17-1.07-1.77-2.54-2.23-4.03s-1.09-3.28-.65-4.89,2.04-2.47,3.66-1.84c1.53,.59,2.34,2.13,2.84,3.6,.64,1.88,1.03,3.87,.83,5.86l.34-.19c-.9-.58-1.25-1.71-.87-2.7l-.33,.13c.44,.29,.34,.97,.41,1.43,.05,.38,.16,.72,.45,.98,.07,.07,.18,.09,.27,.04,.7-.42,.36-1.47,.18-2.1-.29-1.05-.78-2.04-1.42-2.92-.17-.23-.56,0-.39,.23,.47,.65,.86,1.35,1.14,2.1,.16,.43,.8,1.98,.26,2.31l.27,.04c-.72-.64-.05-1.88-.95-2.48-.13-.09-.28,0-.33,.13-.45,1.18,.02,2.53,1.08,3.21,.16,.1,.32-.04,.34-.19,.2-2.02-.2-4.07-.85-5.98-.53-1.56-1.39-3.15-2.98-3.84-1.41-.61-3.03-.33-3.91,.99-1.04,1.57-.61,3.52-.14,5.2,.53,1.9,1.15,3.88,2.65,5.25,.21,.2,.53-.12,.32-.32h0Z"/><path class="cls-2" d="M445.58,113.99c-.09-1.88-.06-3.97-1.08-5.64-.77-1.26-2.2-2.32-3.74-2.13s-2.62,1.57-2.88,3.03c-.33,1.82,.51,3.61,1.51,5.09,.68,1,1.45,1.93,2.1,2.94,.06,.1,.48,.69,.42,.75-.24,.25-.49-.43-.55-.56l-.92-1.89-.35,.27c.63,.7,1.1,1.49,1.43,2.37l.38-.22c-1.29-1.23-2.05-3.01-2.92-4.54-.47-.83-.9-1.65-.99-2.62-.04-.43-.03-.86,0-1.29,.02-.36-.02-1.52,.43-1.66,.28-.08,.16-.52-.12-.43-.77,.23-.7,1.34-.75,1.99-.08,1.09,0,2.13,.46,3.13,.48,1.07,1.13,2.07,1.7,3.09,.54,.95,1.07,1.9,1.87,2.65,.15,.14,.46,0,.38-.22-.36-.95-.87-1.81-1.55-2.57-.18-.2-.46,.05-.35,.27l.71,1.47c.18,.38,.33,.84,.61,1.15,.31,.33,.89,.38,.99-.16,.13-.66-.69-1.52-1.03-2-.6-.83-1.24-1.64-1.79-2.5-1.03-1.61-1.81-3.69-.85-5.52s3.14-2,4.62-.63c1.75,1.62,1.7,4.19,1.81,6.39,.01,.29,.46,.29,.45,0h0Z"/></g><g class="cls-3"><path class="cls-2" d="M499.71,25.77l-4.51,6.16c-.07,.1-.01,.25,.08,.31,3.01,2,6.16,3.79,9.41,5.38,.14,.07,.28,0,.33-.13l1.71-4.51,.81-2.14c.18-.48,.49-.99,.1-1.43-.37-.42-1.02-.69-1.51-.92-.63-.3-1.28-.55-1.92-.84-1.32-.58-2.56-1.3-3.72-2.15-.23-.17-.46,.22-.23,.39,1.02,.74,2.1,1.39,3.24,1.93s2.28,.91,3.33,1.55c.41,.25,.52,.54,.42,1.01-.07,.34-.26,.69-.38,1.01l-.73,1.92-1.54,4.06,.33-.13c-3.25-1.59-6.39-3.38-9.41-5.38l.08,.31,4.51-6.16c.17-.23-.22-.46-.39-.23h0Z"/><path class="cls-2" d="M497.75,29.74l7.87,4.01c.26,.13,.49-.26,.23-.39l-7.87-4.01c-.26-.13-.49,.26-.23,.39h0Z"/><path class="cls-2" d="M500.51,29.33c-.05-2.16,1.13-4.12,2.22-5.9,.57-.92,1.24-1.85,2.21-2.37s2.08-.57,2.95,.12c1.75,1.41,1.24,3.87,.38,5.61-.91,1.83-2.12,3.58-3.73,4.85l.38,.1c-.21-1.05,.37-2.08,1.35-2.5l-.33-.13c.09,.51-.47,.92-.75,1.28-.24,.3-.41,.61-.39,1,0,.09,.07,.2,.17,.22,.85,.18,1.38-.87,1.73-1.49,.5-.9,.84-1.88,1.02-2.89,.05-.28-.38-.4-.43-.12-.14,.76-.35,1.5-.68,2.19-.22,.48-.89,2.01-1.52,1.87l.17,.22c-.04-.96,1.32-1.34,1.12-2.4-.03-.16-.21-.19-.33-.13-1.17,.5-1.8,1.77-1.56,3.01,.04,.18,.26,.19,.38,.1,1.47-1.16,2.57-2.69,3.47-4.32,.85-1.53,1.58-3.36,.99-5.11-.47-1.38-1.68-2.46-3.2-2.3-1.81,.19-2.99,1.69-3.87,3.14-1.09,1.81-2.24,3.77-2.18,5.96,0,.29,.46,.29,.45,0h0Z"/><path class="cls-2" d="M506.43,29.19c1.27-1.35,2.74-2.74,3.28-4.57,.4-1.37,.24-3.07-.83-4.11-1.18-1.16-3.06-1.03-4.37-.16-1.51,.99-2.23,2.81-2.6,4.51-.27,1.21-.4,2.45-.68,3.66-.04,.18-.12,.82-.35,.79-.2-.03-.09-.14-.05-.3s.11-.31,.17-.46l.72-1.95-.44-.06c-.07,.93-.31,1.83-.71,2.67l.42,.11c0-.98,.26-1.92,.53-2.85,.26-.88,.52-1.77,.79-2.65s.6-1.71,1.23-2.4c.27-.29,.56-.56,.87-.82,.28-.24,1.03-1.04,1.45-.8,.25,.14,.48-.25,.23-.39-.73-.41-1.55,.5-2.06,.93-.78,.66-1.42,1.41-1.81,2.37-.43,1.05-.69,2.18-1.02,3.27s-.67,2.19-.66,3.34c0,.21,.32,.32,.42,.11,.44-.92,.7-1.88,.77-2.9,.02-.27-.36-.28-.44-.06l-.58,1.58c-.15,.41-.4,.85-.39,1.29,.01,.56,.6,.8,.97,.35,.22-.27,.28-.64,.36-.97,.13-.54,.23-1.09,.32-1.64,.17-1.02,.32-2.06,.62-3.05,.55-1.83,1.77-3.72,3.86-3.91s3.11,1.56,3.01,3.37c-.13,2.22-1.92,3.86-3.34,5.38-.2,.21,.12,.53,.32,.32h0Z"/></g><g class="cls-3"><path class="cls-2" d="M564.74,81.37l2.76,7.12c.06,.15,.19,.2,.33,.13,3.31-1.46,6.52-3.13,9.6-5.01,.1-.06,.15-.21,.08-.31l-2.87-3.87-1.36-1.84c-.25-.34-.5-.85-.97-.9s-1.07,.35-1.46,.58c-.61,.35-1.18,.75-1.75,1.15-1.29,.88-2.66,1.62-4.11,2.18-.27,.1-.15,.54,.12,.43,1.19-.46,2.33-1.02,3.41-1.69s2-1.44,3.12-1.98c.45-.22,.72-.26,1.04,.17,.22,.29,.43,.58,.65,.87l1.22,1.65,2.59,3.48,.08-.31c-3.09,1.88-6.3,3.55-9.6,5.01l.33,.13-2.76-7.12c-.1-.27-.54-.15-.43,.12h0Z"/><path class="cls-2" d="M567.04,85.2l7.63-4.46c.25-.15,.02-.54-.23-.39l-7.63,4.46c-.25,.15-.02,.54,.23,.39h0Z"/><path class="cls-2" d="M568.17,82.66c-1.35-.82-2.22-2.13-2.96-3.49-.78-1.43-1.74-3.05-1.6-4.73s1.53-2.77,3.22-2.47,2.7,1.6,3.48,2.94c.99,1.71,1.79,3.6,1.98,5.58l.28-.22c-.96-.38-1.55-1.41-1.38-2.43l-.28,.16c.47,.19,.51,.88,.66,1.3,.13,.37,.3,.69,.65,.9,.09,.05,.2,.03,.27-.04,.62-.57,.01-1.6-.29-2.18-.49-.94-1.15-1.78-1.93-2.5-.21-.2-.53,.12-.32,.32,.58,.54,1.09,1.14,1.51,1.81,.26,.42,1.19,1.79,.7,2.24l.27-.04c-.83-.48-.41-1.83-1.41-2.24-.11-.04-.26,.05-.28,.16-.22,1.28,.48,2.51,1.69,2.98,.13,.05,.3-.08,.28-.22-.19-1.98-.95-3.86-1.92-5.58-.81-1.45-1.96-2.92-3.65-3.32-1.52-.36-3.13,.2-3.75,1.72-.71,1.75,.1,3.57,.89,5.14,.9,1.76,1.89,3.57,3.62,4.62,.25,.15,.47-.24,.23-.39h0Z"/><path class="cls-2" d="M571.26,77.59c-.45-1.8-.83-3.79-2.09-5.23-.99-1.14-2.65-1.93-4.16-1.44s-2.21,1.99-2.23,3.43c-.02,1.81,1.11,3.41,2.33,4.65,.86,.87,1.81,1.63,2.67,2.5,.19,.19,.4,.38,.55,.59,.23,.32,.09,.36-.16,.22-.12-.07-.29-.37-.39-.5l-1.23-1.62-.31,.31c.75,.56,1.37,1.25,1.86,2.05l.31-.31c-.78-.49-1.39-1.16-1.99-1.85-.63-.72-1.26-1.45-1.88-2.18s-1.14-1.45-1.4-2.38c-.14-.5-.21-1.02-.26-1.53-.03-.34-.23-1.1,.16-1.29,.26-.13,.03-.52-.23-.39-.73,.37-.41,1.57-.32,2.19,.14,1.08,.45,2.06,1.1,2.94,.68,.93,1.49,1.78,2.24,2.65,.71,.83,1.42,1.65,2.35,2.23,.19,.12,.43-.12,.31-.31-.54-.86-1.21-1.6-2.02-2.21-.18-.13-.44,.13-.31,.31l.97,1.28c.26,.35,.51,.79,.86,1.06s.98,.21,.95-.36c-.01-.31-.24-.55-.43-.77-.36-.41-.75-.78-1.15-1.15-.74-.68-1.51-1.33-2.19-2.07-1.32-1.41-2.42-3.34-1.72-5.3s2.75-2.33,4.38-1.31c2,1.25,2.46,3.78,2.99,5.9,.07,.28,.5,.16,.43-.12h0Z"/></g><g class="cls-3"><path class="cls-2" d="M530.79,148.48l-2.52,7.21c-.04,.12,.05,.24,.16,.28,3.47,1.03,6.99,1.84,10.56,2.41,.15,.02,.27-.06,.28-.22l.32-4.73,.15-2.31c.03-.44,.19-1.06-.21-1.39s-1.14-.4-1.65-.48c-.64-.11-1.29-.16-1.93-.23-1.54-.17-3.05-.5-4.51-1.01-.27-.1-.39,.34-.12,.43,1.23,.43,2.49,.74,3.77,.92s2.6,.18,3.82,.58c.39,.13,.42,.35,.4,.74-.02,.37-.05,.73-.07,1.1l-.14,2.09-.29,4.29,.28-.22c-3.57-.57-7.1-1.37-10.56-2.41l.16,.28,2.52-7.21c.1-.27-.34-.39-.43-.12h0Z"/><path class="cls-2" d="M530.06,152.86l8.7,1.55c.28,.05,.4-.38,.12-.43l-8.7-1.55c-.28-.05-.4,.38-.12,.43h0Z"/><path class="cls-2" d="M532.59,151.67c-.68-2.07-.12-4.3,.42-6.33,.47-1.79,1.79-4.42,4.11-3.67,2.2,.71,2.48,3.33,2.17,5.26-.33,2.03-.98,4.07-2.17,5.77h.39c-.5-.94-.26-2.1,.55-2.78l-.35-.05c.23,.46-.15,.99-.32,1.41-.15,.37-.23,.73-.1,1.11,.03,.09,.11,.17,.22,.17,.82-.05,1.02-1.08,1.18-1.73,.26-1.07,.31-2.17,.19-3.26-.03-.28-.48-.29-.45,0,.09,.75,.1,1.5,0,2.25-.06,.46-.26,2.25-.91,2.29l.22,.17c-.31-.91,.86-1.67,.38-2.62-.07-.14-.25-.13-.35-.05-.97,.82-1.22,2.21-.62,3.33,.09,.16,.3,.13,.39,0,1.09-1.57,1.71-3.4,2.09-5.25,.36-1.72,.49-3.68-.63-5.17-.87-1.15-2.31-1.75-3.69-1.17-1.61,.69-2.32,2.39-2.73,3.98-.54,2.09-1.09,4.36-.39,6.47,.09,.27,.52,.16,.43-.12h0Z"/><path class="cls-2" d="M538.21,149.82c.85-1.71,1.91-3.55,1.81-5.53-.08-1.41-.76-2.95-2.11-3.56-1.44-.66-3.09,0-4.07,1.14-1.21,1.42-1.35,3.44-1.2,5.22,.11,1.24,.34,2.46,.41,3.7,0,.06,.06,1.05-.21,.81-.12-.11-.01-.75,0-.87l.12-2.03-.44,.06c.2,.91,.24,1.83,.1,2.76h.43c-.54-1.73-.33-3.7-.34-5.49,0-.99,.05-1.93,.48-2.83,.18-.37,.39-.72,.62-1.07,.21-.32,.66-1.22,1.11-1.14,.28,.05,.4-.38,.12-.43-.84-.16-1.35,.92-1.72,1.51-.56,.87-.94,1.78-1.03,2.82-.1,1.14-.02,2.3-.02,3.44s0,2.24,.34,3.31c.06,.19,.4,.23,.43,0,.15-1.01,.12-2-.1-3-.06-.26-.43-.18-.44,.06l-.09,1.61c-.02,.43-.13,.93-.02,1.35s.59,.73,.94,.33c.2-.23,.19-.58,.18-.87-.01-.57-.08-1.13-.14-1.69-.12-1.03-.29-2.06-.33-3.1-.06-1.95,.43-4.14,2.32-5.09,1.74-.87,3.44,.2,3.99,1.94,.71,2.25-.57,4.46-1.54,6.42-.13,.26,.26,.49,.39,.23h0Z"/></g><g class="cls-3"><path class="cls-2" d="M643.48,153.84l1.31,7.52c.02,.12,.17,.18,.28,.16,3.53-.78,7-1.8,10.4-3.04,.14-.05,.2-.19,.13-.33l-2-4.23-1-2.11c-.19-.41-.36-1.07-.89-1.15s-1.24,.23-1.73,.41c-.63,.23-1.25,.51-1.87,.77-1.38,.58-2.82,1-4.3,1.26-.28,.05-.16,.48,.12,.43,1.28-.22,2.53-.56,3.74-1.03,1.13-.44,2.31-1.17,3.53-1.33,.44-.06,.63,.07,.81,.45,.15,.32,.3,.63,.45,.95l.9,1.9,1.85,3.91,.13-.33c-3.4,1.24-6.87,2.25-10.4,3.04l.28,.16-1.31-7.52c-.05-.28-.48-.16-.43,.12h0Z"/><path class="cls-2" d="M644.97,158.01l8.35-2.88c.27-.09,.16-.53-.12-.43l-8.35,2.88c-.27,.09-.16,.53,.12,.43h0Z"/><path class="cls-2" d="M646.6,155.75c-1.17-1.07-1.77-2.54-2.23-4.03s-1.09-3.28-.65-4.89,2.04-2.47,3.66-1.84c1.53,.59,2.34,2.13,2.84,3.6,.64,1.88,1.03,3.87,.83,5.86l.34-.19c-.9-.58-1.25-1.71-.87-2.7l-.33,.13c.44,.29,.34,.97,.41,1.43,.05,.38,.16,.72,.45,.98,.07,.07,.18,.09,.27,.04,.7-.42,.36-1.47,.18-2.1-.29-1.05-.78-2.04-1.42-2.92-.17-.23-.56,0-.39,.23,.47,.65,.86,1.35,1.14,2.1,.16,.43,.8,1.98,.26,2.31l.27,.04c-.72-.64-.05-1.88-.95-2.48-.13-.09-.28,0-.33,.13-.45,1.18,.02,2.53,1.08,3.21,.16,.1,.32-.04,.34-.19,.2-2.02-.2-4.07-.85-5.98-.53-1.56-1.39-3.15-2.98-3.84-1.41-.61-3.03-.33-3.91,.99-1.04,1.57-.61,3.52-.14,5.2,.53,1.9,1.15,3.88,2.65,5.25,.21,.2,.53-.12,.32-.32h0Z"/><path class="cls-2" d="M650.6,151.38c-.09-1.88-.06-3.97-1.08-5.64-.77-1.26-2.2-2.32-3.74-2.13s-2.62,1.57-2.88,3.03c-.33,1.82,.51,3.61,1.51,5.09,.68,1,1.45,1.93,2.1,2.94,.06,.1,.48,.69,.42,.75-.24,.25-.49-.43-.55-.56l-.92-1.89-.35,.27c.63,.7,1.1,1.49,1.43,2.37l.38-.22c-1.29-1.23-2.05-3.01-2.92-4.54-.47-.83-.9-1.65-.99-2.62-.04-.43-.03-.86,0-1.29,.02-.36-.02-1.52,.43-1.66,.28-.08,.16-.52-.12-.43-.77,.23-.7,1.34-.75,1.99-.08,1.09,0,2.13,.46,3.13,.48,1.07,1.13,2.07,1.7,3.09,.54,.95,1.07,1.9,1.87,2.65,.15,.14,.46,0,.38-.22-.36-.95-.87-1.81-1.55-2.57-.18-.2-.46,.05-.35,.27l.71,1.47c.18,.38,.33,.84,.61,1.15,.31,.33,.89,.38,.99-.16,.13-.66-.69-1.52-1.03-2-.6-.83-1.24-1.64-1.79-2.5-1.03-1.61-1.81-3.69-.85-5.52s3.14-2,4.62-.63c1.75,1.62,1.7,4.19,1.81,6.39,.01,.29,.46,.29,.45,0h0Z"/></g><g class="cls-3"><path class="cls-2" d="M817.84,53.91l-4.51,6.16c-.07,.1-.01,.25,.08,.31,3.01,2,6.16,3.79,9.41,5.38,.14,.07,.28,0,.33-.13l1.71-4.51,.81-2.14c.18-.48,.49-.99,.1-1.43-.37-.42-1.02-.69-1.51-.92-.63-.3-1.28-.55-1.92-.84-1.32-.58-2.56-1.3-3.72-2.15-.23-.17-.46,.22-.23,.39,1.02,.74,2.1,1.39,3.24,1.93s2.28,.91,3.33,1.55c.41,.25,.52,.54,.42,1.01-.07,.34-.26,.69-.38,1.01l-.73,1.92-1.54,4.06,.33-.13c-3.25-1.59-6.39-3.38-9.41-5.38l.08,.31,4.51-6.16c.17-.23-.22-.46-.39-.23h0Z"/><path class="cls-2" d="M815.88,57.88l7.87,4.01c.26,.13,.49-.26,.23-.39l-7.87-4.01c-.26-.13-.49,.26-.23,.39h0Z"/><path class="cls-2" d="M818.64,57.47c-.05-2.16,1.13-4.12,2.22-5.9,.57-.92,1.24-1.85,2.21-2.37s2.08-.57,2.95,.12c1.75,1.41,1.24,3.87,.38,5.61-.91,1.83-2.12,3.58-3.73,4.85l.38,.1c-.21-1.05,.37-2.08,1.35-2.5l-.33-.13c.09,.51-.47,.92-.75,1.28-.24,.3-.41,.61-.39,1,0,.09,.07,.2,.17,.22,.85,.18,1.38-.87,1.73-1.49,.5-.9,.84-1.88,1.02-2.89,.05-.28-.38-.4-.43-.12-.14,.76-.35,1.5-.68,2.19-.22,.48-.89,2.01-1.52,1.87l.17,.22c-.04-.96,1.32-1.34,1.12-2.4-.03-.16-.21-.19-.33-.13-1.17,.5-1.8,1.77-1.56,3.01,.04,.18,.26,.19,.38,.1,1.47-1.16,2.57-2.69,3.47-4.32,.85-1.53,1.58-3.36,.99-5.11-.47-1.38-1.68-2.46-3.2-2.3-1.81,.19-2.99,1.69-3.87,3.14-1.09,1.81-2.24,3.77-2.18,5.96,0,.29,.46,.29,.45,0h0Z"/><path class="cls-2" d="M824.56,57.33c1.27-1.35,2.74-2.74,3.28-4.57,.4-1.37,.24-3.07-.83-4.11-1.18-1.16-3.06-1.03-4.37-.16-1.51,.99-2.23,2.81-2.6,4.51-.27,1.21-.4,2.45-.68,3.66-.04,.18-.12,.82-.35,.79-.2-.03-.09-.14-.05-.3s.11-.31,.17-.46l.72-1.95-.44-.06c-.07,.93-.31,1.83-.71,2.67l.42,.11c0-.98,.26-1.92,.53-2.85,.26-.88,.52-1.77,.79-2.65s.6-1.71,1.23-2.4c.27-.29,.56-.56,.87-.82,.28-.24,1.03-1.04,1.45-.8,.25,.14,.48-.25,.23-.39-.73-.41-1.55,.5-2.06,.93-.78,.66-1.42,1.41-1.81,2.37-.43,1.05-.69,2.18-1.02,3.27s-.67,2.19-.66,3.34c0,.21,.32,.32,.42,.11,.44-.92,.7-1.88,.77-2.9,.02-.27-.36-.28-.44-.06l-.58,1.58c-.15,.41-.4,.85-.39,1.29,.01,.56,.6,.8,.97,.35,.22-.27,.28-.64,.36-.97,.13-.54,.23-1.09,.32-1.64,.17-1.02,.32-2.06,.62-3.05,.55-1.83,1.77-3.72,3.86-3.91s3.11,1.56,3.01,3.37c-.13,2.22-1.92,3.86-3.34,5.38-.2,.21,.12,.53,.32,.32h0Z"/></g><g class="cls-3"><path class="cls-2" d="M769.76,118.76l2.76,7.12c.06,.15,.19,.2,.33,.13,3.31-1.46,6.52-3.13,9.6-5.01,.1-.06,.15-.21,.08-.31l-2.87-3.87-1.36-1.84c-.25-.34-.5-.85-.97-.9s-1.07,.35-1.46,.58c-.61,.35-1.18,.75-1.75,1.15-1.29,.88-2.66,1.62-4.11,2.18-.27,.1-.15,.54,.12,.43,1.19-.46,2.33-1.02,3.41-1.69s2-1.44,3.12-1.98c.45-.22,.72-.26,1.04,.17,.22,.29,.43,.58,.65,.87l1.22,1.65,2.59,3.48,.08-.31c-3.09,1.88-6.3,3.55-9.6,5.01l.33,.13-2.76-7.12c-.1-.27-.54-.15-.43,.12h0Z"/><path class="cls-2" d="M772.07,122.59l7.63-4.46c.25-.15,.02-.54-.23-.39l-7.63,4.46c-.25,.15-.02,.54,.23,.39h0Z"/><path class="cls-2" d="M773.2,120.05c-1.35-.82-2.22-2.13-2.96-3.49-.78-1.43-1.74-3.05-1.6-4.73s1.53-2.77,3.22-2.47,2.7,1.6,3.48,2.94c.99,1.71,1.79,3.6,1.98,5.58l.28-.22c-.96-.38-1.55-1.41-1.38-2.43l-.28,.16c.47,.19,.51,.88,.66,1.3,.13,.37,.3,.69,.65,.9,.09,.05,.2,.03,.27-.04,.62-.57,.01-1.6-.29-2.18-.49-.94-1.15-1.78-1.93-2.5-.21-.2-.53,.12-.32,.32,.58,.54,1.09,1.14,1.51,1.81,.26,.42,1.19,1.79,.7,2.24l.27-.04c-.83-.48-.41-1.83-1.41-2.24-.11-.04-.26,.05-.28,.16-.22,1.28,.48,2.51,1.69,2.98,.13,.05,.3-.08,.28-.22-.19-1.98-.95-3.86-1.92-5.58-.81-1.45-1.96-2.92-3.65-3.32-1.52-.36-3.13,.2-3.75,1.72-.71,1.75,.1,3.57,.89,5.14,.9,1.76,1.89,3.57,3.62,4.62,.25,.15,.47-.24,.23-.39h0Z"/><path class="cls-2" d="M776.28,114.98c-.45-1.8-.83-3.79-2.09-5.23-.99-1.14-2.65-1.93-4.16-1.44s-2.21,1.99-2.23,3.43c-.02,1.81,1.11,3.41,2.33,4.65,.86,.87,1.81,1.63,2.67,2.5,.19,.19,.4,.38,.55,.59,.23,.32,.09,.36-.16,.22-.12-.07-.29-.37-.39-.5l-1.23-1.62-.31,.31c.75,.56,1.37,1.25,1.86,2.05l.31-.31c-.78-.49-1.39-1.16-1.99-1.85-.63-.72-1.26-1.45-1.88-2.18s-1.14-1.45-1.4-2.38c-.14-.5-.21-1.02-.26-1.53-.03-.34-.23-1.1,.16-1.29,.26-.13,.03-.52-.23-.39-.73,.37-.41,1.57-.32,2.19,.14,1.08,.45,2.06,1.1,2.94,.68,.93,1.49,1.78,2.24,2.65,.71,.83,1.42,1.65,2.35,2.23,.19,.12,.43-.12,.31-.31-.54-.86-1.21-1.6-2.02-2.21-.18-.13-.44,.13-.31,.31l.97,1.28c.26,.35,.51,.79,.86,1.06s.98,.21,.95-.36c-.01-.31-.24-.55-.43-.77-.36-.41-.75-.78-1.15-1.15-.74-.68-1.51-1.33-2.19-2.07-1.32-1.41-2.42-3.34-1.72-5.3s2.75-2.33,4.38-1.31c2,1.25,2.46,3.78,2.99,5.9,.07,.28,.5,.16,.43-.12h0Z"/></g><g class="cls-3"><path class="cls-2" d="M735.81,185.88l-2.52,7.21c-.04,.12,.05,.24,.16,.28,3.47,1.03,6.99,1.84,10.56,2.41,.15,.02,.27-.06,.28-.22l.32-4.73,.15-2.31c.03-.44,.19-1.06-.21-1.39s-1.14-.4-1.65-.48c-.64-.11-1.29-.16-1.93-.23-1.54-.17-3.05-.5-4.51-1.01-.27-.1-.39,.34-.12,.43,1.23,.43,2.49,.74,3.77,.92s2.6,.18,3.82,.58c.39,.13,.42,.35,.4,.74-.02,.37-.05,.73-.07,1.1l-.14,2.09-.29,4.29,.28-.22c-3.57-.57-7.1-1.37-10.56-2.41l.16,.28,2.52-7.21c.1-.27-.34-.39-.43-.12h0Z"/><path class="cls-2" d="M737.61,189.07c-.68-2.07-.12-4.3,.42-6.33,.47-1.79,1.79-4.42,4.11-3.67,2.2,.71,2.48,3.33,2.17,5.26-.33,2.03-.98,4.07-2.17,5.77h.39c-.5-.94-.26-2.1,.55-2.78l-.35-.05c.23,.46-.15,.99-.32,1.41-.15,.37-.23,.73-.1,1.11,.03,.09,.11,.17,.22,.17,.82-.05,1.02-1.08,1.18-1.73,.26-1.07,.31-2.17,.19-3.26-.03-.28-.48-.29-.45,0,.09,.75,.1,1.5,0,2.25-.06,.46-.26,2.25-.91,2.29l.22,.17c-.31-.91,.86-1.67,.38-2.62-.07-.14-.25-.13-.35-.05-.97,.82-1.22,2.21-.62,3.33,.09,.16,.3,.13,.39,0,1.09-1.57,1.71-3.4,2.09-5.25,.36-1.72,.49-3.68-.63-5.17-.87-1.15-2.31-1.75-3.69-1.17-1.61,.69-2.32,2.39-2.73,3.98-.54,2.09-1.09,4.36-.39,6.47,.09,.27,.52,.16,.43-.12h0Z"/><path class="cls-2" d="M743.23,187.21c.85-1.71,1.91-3.55,1.81-5.53-.08-1.41-.76-2.95-2.11-3.56-1.44-.66-3.09,0-4.07,1.14-1.21,1.42-1.35,3.44-1.2,5.22,.11,1.24,.34,2.46,.41,3.7,0,.06,.06,1.05-.21,.81-.12-.11-.01-.75,0-.87l.12-2.03-.44,.06c.2,.91,.24,1.83,.1,2.76h.43c-.54-1.73-.33-3.7-.34-5.49,0-.99,.05-1.93,.48-2.83,.18-.37,.39-.72,.62-1.07,.21-.32,.66-1.22,1.11-1.14,.28,.05,.4-.38,.12-.43-.84-.16-1.35,.92-1.72,1.51-.56,.87-.94,1.78-1.03,2.82-.1,1.14-.02,2.3-.02,3.44s0,2.24,.34,3.31c.06,.19,.4,.23,.43,0,.15-1.01,.12-2-.1-3-.06-.26-.43-.18-.44,.06l-.09,1.61c-.02,.43-.13,.93-.02,1.35s.59,.73,.94,.33c.2-.23,.19-.58,.18-.87-.01-.57-.08-1.13-.14-1.69-.12-1.03-.29-2.06-.33-3.1-.06-1.95,.43-4.14,2.32-5.09,1.74-.87,3.44,.2,3.99,1.94,.71,2.25-.57,4.46-1.54,6.42-.13,.26,.26,.49,.39,.23h0Z"/></g><g class="cls-3"><path class="cls-2" d="M622.56,25.54l-4.51,6.16c-.07,.1-.01,.25,.08,.31,3.01,2,6.16,3.79,9.41,5.38,.14,.07,.28,0,.33-.13l1.71-4.51,.81-2.14c.18-.48,.49-.99,.1-1.43-.37-.42-1.02-.69-1.51-.92-.63-.3-1.28-.55-1.92-.84-1.32-.58-2.56-1.3-3.72-2.15-.23-.17-.46,.22-.23,.39,1.02,.74,2.1,1.39,3.24,1.93s2.28,.91,3.33,1.55c.41,.25,.52,.54,.42,1.01-.07,.34-.26,.69-.38,1.01l-.73,1.92-1.54,4.06,.33-.13c-3.25-1.59-6.39-3.38-9.41-5.38l.08,.31,4.51-6.16c.17-.23-.22-.46-.39-.23h0Z"/><path class="cls-2" d="M620.6,29.51l7.87,4.01c.26,.13,.49-.26,.23-.39l-7.87-4.01c-.26-.13-.49,.26-.23,.39h0Z"/><path class="cls-2" d="M623.35,29.11c-.05-2.16,1.13-4.12,2.22-5.9,.57-.92,1.24-1.85,2.21-2.37s2.08-.57,2.95,.12c1.75,1.41,1.24,3.87,.38,5.61-.91,1.83-2.12,3.58-3.73,4.85l.38,.1c-.21-1.05,.37-2.08,1.35-2.5l-.33-.13c.09,.51-.47,.92-.75,1.28-.24,.3-.41,.61-.39,1,0,.09,.07,.2,.17,.22,.85,.18,1.38-.87,1.73-1.49,.5-.9,.84-1.88,1.02-2.89,.05-.28-.38-.4-.43-.12-.14,.76-.35,1.5-.68,2.19-.22,.48-.89,2.01-1.52,1.87l.17,.22c-.04-.96,1.32-1.34,1.12-2.4-.03-.16-.21-.19-.33-.13-1.17,.5-1.8,1.77-1.56,3.01,.04,.18,.26,.19,.38,.1,1.47-1.16,2.57-2.69,3.47-4.32,.85-1.53,1.58-3.36,.99-5.11-.47-1.38-1.68-2.46-3.2-2.3-1.81,.19-2.99,1.69-3.87,3.14-1.09,1.81-2.24,3.77-2.18,5.96,0,.29,.46,.29,.45,0h0Z"/><path class="cls-2" d="M629.28,28.96c1.27-1.35,2.74-2.74,3.28-4.57,.4-1.37,.24-3.07-.83-4.11-1.18-1.16-3.06-1.03-4.37-.16-1.51,.99-2.23,2.81-2.6,4.51-.27,1.21-.4,2.45-.68,3.66-.04,.18-.12,.82-.35,.79-.2-.03-.09-.14-.05-.3s.11-.31,.17-.46l.72-1.95-.44-.06c-.07,.93-.31,1.83-.71,2.67l.42,.11c0-.98,.26-1.92,.53-2.85,.26-.88,.52-1.77,.79-2.65s.6-1.71,1.23-2.4c.27-.29,.56-.56,.87-.82,.28-.24,1.03-1.04,1.45-.8,.25,.14,.48-.25,.23-.39-.73-.41-1.55,.5-2.06,.93-.78,.66-1.42,1.41-1.81,2.37-.43,1.05-.69,2.18-1.02,3.27s-.67,2.19-.66,3.34c0,.21,.32,.32,.42,.11,.44-.92,.7-1.88,.77-2.9,.02-.27-.36-.28-.44-.06l-.58,1.58c-.15,.41-.4,.85-.39,1.29,.01,.56,.6,.8,.97,.35,.22-.27,.28-.64,.36-.97,.13-.54,.23-1.09,.32-1.64,.17-1.02,.32-2.06,.62-3.05,.55-1.83,1.77-3.72,3.86-3.91s3.11,1.56,3.01,3.37c-.13,2.22-1.92,3.86-3.34,5.38-.2,.21,.12,.53,.32,.32h0Z"/></g><g class="cls-3"><path class="cls-2" d="M687.58,81.14l2.76,7.12c.06,.15,.19,.2,.33,.13,3.31-1.46,6.52-3.13,9.6-5.01,.1-.06,.15-.21,.08-.31l-2.87-3.87-1.36-1.84c-.25-.34-.5-.85-.97-.9s-1.07,.35-1.46,.58c-.61,.35-1.18,.75-1.75,1.15-1.29,.88-2.66,1.62-4.11,2.18-.27,.1-.15,.54,.12,.43,1.19-.46,2.33-1.02,3.41-1.69s2-1.44,3.12-1.98c.45-.22,.72-.26,1.04,.17,.22,.29,.43,.58,.65,.87l1.22,1.65,2.59,3.48,.08-.31c-3.09,1.88-6.3,3.55-9.6,5.01l.33,.13-2.76-7.12c-.1-.27-.54-.15-.43,.12h0Z"/><path class="cls-2" d="M689.89,84.97l7.63-4.46c.25-.15,.02-.54-.23-.39l-7.63,4.46c-.25,.15-.02,.54,.23,.39h0Z"/><path class="cls-2" d="M691.02,82.43c-1.35-.82-2.22-2.13-2.96-3.49-.78-1.43-1.74-3.05-1.6-4.73s1.53-2.77,3.22-2.47,2.7,1.6,3.48,2.94c.99,1.71,1.79,3.6,1.98,5.58l.28-.22c-.96-.38-1.55-1.41-1.38-2.43l-.28,.16c.47,.19,.51,.88,.66,1.3,.13,.37,.3,.69,.65,.9,.09,.05,.2,.03,.27-.04,.62-.57,.01-1.6-.29-2.18-.49-.94-1.15-1.78-1.93-2.5-.21-.2-.53,.12-.32,.32,.58,.54,1.09,1.14,1.51,1.81,.26,.42,1.19,1.79,.7,2.24l.27-.04c-.83-.48-.41-1.83-1.41-2.24-.11-.04-.26,.05-.28,.16-.22,1.28,.48,2.51,1.69,2.98,.13,.05,.3-.08,.28-.22-.19-1.98-.95-3.86-1.92-5.58-.81-1.45-1.96-2.92-3.65-3.32-1.52-.36-3.13,.2-3.75,1.72-.71,1.75,.1,3.57,.89,5.14,.9,1.76,1.89,3.57,3.62,4.62,.25,.15,.47-.24,.23-.39h0Z"/><path class="cls-2" d="M694.1,77.36c-.45-1.8-.83-3.79-2.09-5.23-.99-1.14-2.65-1.93-4.16-1.44s-2.21,1.99-2.23,3.43c-.02,1.81,1.11,3.41,2.33,4.65,.86,.87,1.81,1.63,2.67,2.5,.19,.19,.4,.38,.55,.59,.23,.32,.09,.36-.16,.22-.12-.07-.29-.37-.39-.5l-1.23-1.62-.31,.31c.75,.56,1.37,1.25,1.86,2.05l.31-.31c-.78-.49-1.39-1.16-1.99-1.85-.63-.72-1.26-1.45-1.88-2.18s-1.14-1.45-1.4-2.38c-.14-.5-.21-1.02-.26-1.53-.03-.34-.23-1.1,.16-1.29,.26-.13,.03-.52-.23-.39-.73,.37-.41,1.57-.32,2.19,.14,1.08,.45,2.06,1.1,2.94,.68,.93,1.49,1.78,2.24,2.65,.71,.83,1.42,1.65,2.35,2.23,.19,.12,.43-.12,.31-.31-.54-.86-1.21-1.6-2.02-2.21-.18-.13-.44,.13-.31,.31l.97,1.28c.26,.35,.51,.79,.86,1.06s.98,.21,.95-.36c-.01-.31-.24-.55-.43-.77-.36-.41-.75-.78-1.15-1.15-.74-.68-1.51-1.33-2.19-2.07-1.32-1.41-2.42-3.34-1.72-5.3s2.75-2.33,4.38-1.31c2,1.25,2.46,3.78,2.99,5.9,.07,.28,.5,.16,.43-.12h0Z"/></g><g class="cls-3"><path class="cls-2" d="M733.84,29.96l2.76,7.12c.06,.15,.19,.2,.33,.13,3.31-1.46,6.52-3.13,9.6-5.01,.1-.06,.15-.21,.08-.31l-2.87-3.87-1.36-1.84c-.25-.34-.5-.85-.97-.9s-1.07,.35-1.46,.58c-.61,.35-1.18,.75-1.75,1.15-1.29,.88-2.66,1.62-4.11,2.18-.27,.1-.15,.54,.12,.43,1.19-.46,2.33-1.02,3.41-1.69s2-1.44,3.12-1.98c.45-.22,.72-.26,1.04,.17,.22,.29,.43,.58,.65,.87l1.22,1.65,2.59,3.48,.08-.31c-3.09,1.88-6.3,3.55-9.6,5.01l.33,.13-2.76-7.12c-.1-.27-.54-.15-.43,.12h0Z"/><path class="cls-2" d="M736.14,33.79l7.63-4.46c.25-.15,.02-.54-.23-.39l-7.63,4.46c-.25,.15-.02,.54,.23,.39h0Z"/><path class="cls-2" d="M737.27,31.25c-1.35-.82-2.22-2.13-2.96-3.49-.78-1.43-1.74-3.05-1.6-4.73s1.53-2.77,3.22-2.47,2.7,1.6,3.48,2.94c.99,1.71,1.79,3.6,1.98,5.58l.28-.22c-.96-.38-1.55-1.41-1.38-2.43l-.28,.16c.47,.19,.51,.88,.66,1.3,.13,.37,.3,.69,.65,.9,.09,.05,.2,.03,.27-.04,.62-.57,.01-1.6-.29-2.18-.49-.94-1.15-1.78-1.93-2.5-.21-.2-.53,.12-.32,.32,.58,.54,1.09,1.14,1.51,1.81,.26,.42,1.19,1.79,.7,2.24l.27-.04c-.83-.48-.41-1.83-1.41-2.24-.11-.04-.26,.05-.28,.16-.22,1.28,.48,2.51,1.69,2.98,.13,.05,.3-.08,.28-.22-.19-1.98-.95-3.86-1.92-5.58-.81-1.45-1.96-2.92-3.65-3.32-1.52-.36-3.13,.2-3.75,1.72-.71,1.75,.1,3.57,.89,5.14,.9,1.76,1.89,3.57,3.62,4.62,.25,.15,.47-.24,.23-.39h0Z"/><path class="cls-2" d="M740.36,26.18c-.45-1.8-.83-3.79-2.09-5.23-.99-1.14-2.65-1.93-4.16-1.44s-2.21,1.99-2.23,3.43c-.02,1.81,1.11,3.41,2.33,4.65,.86,.87,1.81,1.63,2.67,2.5,.19,.19,.4,.38,.55,.59,.23,.32,.09,.36-.16,.22-.12-.07-.29-.37-.39-.5l-1.23-1.62-.31,.31c.75,.56,1.37,1.25,1.86,2.05l.31-.31c-.78-.49-1.39-1.16-1.99-1.85-.63-.72-1.26-1.45-1.88-2.18s-1.14-1.45-1.4-2.38c-.14-.5-.21-1.02-.26-1.53-.03-.34-.23-1.1,.16-1.29,.26-.13,.03-.52-.23-.39-.73,.37-.41,1.57-.32,2.19,.14,1.08,.45,2.06,1.1,2.94,.68,.93,1.49,1.78,2.24,2.65,.71,.83,1.42,1.65,2.35,2.23,.19,.12,.43-.12,.31-.31-.54-.86-1.21-1.6-2.02-2.21-.18-.13-.44,.13-.31,.31l.97,1.28c.26,.35,.51,.79,.86,1.06s.98,.21,.95-.36c-.01-.31-.24-.55-.43-.77-.36-.41-.75-.78-1.15-1.15-.74-.68-1.51-1.33-2.19-2.07-1.32-1.41-2.42-3.34-1.72-5.3s2.75-2.33,4.38-1.31c2,1.25,2.46,3.78,2.99,5.9,.07,.28,.5,.16,.43-.12h0Z"/></g></svg>