<?xml version="1.0" encoding="UTF-8"?><svg id="Laag_1" xmlns="http://www.w3.org/2000/svg" viewBox="0 0 879.8 188.41"><defs><style>.cls-1,.cls-2,.cls-3,.cls-4,.cls-5{fill:none;}.cls-6{stroke-width:.45px;}.cls-6,.cls-2,.cls-3,.cls-7,.cls-4,.cls-5,.cls-8{stroke:#fff;stroke-miterlimit:10;}.cls-6,.cls-7,.cls-9,.cls-8{fill:#fff;}.cls-2{stroke-width:.1px;}.cls-3{stroke-width:.42px;}.cls-7{stroke-width:.3px;}.cls-10{fill:#e8adcb;}.cls-4{stroke-width:1.26px;}.cls-5{stroke-width:.31px;}.cls-8{stroke-width:.11px;}</style></defs><rect class="cls-10" x="11.29" y="13.17" width="852.62" height="172.5" rx="18.53" ry="18.53"/><g><rect class="cls-3" x="39.42" y="43.71" width="15.89" height="13.9" transform="translate(-8.01 8.91) rotate(-9.91)"/><polygon class="cls-7" points="63.66 54.16 56.39 56.14 54 42.45 61.12 40.57 63.66 54.16"/><rect class="cls-7" x="44.01" y="46.04" width="5.79" height="2.21" transform="translate(-7.42 8.78) rotate(-9.91)"/><line class="cls-1" x1="41.71" y1="31.8" x2="47.03" y2="44.14"/><rect class="cls-6" x="50.24" y="36.65" width="2.86" height="1.66" transform="translate(-5.68 9.45) rotate(-9.91)"/><polygon class="cls-8" points="54.71 36.95 53.03 36.18 53.39 38.24 54.71 36.95"/><line class="cls-2" x1="49.85" y1="36.68" x2="52.97" y2="36.14"/><line class="cls-2" x1="50.24" y1="38.85" x2="53.35" y2="38.3"/><line class="cls-4" x1="52.09" y1="38.53" x2="52.84" y2="42.82"/><path class="cls-9" d="M42.12,32.65c1.26,3.69,2.77,7.29,4.52,10.78,.02,.04,.09,.08,.14,.08l3.01-.38c.13-.02,.19-.12,.14-.24l-3.71-8.57c-.08-.19-.35-.03-.27,.16l3.71,8.57,.14-.24-1.7,.22c-.3,.04-.6,.1-.9,.11-.39,.01-.42-.18-.58-.51-.53-1.07-1.03-2.15-1.51-3.24-.98-2.23-1.87-4.51-2.66-6.82-.07-.19-.37-.11-.3,.08h0Z"/><path class="cls-9" d="M42.38,32.27c-.18-.63,.38-1.08,.87-1.34,.41-.22,1.13-.55,1.49-.07,.17,.23,.24,.54,.34,.81l.36,.99,.69,1.9c.07,.19,.37,.11,.3-.08l-.85-2.36c-.14-.38-.26-.76-.41-1.13-.11-.27-.28-.51-.56-.61-.57-.22-1.26,.13-1.74,.43-.53,.33-.97,.91-.78,1.56,.06,.19,.36,.11,.3-.08h0Z"/><path class="cls-9" d="M49.26,39.25c-.35-1.51-.68-3.03-.97-4.56-.15-.75-.28-1.5-.42-2.25-.04-.23-.28-1.01-.15-1.2,.14-.21,.78-.32,1.03-.41l.99-.35,.49-.18c.22-.08,.37-.2,.58-.07,.26,.17,.28,.84,.35,1.15l.22,1.06,.96,4.61c.04,.2,.35,.12,.31-.08l-1.15-5.5c-.08-.4-.13-.85-.26-1.24-.06-.2-.12-.35-.34-.41-.29-.08-.64,.13-.91,.22l-1.32,.47c-.33,.12-.82,.2-1.1,.4-.14,.1-.19,.2-.19,.37-.01,.39,.14,.84,.2,1.23,.07,.42,.15,.84,.23,1.26,.35,1.86,.73,3.71,1.16,5.55,.05,.2,.35,.11,.31-.08h0Z"/><path class="cls-9" d="M48.88,39.3c.03,.63,.26,1.22,.55,1.78,.32,.62,.67,1.22,1.02,1.82,.11,.19,.4,.02,.29-.17-.32-.57-.65-1.14-.96-1.71-.29-.54-.53-1.11-.56-1.72-.01-.22-.35-.22-.34,0h0Z"/><polygon class="cls-5" points="60.13 33.92 57.74 33.27 55.35 43.39 57.97 43.41 60.13 33.92"/></g><g><rect class="cls-3" x="118.41" y="145.06" width="15.89" height="13.9" transform="translate(112.82 -45.2) rotate(35.81)"/><polygon class="cls-7" points="135.24 166.12 128.74 162.3 136.87 151.03 143.19 154.81 135.24 166.12"/><rect class="cls-7" x="125.65" y="148.12" width="5.79" height="2.21" transform="translate(111.61 -47) rotate(35.81)"/><line class="cls-1" x1="135.91" y1="134.79" x2="130.79" y2="147.21"/><rect class="cls-6" x="137.37" y="145.07" width="2.86" height="1.66" transform="translate(111.59 -53.63) rotate(35.81)"/><polygon class="cls-8" points="141.31 147.7 140.68 145.96 139.46 147.65 141.31 147.7"/><line class="cls-2" x1="138.1" y1="144.04" x2="140.67" y2="145.88"/><line class="cls-2" x1="136.82" y1="145.82" x2="139.38" y2="147.67"/><line class="cls-4" x1="138.35" y1="146.92" x2="135.8" y2="150.46"/><path class="cls-9" d="M135.59,135.68c-1.76,3.48-3.28,7.08-4.56,10.76-.02,.05,0,.12,.04,.15l2.37,1.89c.1,.08,.22,.05,.26-.07l3.54-8.64c.08-.19-.23-.27-.3-.08l-3.54,8.64,.26-.07-1.46-1.16c-.2-.16-.48-.31-.64-.51-.22-.27-.11-.43,0-.74,.4-1.12,.82-2.23,1.26-3.34,.91-2.27,1.93-4.49,3.03-6.68,.09-.18-.18-.34-.27-.16h0Z"/><path class="cls-9" d="M136.05,135.6c.33-.57,1.06-.48,1.59-.31,.45,.14,1.16,.42,1.07,1.01-.05,.32-.25,.63-.39,.91l-.42,.87-.86,1.78c-.09,.18,.18,.34,.27,.16l1.1-2.26c.17-.35,.36-.71,.51-1.07,.13-.3,.18-.61,.02-.91-.27-.53-.97-.77-1.51-.89-.61-.14-1.31-.05-1.64,.54-.1,.18,.17,.33,.27,.16h0Z"/><path class="cls-9" d="M135.86,145.41c.82-1.28,1.66-2.54,2.52-3.79,.43-.62,.87-1.24,1.31-1.86,.21-.29,.41-.58,.62-.86,.2-.27,.28-.19,.55-.06l.49,.24,1.05,.52,.49,.24c.12,.06,.36,.12,.44,.22,.26,.31-.37,.96-.54,1.22l-.61,.91-2.62,3.89c-.11,.17,.16,.33,.27,.16l2.4-3.57,1.18-1.75c.22-.33,.59-.73,.18-1.06-.22-.18-.51-.27-.76-.4l-.98-.48-.91-.45c-.19-.09-.37-.23-.58-.14-.16,.07-.27,.27-.37,.4-.21,.29-.42,.57-.62,.86-.4,.55-.79,1.11-1.18,1.67-.89,1.29-1.76,2.59-2.61,3.91-.11,.17,.16,.33,.27,.16h0Z"/><path class="cls-9" d="M135.55,145.17c-.42,.45-.68,1.02-.88,1.6-.23,.67-.41,1.36-.61,2.04-.06,.21,.26,.3,.32,.09,.19-.64,.37-1.29,.57-1.93,.18-.56,.42-1.12,.83-1.56,.15-.16-.09-.4-.24-.24h0Z"/><polygon class="cls-5" points="147.25 149.46 146.05 147.3 137.14 152.65 138.96 154.54 147.25 149.46"/></g><g><rect class="cls-3" x="13.52" y="141.16" width="15.89" height="13.9" transform="translate(-38.87 11.15) rotate(-15.53)"/><polygon class="cls-7" points="38.03 150 30.98 152.68 27.26 139.29 34.17 136.72 38.03 150"/><rect class="cls-7" x="17.77" y="143.56" width="5.79" height="2.21" transform="translate(-37.97 10.81) rotate(-15.53)"/><line class="cls-1" x1="13.99" y1="129.9" x2="20.49" y2="141.65"/><rect class="cls-6" x="23.03" y="133.75" width="2.86" height="1.66" transform="translate(-35.13 11.46) rotate(-15.53)"/><polygon class="cls-8" points="27.44 133.74 25.69 133.15 26.25 135.16 27.44 133.74"/><line class="cls-2" x1="22.58" y1="133.96" x2="25.62" y2="133.11"/><line class="cls-2" x1="23.17" y1="136.08" x2="26.21" y2="135.23"/><line class="cls-4" x1="24.98" y1="135.57" x2="26.15" y2="139.77"/><path class="cls-9" d="M14.49,130.72c1.61,3.54,3.46,6.96,5.53,10.25,.04,.06,.11,.09,.18,.07l2.96-.67c.1-.02,.14-.15,.09-.23l-4.53-8.16c-.1-.18-.37-.02-.27,.16l4.53,8.16,.09-.23-2.96,.67,.18,.07c-2.07-3.29-3.92-6.71-5.53-10.25-.08-.18-.35-.02-.27,.16h0Z"/><path class="cls-9" d="M14.71,130.31c-.25-.63,.28-1.15,.77-1.46,.43-.28,1.13-.65,1.51-.11,.17,.24,.27,.53,.4,.79l.43,.9,.86,1.8c.09,.18,.36,.02,.27-.16l-1.07-2.24c-.16-.34-.32-.68-.48-1.01-.13-.26-.31-.51-.6-.61-.59-.2-1.25,.21-1.7,.54-.5,.38-.93,1-.68,1.65,.07,.19,.38,.11,.3-.08h0Z"/><path class="cls-9" d="M22.25,136.58c-.49-1.44-.95-2.89-1.39-4.35-.21-.7-.41-1.4-.61-2.11-.09-.34-.25-.71-.29-1.06-.03-.29-.02-.31,.19-.46,.16-.12,.4-.19,.59-.28l1.01-.47c.3-.14,1.01-.64,1.28-.34,.09,.1,.13,.41,.17,.53l.17,.53,.33,1.06,1.39,4.44c.06,.19,.37,.11,.31-.08l-1.67-5.32c-.14-.43-.22-.95-.43-1.36-.07-.14-.16-.24-.33-.27-.29-.05-.63,.18-.87,.3l-1.26,.59c-.33,.16-.79,.29-1.08,.51-.15,.12-.18,.24-.16,.43,.03,.37,.21,.8,.31,1.16,.13,.47,.26,.94,.4,1.41,.51,1.75,1.06,3.5,1.65,5.23,.07,.19,.37,.11,.31-.08h0Z"/><path class="cls-9" d="M21.87,136.69c.09,.62,.38,1.17,.72,1.69,.38,.58,.79,1.14,1.18,1.7,.12,.18,.41,0,.29-.17-.38-.55-.78-1.09-1.15-1.65-.34-.51-.62-1.05-.71-1.66-.03-.21-.36-.12-.32,.09h0Z"/><polygon class="cls-5" points="32.53 130.21 30.09 129.79 28.7 140.09 31.31 139.85 32.53 130.21"/></g><g><rect class="cls-3" x="108.46" y="78.1" width="15.89" height="13.9" transform="translate(-18.52 34.27) rotate(-15.53)"/><polygon class="cls-7" points="132.97 86.93 125.92 89.62 122.2 76.22 129.11 73.65 132.97 86.93"/><rect class="cls-7" x="112.71" y="80.49" width="5.79" height="2.21" transform="translate(-17.62 33.93) rotate(-15.53)"/><line class="cls-1" x1="108.93" y1="66.83" x2="115.43" y2="78.58"/><rect class="cls-6" x="117.97" y="70.68" width="2.86" height="1.66" transform="translate(-14.78 34.58) rotate(-15.53)"/><polygon class="cls-8" points="122.38 70.68 120.63 70.08 121.19 72.09 122.38 70.68"/><line class="cls-2" x1="117.52" y1="70.89" x2="120.56" y2="70.04"/><line class="cls-2" x1="118.11" y1="73.01" x2="121.15" y2="72.16"/><line class="cls-4" x1="119.92" y1="72.51" x2="121.09" y2="76.7"/><path class="cls-9" d="M109.43,67.66c1.61,3.54,3.46,6.96,5.53,10.25,.04,.06,.11,.09,.18,.07l2.96-.67c.1-.02,.14-.15,.09-.23l-4.53-8.16c-.1-.18-.37-.02-.27,.16l4.53,8.16,.09-.23-2.96,.67,.18,.07c-2.07-3.29-3.92-6.71-5.53-10.25-.08-.18-.35-.02-.27,.16h0Z"/><path class="cls-9" d="M109.65,67.25c-.25-.63,.28-1.15,.77-1.46,.43-.28,1.13-.65,1.51-.11,.17,.24,.27,.53,.4,.79l.43,.9,.86,1.8c.09,.18,.36,.02,.27-.16l-1.07-2.24c-.16-.34-.32-.68-.48-1.01-.13-.26-.31-.51-.6-.61-.59-.2-1.25,.21-1.7,.54-.5,.38-.93,1-.68,1.65,.07,.19,.38,.11,.3-.08h0Z"/><path class="cls-9" d="M117.19,73.52c-.49-1.44-.95-2.89-1.39-4.35-.21-.7-.41-1.4-.61-2.11-.09-.34-.25-.71-.29-1.06-.03-.29-.02-.31,.19-.46,.16-.12,.4-.19,.59-.28l1.01-.47c.3-.14,1.01-.64,1.28-.34,.09,.1,.13,.41,.17,.53l.17,.53,.33,1.06,1.39,4.44c.06,.19,.37,.11,.31-.08l-1.67-5.32c-.14-.43-.22-.95-.43-1.36-.07-.14-.16-.24-.33-.27-.29-.05-.63,.18-.87,.3l-1.26,.59c-.33,.16-.79,.29-1.08,.51-.15,.12-.18,.24-.16,.43,.03,.37,.21,.8,.31,1.16,.13,.47,.26,.94,.4,1.41,.51,1.75,1.06,3.5,1.65,5.23,.07,.19,.37,.11,.31-.08h0Z"/><path class="cls-9" d="M116.81,73.62c.09,.62,.38,1.17,.72,1.69,.38,.58,.79,1.14,1.18,1.7,.12,.18,.41,0,.29-.17-.38-.55-.78-1.09-1.15-1.65-.34-.51-.62-1.05-.71-1.66-.03-.21-.36-.12-.32,.09h0Z"/><polygon class="cls-5" points="127.47 67.14 125.03 66.72 123.64 77.02 126.25 76.79 127.47 67.14"/></g><g><rect class="cls-3" x="184.67" y="16.48" width="15.89" height="13.9" transform="translate(37.91 -93.68) rotate(30.19)"/><polygon class="cls-7" points="202.83 36.6 195.99 33.43 202.98 21.41 209.64 24.56 202.83 36.6"/><rect class="cls-7" x="191.63" y="19.34" width="5.79" height="2.21" transform="translate(36.66 -95.05) rotate(30.19)"/><line class="cls-1" x1="200.44" y1="5.36" x2="196.56" y2="18.22"/><rect class="cls-6" x="202.97" y="15.29" width="2.86" height="1.66" transform="translate(35.83 -100.6) rotate(30.19)"/><polygon class="cls-8" points="207.07 17.67 206.28 16 205.23 17.8 207.07 17.67"/><line class="cls-2" x1="203.52" y1="14.34" x2="206.26" y2="15.92"/><line class="cls-2" x1="202.42" y1="16.24" x2="205.15" y2="17.83"/><line class="cls-4" x1="204.05" y1="17.19" x2="201.86" y2="20.95"/><path class="cls-9" d="M200.2,6.29c-1.41,3.62-2.57,7.34-3.47,11.12-.02,.07,.01,.14,.07,.18l2.55,1.64c.09,.06,.2,0,.23-.09l2.68-8.95c.06-.19-.24-.28-.3-.08l-2.68,8.95,.23-.09-1.7-1.1c-.13-.08-.55-.28-.64-.41-.17-.26,.02-.63,.09-.9,.29-1.14,.59-2.27,.93-3.4,.68-2.29,1.45-4.55,2.32-6.78,.07-.19-.23-.27-.3-.08h0Z"/><path class="cls-9" d="M200.65,6.16c.29-.64,1.06-.59,1.63-.46,.43,.1,1.1,.31,1.09,.85,0,.31-.17,.63-.28,.92l-.35,.95-.7,1.9c-.07,.19,.23,.27,.3,.08l.87-2.36c.14-.38,.31-.77,.42-1.16,.08-.3,.07-.6-.11-.86-.33-.47-1.01-.63-1.54-.71-.61-.09-1.33,.05-1.61,.67-.08,.18,.19,.34,.27,.16h0Z"/><path class="cls-9" d="M201.41,15.93c.68-1.33,1.37-2.64,2.1-3.94,.36-.65,.73-1.3,1.1-1.94,.19-.33,.36-.73,.6-1.03,.2-.24,.28-.22,.55-.12l.49,.18,1.04,.39c.33,.12,.89,.21,1.06,.52,.11,.1,.12,.2,.02,.3l-.14,.27-.29,.54-.54,1.01-2.21,4.11c-.1,.18,.18,.34,.27,.16l2.03-3.77,1.01-1.89c.19-.35,.52-.77,.09-1.07-.21-.15-.5-.21-.73-.3l-.97-.36-.97-.36c-.18-.07-.41-.21-.61-.15-.19,.05-.28,.24-.37,.39-.19,.32-.38,.64-.56,.96-.35,.6-.69,1.21-1.03,1.81-.76,1.37-1.5,2.75-2.21,4.14-.09,.18,.18,.34,.27,.16h0Z"/><path class="cls-9" d="M201.07,15.74c-.37,.49-.57,1.07-.7,1.66-.16,.68-.27,1.38-.4,2.06-.04,.21,.28,.3,.32,.09,.13-.67,.24-1.34,.39-2,.13-.59,.31-1.16,.68-1.64,.13-.17-.16-.34-.29-.17h0Z"/><polygon class="cls-5" points="213.16 18.84 211.76 16.81 203.41 23 205.41 24.71 213.16 18.84"/></g><g><rect class="cls-3" x="231.83" y="101.54" width="15.89" height="13.9" transform="translate(14.7 -27.9) rotate(6.87)"/><polygon class="cls-7" points="254.37 116.54 246.83 116.34 248.49 102.54 255.86 102.8 254.37 116.54"/><rect class="cls-7" x="237.45" y="103.89" width="5.79" height="2.21" transform="translate(14.28 -27.99) rotate(6.87)"/><line class="cls-1" x1="239.8" y1="88.8" x2="241.33" y2="102.14"/><rect class="cls-6" x="246.27" y="96.29" width="2.86" height="1.66" transform="translate(13.39 -28.93) rotate(6.87)"/><polygon class="cls-8" points="250.77 97.48 249.38 96.26 249.13 98.33 250.77 97.48"/><line class="cls-2" x1="246.19" y1="95.83" x2="249.33" y2="96.2"/><line class="cls-2" x1="245.93" y1="98.01" x2="249.07" y2="98.39"/><line class="cls-4" x1="247.8" y1="98.23" x2="247.28" y2="102.56"/><path class="cls-9" d="M239.95,89.73c.14,3.9,.55,7.78,1.22,11.63,0,.05,.06,.1,.11,.11l2.99,.5c.09,.01,.21-.04,.2-.15l-1.08-9.28c-.02-.2-.34-.2-.31,0l1.08,9.28,.2-.15-1.84-.31c-.25-.04-.57-.04-.8-.14-.32-.13-.3-.33-.36-.65-.21-1.24-.38-2.48-.53-3.73-.28-2.36-.47-4.74-.55-7.11,0-.2-.32-.2-.31,0h0Z"/><path class="cls-9" d="M240.31,89.44c.01-.67,.72-.94,1.27-1.04,.43-.08,1.13-.17,1.37,.3,.13,.26,.1,.61,.12,.89l.06,1.07,.11,2.05c.01,.2,.32,.2,.31,0l-.14-2.58c-.02-.4-.02-.82-.08-1.22-.04-.28-.16-.53-.4-.69-.49-.33-1.21-.2-1.73-.06-.61,.17-1.19,.59-1.2,1.27,0,.2,.31,.2,.31,0h0Z"/><path class="cls-9" d="M244.89,98.11c.1-1.56,.23-3.12,.39-4.68,.07-.72,.15-1.44,.24-2.17,.03-.22,.05-.44,.08-.67,.02-.15,0-.45,.08-.56,.13-.19,.88-.12,1.1-.13l1.15-.06c.31-.02,.82-.16,1.03,.08s.04,.81,.02,1.12l-.1,1.17-.41,4.68c-.02,.2,.3,.2,.32,0l.37-4.26,.18-2.09c.03-.4,.18-.93-.34-1.05-.24-.05-.51,0-.75,.01l-1.07,.05-1.07,.05c-.18,0-.43-.02-.59,.09-.13,.09-.15,.23-.18,.37-.06,.34-.09,.68-.13,1.02-.09,.72-.17,1.44-.24,2.16-.17,1.61-.3,3.23-.4,4.84-.01,.2,.3,.2,.32,0h0Z"/><path class="cls-9" d="M244.5,98.06c-.16,.63-.1,1.28,.02,1.92s.29,1.33,.44,1.99c.05,.21,.37,.12,.32-.09-.14-.62-.28-1.23-.41-1.85s-.21-1.26-.05-1.88c.05-.21-.27-.3-.32-.09h0Z"/><polygon class="cls-5" points="256.82 96.15 254.73 94.83 249.52 103.83 252.03 104.6 256.82 96.15"/></g><g><rect class="cls-3" x="324.43" y="58.59" width="15.89" height="13.9" transform="translate(-6.32 58.18) rotate(-9.91)"/><polygon class="cls-7" points="348.67 69.04 341.4 71.02 339.01 57.33 346.13 55.45 348.67 69.04"/><rect class="cls-7" x="329.02" y="60.92" width="5.79" height="2.21" transform="translate(-5.72 58.05) rotate(-9.91)"/><line class="cls-1" x1="326.72" y1="46.68" x2="332.04" y2="59.02"/><rect class="cls-6" x="335.25" y="51.53" width="2.86" height="1.66" transform="translate(-3.99 58.73) rotate(-9.91)"/><polygon class="cls-8" points="339.72 51.83 338.04 51.06 338.4 53.12 339.72 51.83"/><line class="cls-2" x1="334.86" y1="51.56" x2="337.98" y2="51.02"/><line class="cls-2" x1="335.25" y1="53.73" x2="338.36" y2="53.18"/><line class="cls-4" x1="337.1" y1="53.41" x2="337.85" y2="57.7"/><path class="cls-9" d="M327.13,47.53c1.26,3.69,2.77,7.29,4.52,10.78,.02,.04,.09,.08,.14,.08l3.01-.38c.13-.02,.19-.12,.14-.24l-3.71-8.57c-.08-.19-.35-.03-.27,.16l3.71,8.57,.14-.24-1.7,.22c-.3,.04-.6,.1-.9,.11-.39,.01-.42-.18-.58-.51-.53-1.07-1.03-2.15-1.51-3.24-.98-2.23-1.87-4.51-2.66-6.82-.07-.19-.37-.11-.3,.08h0Z"/><path class="cls-9" d="M327.39,47.15c-.18-.63,.38-1.08,.87-1.34,.41-.22,1.13-.55,1.49-.07,.17,.23,.24,.54,.34,.81l.36,.99,.69,1.9c.07,.19,.37,.11,.3-.08l-.85-2.36c-.14-.38-.26-.76-.41-1.13-.11-.27-.28-.51-.56-.61-.57-.22-1.26,.13-1.74,.43-.53,.33-.97,.91-.78,1.56,.06,.19,.36,.11,.3-.08h0Z"/><path class="cls-9" d="M334.27,54.13c-.35-1.51-.68-3.03-.97-4.56-.15-.75-.28-1.5-.42-2.25-.04-.23-.28-1.01-.15-1.2,.14-.21,.78-.32,1.03-.41l.99-.35,.49-.18c.22-.08,.37-.2,.58-.07,.26,.17,.28,.84,.35,1.15l.22,1.06,.96,4.61c.04,.2,.35,.12,.31-.08l-1.15-5.5c-.08-.4-.13-.85-.26-1.24-.06-.2-.12-.35-.34-.41-.29-.08-.64,.13-.91,.22l-1.32,.47c-.33,.12-.82,.2-1.1,.4-.14,.1-.19,.2-.19,.37-.01,.39,.14,.84,.2,1.23,.07,.42,.15,.84,.23,1.26,.35,1.86,.73,3.71,1.16,5.55,.05,.2,.35,.11,.31-.08h0Z"/><path class="cls-9" d="M333.89,54.18c.03,.63,.26,1.22,.55,1.78,.32,.62,.67,1.22,1.02,1.82,.11,.19,.4,.02,.29-.17-.32-.57-.65-1.14-.96-1.71-.29-.54-.53-1.11-.56-1.72-.01-.22-.35-.22-.34,0h0Z"/><polygon class="cls-5" points="345.14 48.8 342.75 48.15 340.36 58.26 342.98 58.28 345.14 48.8"/></g><g><rect class="cls-3" x="383.82" y="178.67" width="15.89" height="13.9" transform="translate(182.65 -194.12) rotate(35.81)"/><polygon class="cls-7" points="400.64 199.72 394.14 195.9 402.27 184.63 408.59 188.42 400.64 199.72"/><rect class="cls-7" x="391.06" y="181.73" width="5.79" height="2.21" transform="translate(181.43 -195.93) rotate(35.81)"/><line class="cls-1" x1="401.31" y1="168.4" x2="396.2" y2="180.82"/><rect class="cls-6" x="402.77" y="178.67" width="2.86" height="1.66" transform="translate(181.42 -202.56) rotate(35.81)"/><polygon class="cls-8" points="406.71 181.3 406.08 179.56 404.86 181.26 406.71 181.3"/><line class="cls-2" x1="403.51" y1="177.64" x2="406.07" y2="179.49"/><line class="cls-2" x1="402.22" y1="179.43" x2="404.79" y2="181.27"/><line class="cls-4" x1="403.75" y1="180.53" x2="401.2" y2="184.06"/><path class="cls-9" d="M400.99,169.28c-1.76,3.48-3.28,7.08-4.56,10.76-.02,.05,0,.12,.04,.15l2.37,1.89c.1,.08,.22,.05,.26-.07l3.54-8.64c.08-.19-.23-.27-.3-.08l-3.54,8.64,.26-.07-1.46-1.16c-.2-.16-.48-.31-.64-.51-.22-.27-.11-.43,0-.74,.4-1.12,.82-2.23,1.26-3.34,.91-2.27,1.93-4.49,3.03-6.68,.09-.18-.18-.34-.27-.16h0Z"/><path class="cls-9" d="M401.45,169.21c.33-.57,1.06-.48,1.59-.31,.45,.14,1.16,.42,1.07,1.01-.05,.32-.25,.63-.39,.91l-.42,.87-.86,1.78c-.09,.18,.18,.34,.27,.16l1.1-2.26c.17-.35,.36-.71,.51-1.07,.13-.3,.18-.61,.02-.91-.27-.53-.97-.77-1.51-.89-.61-.14-1.31-.05-1.64,.54-.1,.18,.17,.33,.27,.16h0Z"/><path class="cls-9" d="M401.26,179.01c.82-1.28,1.66-2.54,2.52-3.79,.43-.62,.87-1.24,1.31-1.86,.21-.29,.41-.58,.62-.86,.2-.27,.28-.19,.55-.06l.49,.24,1.05,.52,.49,.24c.12,.06,.36,.12,.44,.22,.26,.31-.37,.96-.54,1.22l-.61,.91-2.62,3.89c-.11,.17,.16,.33,.27,.16l2.4-3.57,1.18-1.75c.22-.33,.59-.73,.18-1.06-.22-.18-.51-.27-.76-.4l-.98-.48-.91-.45c-.19-.09-.37-.23-.58-.14-.16,.07-.27,.27-.37,.4-.21,.29-.42,.57-.62,.86-.4,.55-.79,1.11-1.18,1.67-.89,1.29-1.76,2.59-2.61,3.91-.11,.17,.16,.33,.27,.16h0Z"/><path class="cls-9" d="M400.95,178.77c-.42,.45-.68,1.02-.88,1.6-.23,.67-.41,1.36-.61,2.04-.06,.21,.26,.3,.32,.09,.19-.64,.37-1.29,.57-1.93,.18-.56,.42-1.12,.83-1.56,.15-.16-.09-.4-.24-.24h0Z"/><polygon class="cls-5" points="412.65 183.07 411.45 180.9 402.55 186.25 404.36 188.14 412.65 183.07"/></g><g><rect class="cls-3" x="278.93" y="174.77" width="15.89" height="13.9" transform="translate(-38.18 83.43) rotate(-15.53)"/><polygon class="cls-7" points="303.43 183.6 296.39 186.29 292.66 172.89 299.57 170.32 303.43 183.6"/><rect class="cls-7" x="283.17" y="177.16" width="5.79" height="2.21" transform="translate(-37.28 83.09) rotate(-15.53)"/><line class="cls-1" x1="279.39" y1="163.5" x2="285.89" y2="175.25"/><rect class="cls-6" x="288.44" y="167.35" width="2.86" height="1.66" transform="translate(-34.44 83.74) rotate(-15.53)"/><polygon class="cls-8" points="292.84 167.35 291.09 166.75 291.65 168.76 292.84 167.35"/><line class="cls-2" x1="287.98" y1="167.56" x2="291.02" y2="166.71"/><line class="cls-2" x1="288.57" y1="169.68" x2="291.61" y2="168.83"/><line class="cls-4" x1="290.38" y1="169.18" x2="291.55" y2="173.37"/><path class="cls-9" d="M279.9,164.33c1.61,3.54,3.46,6.96,5.53,10.25,.04,.06,.11,.09,.18,.07l2.96-.67c.1-.02,.14-.15,.09-.23l-4.53-8.16c-.1-.18-.37-.02-.27,.16l4.53,8.16,.09-.23-2.96,.67,.18,.07c-2.07-3.29-3.92-6.71-5.53-10.25-.08-.18-.35-.02-.27,.16h0Z"/><path class="cls-9" d="M280.11,163.91c-.25-.63,.28-1.15,.77-1.46,.43-.28,1.13-.65,1.51-.11,.17,.24,.27,.53,.4,.79l.43,.9,.86,1.8c.09,.18,.36,.02,.27-.16l-1.07-2.24c-.16-.34-.32-.68-.48-1.01-.13-.26-.31-.51-.6-.61-.59-.2-1.25,.21-1.7,.54-.5,.38-.93,1-.68,1.65,.07,.19,.38,.11,.3-.08h0Z"/><path class="cls-9" d="M287.65,170.19c-.49-1.44-.95-2.89-1.39-4.35-.21-.7-.41-1.4-.61-2.11-.09-.34-.25-.71-.29-1.06-.03-.29-.02-.31,.19-.46,.16-.12,.4-.19,.59-.28l1.01-.47c.3-.14,1.01-.64,1.28-.34,.09,.1,.13,.41,.17,.53l.17,.53,.33,1.06,1.39,4.44c.06,.19,.37,.11,.31-.08l-1.67-5.32c-.14-.43-.22-.95-.43-1.36-.07-.14-.16-.24-.33-.27-.29-.05-.63,.18-.87,.3l-1.26,.59c-.33,.16-.79,.29-1.08,.51-.15,.12-.18,.24-.16,.43,.03,.37,.21,.8,.31,1.16,.13,.47,.26,.94,.4,1.41,.51,1.75,1.06,3.5,1.65,5.23,.07,.19,.37,.11,.31-.08h0Z"/><path class="cls-9" d="M287.27,170.29c.09,.62,.38,1.17,.72,1.69,.38,.58,.79,1.14,1.18,1.7,.12,.18,.41,0,.29-.17-.38-.55-.78-1.09-1.15-1.65-.34-.51-.62-1.05-.71-1.66-.03-.21-.36-.12-.32,.09h0Z"/><polygon class="cls-5" points="297.93 163.81 295.49 163.39 294.1 173.69 296.72 173.46 297.93 163.81"/></g><g><rect class="cls-3" x="416.65" y="114.73" width="15.89" height="13.9" transform="translate(-17.08 118.11) rotate(-15.53)"/><polygon class="cls-7" points="441.15 123.57 434.11 126.25 430.39 112.86 437.29 110.29 441.15 123.57"/><rect class="cls-7" x="420.89" y="117.13" width="5.79" height="2.21" transform="translate(-16.18 117.77) rotate(-15.53)"/><line class="cls-1" x1="417.12" y1="103.47" x2="423.62" y2="115.22"/><rect class="cls-6" x="426.16" y="107.32" width="2.86" height="1.66" transform="translate(-13.34 118.42) rotate(-15.53)"/><polygon class="cls-8" points="430.56 107.31 428.82 106.72 429.37 108.73 430.56 107.31"/><line class="cls-2" x1="425.7" y1="107.53" x2="428.75" y2="106.68"/><line class="cls-2" x1="426.29" y1="109.65" x2="429.34" y2="108.8"/><line class="cls-4" x1="428.11" y1="109.14" x2="429.27" y2="113.34"/><path class="cls-9" d="M417.62,104.29c1.61,3.54,3.46,6.96,5.53,10.25,.04,.06,.11,.09,.18,.07l2.96-.67c.1-.02,.14-.15,.09-.23l-4.53-8.16c-.1-.18-.37-.02-.27,.16l4.53,8.16,.09-.23-2.96,.67,.18,.07c-2.07-3.29-3.92-6.71-5.53-10.25-.08-.18-.35-.02-.27,.16h0Z"/><path class="cls-9" d="M417.84,103.88c-.25-.63,.28-1.15,.77-1.46,.43-.28,1.13-.65,1.51-.11,.17,.24,.27,.53,.4,.79l.43,.9,.86,1.8c.09,.18,.36,.02,.27-.16l-1.07-2.24c-.16-.34-.32-.68-.48-1.01-.13-.26-.31-.51-.6-.61-.59-.2-1.25,.21-1.7,.54-.5,.38-.93,1-.68,1.65,.07,.19,.38,.11,.3-.08h0Z"/><path class="cls-9" d="M425.37,110.15c-.49-1.44-.95-2.89-1.39-4.35-.21-.7-.41-1.4-.61-2.11-.09-.34-.25-.71-.29-1.06-.03-.29-.02-.31,.19-.46,.16-.12,.4-.19,.59-.28l1.01-.47c.3-.14,1.01-.64,1.28-.34,.09,.1,.13,.41,.17,.53l.17,.53,.33,1.06,1.39,4.44c.06,.19,.37,.11,.31-.08l-1.67-5.32c-.14-.43-.22-.95-.43-1.36-.07-.14-.16-.24-.33-.27-.29-.05-.63,.18-.87,.3l-1.26,.59c-.33,.16-.79,.29-1.08,.51-.15,.12-.18,.24-.16,.43,.03,.37,.21,.8,.31,1.16,.13,.47,.26,.94,.4,1.41,.51,1.75,1.06,3.5,1.65,5.23,.07,.19,.37,.11,.31-.08h0Z"/><path class="cls-9" d="M424.99,110.26c.09,.62,.38,1.17,.72,1.69,.38,.58,.79,1.14,1.18,1.7,.12,.18,.41,0,.29-.17-.38-.55-.78-1.09-1.15-1.65-.34-.51-.62-1.05-.71-1.66-.03-.21-.36-.12-.32,.09h0Z"/><polygon class="cls-5" points="435.66 103.78 433.22 103.36 431.83 113.66 434.44 113.42 435.66 103.78"/></g><g><rect class="cls-3" x="513.18" y="69.15" width="15.89" height="13.9" transform="translate(108.95 -251.73) rotate(30.19)"/><polygon class="cls-7" points="531.34 89.27 524.5 86.11 531.49 74.09 538.15 77.24 531.34 89.27"/><rect class="cls-7" x="520.14" y="72.01" width="5.79" height="2.21" transform="translate(107.71 -253.1) rotate(30.19)"/><line class="cls-1" x1="528.95" y1="58.03" x2="525.07" y2="70.89"/><rect class="cls-6" x="531.48" y="67.97" width="2.86" height="1.66" transform="translate(106.88 -258.65) rotate(30.19)"/><polygon class="cls-8" points="535.58 70.35 534.79 68.68 533.74 70.48 535.58 70.35"/><line class="cls-2" x1="532.03" y1="67.02" x2="534.77" y2="68.6"/><line class="cls-2" x1="530.93" y1="68.92" x2="533.66" y2="70.51"/><line class="cls-4" x1="532.56" y1="69.86" x2="530.37" y2="73.63"/><path class="cls-9" d="M528.71,58.97c-1.41,3.62-2.57,7.34-3.47,11.12-.02,.07,.01,.14,.07,.18l2.55,1.64c.09,.06,.2,0,.23-.09l2.68-8.95c.06-.19-.24-.28-.3-.08l-2.68,8.95,.23-.09-1.7-1.1c-.13-.08-.55-.28-.64-.41-.17-.26,.02-.63,.09-.9,.29-1.14,.59-2.27,.93-3.4,.68-2.29,1.45-4.55,2.32-6.78,.07-.19-.23-.27-.3-.08h0Z"/><path class="cls-9" d="M529.16,58.84c.29-.64,1.06-.59,1.63-.46,.43,.1,1.1,.31,1.09,.85,0,.31-.17,.63-.28,.92l-.35,.95-.7,1.9c-.07,.19,.23,.27,.3,.08l.87-2.36c.14-.38,.31-.77,.42-1.16,.08-.3,.07-.6-.11-.86-.33-.47-1.01-.63-1.54-.71-.61-.09-1.33,.05-1.61,.67-.08,.18,.19,.34,.27,.16h0Z"/><path class="cls-9" d="M529.92,68.61c.68-1.33,1.37-2.64,2.1-3.94,.36-.65,.73-1.3,1.1-1.94,.19-.33,.36-.73,.6-1.03,.2-.24,.28-.22,.55-.12l.49,.18,1.04,.39c.33,.12,.89,.21,1.06,.52,.11,.1,.12,.2,.02,.3l-.14,.27-.29,.54-.54,1.01-2.21,4.11c-.1,.18,.18,.34,.27,.16l2.03-3.77,1.01-1.89c.19-.35,.52-.77,.09-1.07-.21-.15-.5-.21-.73-.3l-.97-.36-.97-.36c-.18-.07-.41-.21-.61-.15-.19,.05-.28,.24-.37,.39-.19,.32-.38,.64-.56,.96-.35,.6-.69,1.21-1.03,1.81-.76,1.37-1.5,2.75-2.21,4.14-.09,.18,.18,.34,.27,.16h0Z"/><path class="cls-9" d="M529.58,68.41c-.37,.49-.57,1.07-.7,1.66-.16,.68-.27,1.38-.4,2.06-.04,.21,.28,.3,.32,.09,.13-.67,.24-1.34,.39-2,.13-.59,.31-1.16,.68-1.64,.13-.17-.16-.34-.29-.17h0Z"/><polygon class="cls-5" points="541.67 71.52 540.27 69.48 531.92 75.68 533.92 77.39 541.67 71.52"/></g><g><rect class="cls-3" x="522.39" y="153.72" width="15.89" height="13.9" transform="translate(23.03 -62.28) rotate(6.87)"/><polygon class="cls-7" points="544.93 168.72 537.4 168.52 539.06 154.72 546.42 154.98 544.93 168.72"/><rect class="cls-7" x="528.01" y="156.07" width="5.79" height="2.21" transform="translate(22.61 -62.38) rotate(6.87)"/><line class="cls-1" x1="530.37" y1="140.98" x2="531.9" y2="154.32"/><rect class="cls-6" x="536.84" y="148.47" width="2.86" height="1.66" transform="translate(21.72 -63.31) rotate(6.87)"/><polygon class="cls-8" points="541.33 149.66 539.95 148.44 539.7 150.51 541.33 149.66"/><line class="cls-2" x1="536.76" y1="148.01" x2="539.9" y2="148.38"/><line class="cls-2" x1="536.5" y1="150.19" x2="539.64" y2="150.57"/><line class="cls-4" x1="538.37" y1="150.41" x2="537.85" y2="154.74"/><path class="cls-9" d="M530.52,141.91c.14,3.9,.55,7.78,1.22,11.63,0,.05,.06,.1,.11,.11l2.99,.5c.09,.01,.21-.04,.2-.15l-1.08-9.28c-.02-.2-.34-.2-.31,0l1.08,9.28,.2-.15-1.84-.31c-.25-.04-.57-.04-.8-.14-.32-.13-.3-.33-.36-.65-.21-1.24-.38-2.48-.53-3.73-.28-2.36-.47-4.74-.55-7.11,0-.2-.32-.2-.31,0h0Z"/><path class="cls-9" d="M530.88,141.62c.01-.67,.72-.94,1.27-1.04,.43-.08,1.13-.17,1.37,.3,.13,.26,.1,.61,.12,.89l.06,1.07,.11,2.05c.01,.2,.32,.2,.31,0l-.14-2.58c-.02-.4-.02-.82-.08-1.22-.04-.28-.16-.53-.4-.69-.49-.33-1.21-.2-1.73-.06-.61,.17-1.19,.59-1.2,1.27,0,.2,.31,.2,.31,0h0Z"/><path class="cls-9" d="M535.45,150.29c.1-1.56,.23-3.12,.39-4.68,.07-.72,.15-1.44,.24-2.17,.03-.22,.05-.44,.08-.67,.02-.15,0-.45,.08-.56,.13-.19,.88-.12,1.1-.13l1.15-.06c.31-.02,.82-.16,1.03,.08s.04,.81,.02,1.12l-.1,1.17-.41,4.68c-.02,.2,.3,.2,.32,0l.37-4.26,.18-2.09c.03-.4,.18-.93-.34-1.05-.24-.05-.51,0-.75,.01l-1.07,.05-1.07,.05c-.18,0-.43-.02-.59,.09-.13,.09-.15,.23-.18,.37-.06,.34-.09,.68-.13,1.02-.09,.72-.17,1.44-.24,2.16-.17,1.61-.3,3.23-.4,4.84-.01,.2,.3,.2,.32,0h0Z"/><path class="cls-9" d="M535.07,150.24c-.16,.63-.1,1.28,.02,1.92s.29,1.33,.44,1.99c.05,.21,.37,.12,.32-.09-.14-.62-.28-1.23-.41-1.85s-.21-1.26-.05-1.88c.05-.21-.27-.3-.32-.09h0Z"/><polygon class="cls-5" points="547.39 148.33 545.29 147.01 540.09 156.01 542.59 156.78 547.39 148.33"/></g><g><rect class="cls-3" x="636.22" y="106.87" width="15.89" height="13.9" transform="translate(-9.98 112.56) rotate(-9.91)"/><polygon class="cls-7" points="660.47 117.32 653.19 119.3 650.8 105.61 657.92 103.72 660.47 117.32"/><rect class="cls-7" x="640.81" y="109.2" width="5.79" height="2.21" transform="translate(-9.38 112.43) rotate(-9.91)"/><line class="cls-1" x1="638.51" y1="94.96" x2="643.83" y2="107.29"/><rect class="cls-6" x="647.05" y="99.81" width="2.86" height="1.66" transform="translate(-7.64 113.11) rotate(-9.91)"/><polygon class="cls-8" points="651.52 100.1 649.84 99.34 650.19 101.39 651.52 100.1"/><line class="cls-2" x1="646.66" y1="99.84" x2="649.77" y2="99.29"/><line class="cls-2" x1="647.04" y1="102.01" x2="650.15" y2="101.46"/><line class="cls-4" x1="648.89" y1="101.68" x2="649.64" y2="105.98"/><path class="cls-9" d="M638.92,95.81c1.26,3.69,2.77,7.29,4.52,10.78,.02,.04,.09,.08,.14,.08l3.01-.38c.13-.02,.19-.12,.14-.24l-3.71-8.57c-.08-.19-.35-.03-.27,.16l3.71,8.57,.14-.24-1.7,.22c-.3,.04-.6,.1-.9,.11-.39,.01-.42-.18-.58-.51-.53-1.07-1.03-2.15-1.51-3.24-.98-2.23-1.87-4.51-2.66-6.82-.07-.19-.37-.11-.3,.08h0Z"/><path class="cls-9" d="M639.19,95.43c-.18-.63,.38-1.08,.87-1.34,.41-.22,1.13-.55,1.49-.07,.17,.23,.24,.54,.34,.81l.36,.99,.69,1.9c.07,.19,.37,.11,.3-.08l-.85-2.36c-.14-.38-.26-.76-.41-1.13-.11-.27-.28-.51-.56-.61-.57-.22-1.26,.13-1.74,.43-.53,.33-.97,.91-.78,1.56,.06,.19,.36,.11,.3-.08h0Z"/><path class="cls-9" d="M646.07,102.41c-.35-1.51-.68-3.03-.97-4.56-.15-.75-.28-1.5-.42-2.25-.04-.23-.28-1.01-.15-1.2,.14-.21,.78-.32,1.03-.41l.99-.35,.49-.18c.22-.08,.37-.2,.58-.07,.26,.17,.28,.84,.35,1.15l.22,1.06,.96,4.61c.04,.2,.35,.12,.31-.08l-1.15-5.5c-.08-.4-.13-.85-.26-1.24-.06-.2-.12-.35-.34-.41-.29-.08-.64,.13-.91,.22l-1.32,.47c-.33,.12-.82,.2-1.1,.4-.14,.1-.19,.2-.19,.37-.01,.39,.14,.84,.2,1.23,.07,.42,.15,.84,.23,1.26,.35,1.86,.73,3.71,1.16,5.55,.05,.2,.35,.11,.31-.08h0Z"/><path class="cls-9" d="M645.68,102.46c.03,.63,.26,1.22,.55,1.78,.32,.62,.67,1.22,1.02,1.82,.11,.19,.4,.02,.29-.17-.32-.57-.65-1.14-.96-1.71-.29-.54-.53-1.11-.56-1.72-.01-.22-.35-.22-.34,0h0Z"/><polygon class="cls-5" points="656.93 97.08 654.54 96.43 652.15 106.54 654.78 106.56 656.93 97.08"/></g><g><rect class="cls-3" x="804.6" y="171.08" width="15.89" height="13.9" transform="translate(257.74 -441.74) rotate(35.81)"/><polygon class="cls-7" points="821.42 192.14 814.92 188.32 823.05 177.04 829.37 180.83 821.42 192.14"/><rect class="cls-7" x="811.84" y="174.14" width="5.79" height="2.21" transform="translate(256.52 -443.55) rotate(35.81)"/><line class="cls-1" x1="822.1" y1="160.81" x2="816.98" y2="173.23"/><rect class="cls-6" x="823.56" y="171.08" width="2.86" height="1.66" transform="translate(256.51 -450.18) rotate(35.81)"/><polygon class="cls-8" points="827.49 173.71 826.87 171.98 825.65 173.67 827.49 173.71"/><line class="cls-2" x1="824.29" y1="170.05" x2="826.85" y2="171.9"/><line class="cls-2" x1="823" y1="171.84" x2="825.57" y2="173.69"/><line class="cls-4" x1="824.53" y1="172.94" x2="821.98" y2="176.47"/><path class="cls-9" d="M821.78,161.7c-1.76,3.48-3.28,7.08-4.56,10.76-.02,.05,0,.12,.04,.15l2.37,1.89c.1,.08,.22,.05,.26-.07l3.54-8.64c.08-.19-.23-.27-.3-.08l-3.54,8.64,.26-.07-1.46-1.16c-.2-.16-.48-.31-.64-.51-.22-.27-.11-.43,0-.74,.4-1.12,.82-2.23,1.26-3.34,.91-2.27,1.93-4.49,3.03-6.68,.09-.18-.18-.34-.27-.16h0Z"/><path class="cls-9" d="M822.23,161.62c.33-.57,1.06-.48,1.59-.31,.45,.14,1.16,.42,1.07,1.01-.05,.32-.25,.63-.39,.91l-.42,.87-.86,1.78c-.09,.18,.18,.34,.27,.16l1.1-2.26c.17-.35,.36-.71,.51-1.07,.13-.3,.18-.61,.02-.91-.27-.53-.97-.77-1.51-.89-.61-.14-1.31-.05-1.64,.54-.1,.18,.17,.33,.27,.16h0Z"/><path class="cls-9" d="M822.04,171.42c.82-1.28,1.66-2.54,2.52-3.79,.43-.62,.87-1.24,1.31-1.86,.21-.29,.41-.58,.62-.86,.2-.27,.28-.19,.55-.06l.49,.24,1.05,.52,.49,.24c.12,.06,.36,.12,.44,.22,.26,.31-.37,.96-.54,1.22l-.61,.91-2.62,3.89c-.11,.17,.16,.33,.27,.16l2.4-3.57,1.18-1.75c.22-.33,.59-.73,.18-1.06-.22-.18-.51-.27-.76-.4l-.98-.48-.91-.45c-.19-.09-.37-.23-.58-.14-.16,.07-.27,.27-.37,.4-.21,.29-.42,.57-.62,.86-.4,.55-.79,1.11-1.18,1.67-.89,1.29-1.76,2.59-2.61,3.91-.11,.17,.16,.33,.27,.16h0Z"/><path class="cls-9" d="M821.73,171.18c-.42,.45-.68,1.02-.88,1.6-.23,.67-.41,1.36-.61,2.04-.06,.21,.26,.3,.32,.09,.19-.64,.37-1.29,.57-1.93,.18-.56,.42-1.12,.83-1.56,.15-.16-.09-.4-.24-.24h0Z"/><polygon class="cls-5" points="833.44 175.48 832.24 173.31 823.33 178.67 825.14 180.56 833.44 175.48"/></g><g><rect class="cls-3" x="813.44" y="49.87" width="15.89" height="13.9" transform="translate(14.77 221.97) rotate(-15.53)"/><polygon class="cls-7" points="837.95 58.71 830.91 61.39 827.18 48 834.09 45.43 837.95 58.71"/><rect class="cls-7" x="817.69" y="52.27" width="5.79" height="2.21" transform="translate(15.66 221.63) rotate(-15.53)"/><line class="cls-1" x1="813.91" y1="38.61" x2="820.41" y2="50.36"/><rect class="cls-6" x="822.95" y="42.46" width="2.86" height="1.66" transform="translate(18.5 222.28) rotate(-15.53)"/><polygon class="cls-8" points="827.36 42.46 825.61 41.86 826.17 43.87 827.36 42.46"/><line class="cls-2" x1="822.5" y1="42.67" x2="825.54" y2="41.82"/><line class="cls-2" x1="823.09" y1="44.79" x2="826.13" y2="43.94"/><line class="cls-4" x1="824.9" y1="44.28" x2="826.07" y2="48.48"/><path class="cls-9" d="M814.41,39.43c1.61,3.54,3.46,6.96,5.53,10.25,.04,.06,.11,.09,.18,.07l2.96-.67c.1-.02,.14-.15,.09-.23l-4.53-8.16c-.1-.18-.37-.02-.27,.16l4.53,8.16,.09-.23-2.96,.67,.18,.07c-2.07-3.29-3.92-6.71-5.53-10.25-.08-.18-.35-.02-.27,.16h0Z"/><path class="cls-9" d="M814.63,39.02c-.25-.63,.28-1.15,.77-1.46,.43-.28,1.13-.65,1.51-.11,.17,.24,.27,.53,.4,.79l.43,.9,.86,1.8c.09,.18,.36,.02,.27-.16l-1.07-2.24c-.16-.34-.32-.68-.48-1.01-.13-.26-.31-.51-.6-.61-.59-.2-1.25,.21-1.7,.54-.5,.38-.93,1-.68,1.65,.07,.19,.38,.11,.3-.08h0Z"/><path class="cls-9" d="M822.17,45.3c-.49-1.44-.95-2.89-1.39-4.35-.21-.7-.41-1.4-.61-2.11-.09-.34-.25-.71-.29-1.06-.03-.29-.02-.31,.19-.46,.16-.12,.4-.19,.59-.28l1.01-.47c.3-.14,1.01-.64,1.28-.34,.09,.1,.13,.41,.17,.53l.17,.53,.33,1.06,1.39,4.44c.06,.19,.37,.11,.31-.08l-1.67-5.32c-.14-.43-.22-.95-.43-1.36-.07-.14-.16-.24-.33-.27-.29-.05-.63,.18-.87,.3l-1.26,.59c-.33,.16-.79,.29-1.08,.51-.15,.12-.18,.24-.16,.43,.03,.37,.21,.8,.31,1.16,.13,.47,.26,.94,.4,1.41,.51,1.75,1.06,3.5,1.65,5.23,.07,.19,.37,.11,.31-.08h0Z"/><path class="cls-9" d="M821.79,45.4c.09,.62,.38,1.17,.72,1.69,.38,.58,.79,1.14,1.18,1.7,.12,.18,.41,0,.29-.17-.38-.55-.78-1.09-1.15-1.65-.34-.51-.62-1.05-.71-1.66-.03-.21-.36-.12-.32,.09h0Z"/><polygon class="cls-5" points="832.45 38.92 830.01 38.5 828.62 48.8 831.24 48.56 832.45 38.92"/></g><g><rect class="cls-3" x="717.83" y="58.55" width="15.89" height="13.9" transform="translate(131.38 -356.08) rotate(30.19)"/><polygon class="cls-7" points="735.99 78.67 729.15 75.51 736.14 63.49 742.8 66.64 735.99 78.67"/><rect class="cls-7" x="724.79" y="61.41" width="5.79" height="2.21" transform="translate(130.14 -357.45) rotate(30.19)"/><line class="cls-1" x1="733.6" y1="47.43" x2="729.72" y2="60.29"/><rect class="cls-6" x="736.13" y="57.37" width="2.86" height="1.66" transform="translate(129.3 -363) rotate(30.19)"/><polygon class="cls-8" points="740.23 59.74 739.44 58.08 738.39 59.88 740.23 59.74"/><line class="cls-2" x1="736.68" y1="56.41" x2="739.42" y2="58"/><line class="cls-2" x1="735.58" y1="58.32" x2="738.31" y2="59.9"/><line class="cls-4" x1="737.2" y1="59.26" x2="735.01" y2="63.03"/><path class="cls-9" d="M733.35,48.37c-1.41,3.62-2.57,7.34-3.47,11.12-.02,.07,.01,.14,.07,.18l2.55,1.64c.09,.06,.2,0,.23-.09l2.68-8.95c.06-.19-.24-.28-.3-.08l-2.68,8.95,.23-.09-1.7-1.1c-.13-.08-.55-.28-.64-.41-.17-.26,.02-.63,.09-.9,.29-1.14,.59-2.27,.93-3.4,.68-2.29,1.45-4.55,2.32-6.78,.07-.19-.23-.27-.3-.08h0Z"/><path class="cls-9" d="M733.8,48.24c.29-.64,1.06-.59,1.63-.46,.43,.1,1.1,.31,1.09,.85,0,.31-.17,.63-.28,.92l-.35,.95-.7,1.9c-.07,.19,.23,.27,.3,.08l.87-2.36c.14-.38,.31-.77,.42-1.16,.08-.3,.07-.6-.11-.86-.33-.47-1.01-.63-1.54-.71-.61-.09-1.33,.05-1.61,.67-.08,.18,.19,.34,.27,.16h0Z"/><path class="cls-9" d="M734.57,58.01c.68-1.33,1.37-2.64,2.1-3.94,.36-.65,.73-1.3,1.1-1.94,.19-.33,.36-.73,.6-1.03,.2-.24,.28-.22,.55-.12l.49,.18,1.04,.39c.33,.12,.89,.21,1.06,.52,.11,.1,.12,.2,.02,.3l-.14,.27-.29,.54-.54,1.01-2.21,4.11c-.1,.18,.18,.34,.27,.16l2.03-3.77,1.01-1.89c.19-.35,.52-.77,.09-1.07-.21-.15-.5-.21-.73-.3l-.97-.36-.97-.36c-.18-.07-.41-.21-.61-.15-.19,.05-.28,.24-.37,.39-.19,.32-.38,.64-.56,.96-.35,.6-.69,1.21-1.03,1.81-.76,1.37-1.5,2.75-2.21,4.14-.09,.18,.18,.34,.27,.16h0Z"/><path class="cls-9" d="M734.23,57.81c-.37,.49-.57,1.07-.7,1.66-.16,.68-.27,1.38-.4,2.06-.04,.21,.28,.3,.32,.09,.13-.67,.24-1.34,.39-2,.13-.59,.31-1.16,.68-1.64,.13-.17-.16-.34-.29-.17h0Z"/><polygon class="cls-5" points="746.32 60.92 744.91 58.88 736.57 65.08 738.56 66.78 746.32 60.92"/></g><g><rect class="cls-3" x="621.59" y="30.25" width="15.89" height="13.9" transform="translate(31.11 -161.77) rotate(15.01)"/><polygon class="cls-7" points="642.84 47.24 635.4 45.97 639.01 32.55 646.26 33.84 642.84 47.24"/><rect class="cls-7" x="627.7" y="32.71" width="5.79" height="2.21" transform="translate(30.28 -162.16) rotate(15.01)"/><line class="cls-1" x1="632.35" y1="17.71" x2="631.97" y2="31.14"/><rect class="cls-6" x="637.56" y="26.23" width="2.86" height="1.66" transform="translate(28.81 -164.57) rotate(15.01)"/><polygon class="cls-8" points="641.97 27.86 640.77 26.46 640.23 28.47 641.97 27.86"/><line class="cls-2" x1="637.68" y1="25.57" x2="640.73" y2="26.39"/><line class="cls-2" x1="637.11" y1="27.7" x2="640.16" y2="28.51"/><line class="cls-4" x1="638.93" y1="28.18" x2="637.8" y2="32.39"/><path class="cls-9" d="M632.36,18.68c-.41,3.87-.56,7.75-.44,11.64,0,.07,.05,.13,.12,.15l2.89,.92c.1,.03,.2-.05,.2-.15l.24-9.34c0-.2-.31-.2-.31,0l-.24,9.34,.2-.15-1.78-.57c-.21-.07-.47-.12-.67-.21-.39-.18-.34-.31-.35-.73-.03-1.2-.03-2.4,0-3.6,.05-2.44,.21-4.87,.46-7.3,.02-.2-.29-.2-.31,0h0Z"/><path class="cls-9" d="M632.76,18.44c.11-.66,.81-.84,1.38-.87,.45-.02,1.19-.02,1.35,.52,.09,.29,0,.65-.02,.95l-.09,1-.18,2.05c-.02,.2,.3,.2,.31,0l.23-2.55c.04-.4,.11-.82,.1-1.23,0-.29-.1-.55-.32-.74-.44-.38-1.16-.36-1.71-.29-.61,.08-1.25,.41-1.35,1.07-.03,.2,.27,.28,.3,.08h0Z"/><path class="cls-9" d="M636.06,27.67c.31-1.49,.65-2.98,1.02-4.46,.18-.71,.36-1.43,.55-2.14,.09-.35,.16-.73,.29-1.07,.12-.3,.22-.3,.52-.27l.54,.05,1.17,.11c.28,.03,1.12-.04,1.19,.35,.02,.1-.09,.37-.11,.47l-.15,.62-.25,1.09-1.05,4.52c-.05,.2,.26,.28,.31,.08l.96-4.13,.49-2.1c.09-.39,.31-.9-.19-1.08-.23-.08-.5-.07-.74-.09l-1.01-.09-1.01-.09c-.21-.02-.51-.11-.71,0-.16,.08-.2,.26-.25,.42-.1,.35-.19,.71-.29,1.07-.18,.66-.35,1.32-.51,1.99-.39,1.56-.74,3.12-1.07,4.69-.04,.2,.26,.29,.31,.08h0Z"/><path class="cls-9" d="M635.68,27.56c-.24,.59-.27,1.24-.24,1.87,.03,.67,.1,1.34,.15,2.01,.02,.21,.35,.22,.34,0-.05-.65-.11-1.3-.15-1.94s-.02-1.26,.22-1.85c.08-.2-.24-.29-.32-.09h0Z"/><polygon class="cls-5" points="648.16 27.4 646.27 25.8 639.84 33.96 642.21 35.09 648.16 27.4"/></g><g><rect class="cls-3" x="404.69" y="25.38" width="15.89" height="13.9" transform="translate(6.41 111.64) rotate(-15.53)"/><polygon class="cls-7" points="429.19 34.21 422.15 36.9 418.43 23.51 425.33 20.94 429.19 34.21"/><rect class="cls-7" x="408.93" y="27.77" width="5.79" height="2.21" transform="translate(7.3 111.3) rotate(-15.53)"/><line class="cls-1" x1="405.16" y1="14.11" x2="411.65" y2="25.87"/><rect class="cls-6" x="414.2" y="17.96" width="2.86" height="1.66" transform="translate(10.14 111.95) rotate(-15.53)"/><polygon class="cls-8" points="418.6 17.96 416.85 17.36 417.41 19.37 418.6 17.96"/><line class="cls-2" x1="413.74" y1="18.17" x2="416.78" y2="17.32"/><line class="cls-2" x1="414.33" y1="20.3" x2="417.38" y2="19.44"/><line class="cls-4" x1="416.15" y1="19.79" x2="417.31" y2="23.99"/><path class="cls-9" d="M405.66,14.94c1.61,3.54,3.46,6.96,5.53,10.25,.04,.06,.11,.09,.18,.07l2.96-.67c.1-.02,.14-.15,.09-.23l-4.53-8.16c-.1-.18-.37-.02-.27,.16l4.53,8.16,.09-.23-2.96,.67,.18,.07c-2.07-3.29-3.92-6.71-5.53-10.25-.08-.18-.35-.02-.27,.16h0Z"/><path class="cls-9" d="M405.88,14.53c-.25-.63,.28-1.15,.77-1.46,.43-.28,1.13-.65,1.51-.11,.17,.24,.27,.53,.4,.79l.43,.9,.86,1.8c.09,.18,.36,.02,.27-.16l-1.07-2.24c-.16-.34-.32-.68-.48-1.01-.13-.26-.31-.51-.6-.61-.59-.2-1.25,.21-1.7,.54-.5,.38-.93,1-.68,1.65,.07,.19,.38,.11,.3-.08h0Z"/><path class="cls-9" d="M413.41,20.8c-.49-1.44-.95-2.89-1.39-4.35-.21-.7-.41-1.4-.61-2.11-.09-.34-.25-.71-.29-1.06-.03-.29-.02-.31,.19-.46,.16-.12,.4-.19,.59-.28l1.01-.47c.3-.14,1.01-.64,1.28-.34,.09,.1,.13,.41,.17,.53l.17,.53,.33,1.06,1.39,4.44c.06,.19,.37,.11,.31-.08l-1.67-5.32c-.14-.43-.22-.95-.43-1.36-.07-.14-.16-.24-.33-.27-.29-.05-.63,.18-.87,.3l-1.26,.59c-.33,.16-.79,.29-1.08,.51-.15,.12-.18,.24-.16,.43,.03,.37,.21,.8,.31,1.16,.13,.47,.26,.94,.4,1.41,.51,1.75,1.06,3.5,1.65,5.23,.07,.19,.37,.11,.31-.08h0Z"/><path class="cls-9" d="M413.03,20.91c.09,.62,.38,1.17,.72,1.69,.38,.58,.79,1.14,1.18,1.7,.12,.18,.41,0,.29-.17-.38-.55-.78-1.09-1.15-1.65-.34-.51-.62-1.05-.71-1.66-.03-.21-.36-.12-.32,.09h0Z"/><polygon class="cls-5" points="423.69 14.42 421.25 14.01 419.87 24.31 422.48 24.07 423.69 14.42"/></g><g><rect class="cls-3" x="622.88" y="180.19" width="15.89" height="13.9" transform="translate(-22.79 111.36) rotate(-9.91)"/><polygon class="cls-7" points="647.12 190.63 639.84 192.62 637.45 178.92 644.57 177.04 647.12 190.63"/><rect class="cls-7" x="627.46" y="182.52" width="5.79" height="2.21" transform="translate(-22.2 111.23) rotate(-9.91)"/><line class="cls-1" x1="625.16" y1="168.27" x2="630.48" y2="180.61"/><rect class="cls-6" x="633.7" y="173.13" width="2.86" height="1.66" transform="translate(-20.46 111.91) rotate(-9.91)"/><polygon class="cls-8" points="638.17 173.42 636.49 172.66 636.85 174.71 638.17 173.42"/><line class="cls-2" x1="633.31" y1="173.16" x2="636.42" y2="172.61"/><line class="cls-2" x1="633.69" y1="175.33" x2="636.8" y2="174.78"/><line class="cls-4" x1="635.55" y1="175" x2="636.29" y2="179.29"/><path class="cls-9" d="M625.57,169.12c1.26,3.69,2.77,7.29,4.52,10.78,.02,.04,.09,.08,.14,.08l3.01-.38c.13-.02,.19-.12,.14-.24l-3.71-8.57c-.08-.19-.35-.03-.27,.16l3.71,8.57,.14-.24-1.7,.22c-.3,.04-.6,.1-.9,.11-.39,.01-.42-.18-.58-.51-.53-1.07-1.03-2.15-1.51-3.24-.98-2.23-1.87-4.51-2.66-6.82-.07-.19-.37-.11-.3,.08h0Z"/><path class="cls-9" d="M625.84,168.74c-.18-.63,.38-1.08,.87-1.34,.41-.22,1.13-.55,1.49-.07,.17,.23,.24,.54,.34,.81l.36,.99,.69,1.9c.07,.19,.37,.11,.3-.08l-.85-2.36c-.14-.38-.26-.76-.41-1.13-.11-.27-.28-.51-.56-.61-.57-.22-1.26,.13-1.74,.43-.53,.33-.97,.91-.78,1.56,.06,.19,.36,.11,.3-.08h0Z"/><path class="cls-9" d="M632.72,175.72c-.35-1.51-.68-3.03-.97-4.56-.15-.75-.28-1.5-.42-2.25-.04-.23-.28-1.01-.15-1.2,.14-.21,.78-.32,1.03-.41l.99-.35,.49-.18c.22-.08,.37-.2,.58-.07,.26,.17,.28,.84,.35,1.15l.22,1.06,.96,4.61c.04,.2,.35,.12,.31-.08l-1.15-5.5c-.08-.4-.13-.85-.26-1.24-.06-.2-.12-.35-.34-.41-.29-.08-.64,.13-.91,.22l-1.32,.47c-.33,.12-.82,.2-1.1,.4-.14,.1-.19,.2-.19,.37-.01,.39,.14,.84,.2,1.23,.07,.42,.15,.84,.23,1.26,.35,1.86,.73,3.71,1.16,5.55,.05,.2,.35,.11,.31-.08h0Z"/><path class="cls-9" d="M632.33,175.78c.03,.63,.26,1.22,.55,1.78,.32,.62,.67,1.22,1.02,1.82,.11,.19,.4,.02,.29-.17-.32-.57-.65-1.14-.96-1.71-.29-.54-.53-1.11-.56-1.72-.01-.22-.35-.22-.34,0h0Z"/><polygon class="cls-5" points="643.58 170.4 641.19 169.74 638.8 179.86 641.43 179.88 643.58 170.4"/></g><g><rect class="cls-3" x="756.01" y="120.5" width="15.89" height="13.9" transform="translate(167.71 -366.88) rotate(30.19)"/><polygon class="cls-7" points="774.17 140.62 767.33 137.45 774.32 125.44 780.98 128.59 774.17 140.62"/><rect class="cls-7" x="762.97" y="123.36" width="5.79" height="2.21" transform="translate(166.47 -368.24) rotate(30.19)"/><line class="cls-1" x1="771.78" y1="109.38" x2="767.9" y2="122.24"/><rect class="cls-6" x="774.31" y="119.31" width="2.86" height="1.66" transform="translate(165.63 -373.8) rotate(30.19)"/><polygon class="cls-8" points="778.41 121.69 777.62 120.02 776.57 121.82 778.41 121.69"/><line class="cls-2" x1="774.86" y1="118.36" x2="777.6" y2="119.95"/><line class="cls-2" x1="773.76" y1="120.26" x2="776.49" y2="121.85"/><line class="cls-4" x1="775.39" y1="121.21" x2="773.2" y2="124.97"/><path class="cls-9" d="M771.54,110.31c-1.41,3.62-2.57,7.34-3.47,11.12-.02,.07,.01,.14,.07,.18l2.55,1.64c.09,.06,.2,0,.23-.09l2.68-8.95c.06-.19-.24-.28-.3-.08l-2.68,8.95,.23-.09-1.7-1.1c-.13-.08-.55-.28-.64-.41-.17-.26,.02-.63,.09-.9,.29-1.14,.59-2.27,.93-3.4,.68-2.29,1.45-4.55,2.32-6.78,.07-.19-.23-.27-.3-.08h0Z"/><path class="cls-9" d="M771.98,110.18c.29-.64,1.06-.59,1.63-.46,.43,.1,1.1,.31,1.09,.85,0,.31-.17,.63-.28,.92l-.35,.95-.7,1.9c-.07,.19,.23,.27,.3,.08l.87-2.36c.14-.38,.31-.77,.42-1.16,.08-.3,.07-.6-.11-.86-.33-.47-1.01-.63-1.54-.71-.61-.09-1.33,.05-1.61,.67-.08,.18,.19,.34,.27,.16h0Z"/><path class="cls-9" d="M772.75,119.96c.68-1.33,1.37-2.64,2.1-3.94,.36-.65,.73-1.3,1.1-1.94,.19-.33,.36-.73,.6-1.03,.2-.24,.28-.22,.55-.12l.49,.18,1.04,.39c.33,.12,.89,.21,1.06,.52,.11,.1,.12,.2,.02,.3l-.14,.27-.29,.54-.54,1.01-2.21,4.11c-.1,.18,.18,.34,.27,.16l2.03-3.77,1.01-1.89c.19-.35,.52-.77,.09-1.07-.21-.15-.5-.21-.73-.3l-.97-.36-.97-.36c-.18-.07-.41-.21-.61-.15-.19,.05-.28,.24-.37,.39-.19,.32-.38,.64-.56,.96-.35,.6-.69,1.21-1.03,1.81-.76,1.37-1.5,2.75-2.21,4.14-.09,.18,.18,.34,.27,.16h0Z"/><path class="cls-9" d="M772.41,119.76c-.37,.49-.57,1.07-.7,1.66-.16,.68-.27,1.38-.4,2.06-.04,.21,.28,.3,.32,.09,.13-.67,.24-1.34,.39-2,.13-.59,.31-1.16,.68-1.64,.13-.17-.16-.34-.29-.17h0Z"/><polygon class="cls-5" points="784.5 122.87 783.09 120.83 774.75 127.02 776.74 128.73 784.5 122.87"/></g></svg>